<svg width="492" height="457" viewBox="0 0 492 457" fill="none" xmlns="http://www.w3.org/2000/svg">
<path d="M72.2892 295.501C64.6443 293.715 60.7439 291.789 54.6037 286.364C56.3705 282.286 54.6037 279.837 59.1279 275.922C63.6521 272.006 60.3617 272.006 60.3617 272.006L58.7166 261.563L52.5472 259.823L51.3134 261.563L54.6037 268.09L46.7892 281.143C41.81 277.575 36.0956 278.532 34.0392 272.006C31.9827 265.479 51.3134 238.938 51.3134 238.938L72.2892 233.717L69.4101 225.015L73.9343 221.099L69.4101 214.572L84.2166 198.039H87.5069V194.123L95.7327 185.421L97.3779 194.123L102.725 188.901L109.717 185.421L117.12 182.81L123.7 179.764L131.515 177.154L139.33 172.368L145.088 167.582L143.442 174.108L149.2 171.062H155.37L160.717 169.757H166.886L175.112 167.582L170.588 171.062H175.112L168.12 175.413V178.459L172.233 177.154L165.241 182.81L158.249 185.421L155.37 187.161V188.901L152.08 190.642L149.2 194.123L145.088 196.733H152.08L158.249 194.123H160.717L163.596 190.642L170.588 188.901L166.886 194.123V199.779L172.233 198.039L177.991 195.428L183.749 194.123H191.152H195.265L193.62 199.779H200.201L205.547 198.039C207.192 198.619 210.73 199.779 211.717 199.779C212.704 199.779 214.87 201.809 215.83 202.825L217.886 205L208.015 207.611L200.201 210.656L193.62 218.488L203.08 221.099L191.152 222.404L185.805 225.015L183.749 227.625H187.862L191.152 230.236L185.805 229.377L182.104 232.412C180.733 233.137 177.991 235.022 177.991 236.763C177.991 238.503 174.975 240.388 173.467 241.114C174.838 240.969 176.181 241.027 170.588 242.419C164.994 243.811 163.596 242.999 163.596 242.419H155.37L147.967 241.114L142.62 238.938H138.096C135.044 242.676 130.692 246.77 130.281 248.51C129.87 250.251 132.749 250.251 132.749 250.251H145.088L155.37 252.426L163.596 255.472L159.483 259.823C157.932 260.76 155.619 262.101 153.968 262.922C155.4 263.245 157.205 264.308 158.249 265.044L166.063 267.655L172.233 270.265L180.047 273.746L185.805 279.837C188.684 281.433 193.784 284.537 191.152 284.188C188.52 283.84 185.12 284.043 183.749 284.188L189.507 292.891L192.386 303.768L193.62 312.905V321.607L192.386 331.614L191.152 338.141H183.749L187.862 347.278H182.104L183.749 360.331C183.749 360.331 176.346 354.675 176.346 361.636C176.346 368.598 175.523 369.033 176.346 374.254C177.168 379.476 180.047 384.262 180.047 384.262C178.676 385.277 175.441 386.698 173.467 384.262C171.492 381.825 169.354 378.895 168.531 377.735L169.765 386.002L173.467 390.788L180.047 397.75L173.467 400.36L148.378 405.582C148.652 404.276 149.365 401.405 150.023 400.36C150.681 399.316 149.2 392.674 148.378 389.483L142.62 377.735L138.096 371.644L134.394 368.598L139.741 359.026L134.394 356.85L128.225 349.454L125.346 342.927L136.45 345.103L145.088 340.752L150.023 334.66L152.902 327.263L153.725 320.737L146.321 312.905L156.604 314.646L158.249 310.295V303.768L155.37 297.677L150.023 290.28L143.854 284.188L136.45 278.532L126.991 273.746L119.588 272.006H112.184L110.95 273.746V278.532L112.184 286.364L108.071 279.837L106.426 273.746H101.079L96.9666 275.922H93.265L91.2085 278.532V284.188L93.265 290.28L94.9101 295.501L98.6117 302.028L91.2085 300.722L83.8053 298.982L80.1037 295.501L78.4585 290.28L74.7569 291.585L72.2892 295.501Z" fill="url(#paint0_linear_342_472)"/>
<path d="M72.2892 295.501C64.6443 293.715 60.7439 291.789 54.6037 286.364C56.3705 282.286 54.6037 279.837 59.1279 275.922C63.6521 272.006 60.3617 272.006 60.3617 272.006L58.7166 261.563L52.5472 259.823L51.3134 261.563L54.6037 268.09L46.7892 281.143C41.81 277.575 36.0956 278.532 34.0392 272.006C31.9827 265.479 51.3134 238.938 51.3134 238.938L72.2892 233.717L69.4101 225.015L73.9343 221.099L69.4101 214.572L84.2166 198.039H87.5069V194.123L95.7327 185.421L97.3779 194.123L102.725 188.901L109.717 185.421L117.12 182.81L123.7 179.764L131.515 177.154L139.33 172.368L145.088 167.582L143.442 174.108L149.2 171.062H155.37L160.717 169.757H166.886L175.112 167.582L170.588 171.062H175.112L168.12 175.413V178.459L172.233 177.154L165.241 182.81L158.249 185.421L155.37 187.161V188.901L152.08 190.642L149.2 194.123L145.088 196.733H152.08L158.249 194.123H160.717L163.596 190.642L170.588 188.901L166.886 194.123V199.779L172.233 198.039L177.991 195.428L183.749 194.123H191.152H195.265L193.62 199.779H200.201L205.547 198.039C207.192 198.619 210.73 199.779 211.717 199.779C212.704 199.779 214.87 201.809 215.83 202.825L217.886 205L208.015 207.611L200.201 210.656L193.62 218.488L203.08 221.099L191.152 222.404L185.805 225.015L183.749 227.625H187.862L191.152 230.236L185.805 229.377L182.104 232.412C180.733 233.137 177.991 235.022 177.991 236.763C177.991 238.503 174.975 240.388 173.467 241.114C174.838 240.969 176.181 241.027 170.588 242.419C164.994 243.811 163.596 242.999 163.596 242.419H155.37L147.967 241.114L142.62 238.938H138.096C135.044 242.676 130.692 246.77 130.281 248.51C129.87 250.251 132.749 250.251 132.749 250.251H145.088L155.37 252.426L163.596 255.472L159.483 259.823C156.604 261.563 151.092 264.696 152.08 263.304C153.067 261.911 156.604 263.884 158.249 265.044L166.063 267.655L172.233 270.265L180.047 273.746L185.805 279.837C188.684 281.433 193.784 284.537 191.152 284.188C188.52 283.84 185.12 284.043 183.749 284.188L189.507 292.891L192.386 303.768L193.62 312.905V321.607L192.386 331.614L191.152 338.141H183.749L187.862 347.278H182.104L183.749 360.331C183.749 360.331 176.346 354.675 176.346 361.636C176.346 368.598 175.523 369.033 176.346 374.254C177.168 379.476 180.047 384.262 180.047 384.262C178.676 385.277 175.441 386.698 173.467 384.262C171.492 381.825 169.354 378.895 168.531 377.735L169.765 386.002L173.467 390.788L180.047 397.75L173.467 400.36L148.378 405.582C148.652 404.276 149.365 401.405 150.023 400.36C150.681 399.316 149.2 392.674 148.378 389.483L142.62 377.735L138.096 371.644L134.394 368.598L139.741 359.026L134.394 356.85L128.225 349.454L125.346 342.927L136.45 345.103L145.088 340.752L150.023 334.66L152.902 327.263L153.725 320.737L146.321 312.905L156.604 314.646L158.249 310.295V303.768L155.37 297.677L150.023 290.28L143.854 284.188L136.45 278.532L126.991 273.746L119.588 272.006H112.184L110.95 273.746V278.532L112.184 286.364L108.071 279.837L106.426 273.746H101.079L96.9666 275.922H93.265L91.2085 278.532V284.188L93.265 290.28L94.9101 295.501L98.6117 302.028L91.2085 300.722L83.8053 298.982L80.1037 295.501L78.4585 290.28L74.7569 291.585L72.2892 295.501Z" stroke="#8A7839" stroke-width="5"/>
<path d="M88.2834 178.899C87.0519 177.312 84.3428 173.963 83.3576 173.27C82.1262 172.404 78.0214 169.373 76.3794 169.373C75.0659 169.373 70.3591 166.197 68.1698 164.61L64.886 156.382L72.2746 160.279V149.887L74.327 143.825L81.3052 138.195L91.9777 129.968V143.825L94.4406 149.887C95.5352 153.351 97.7244 159.5 97.7244 156.382C99.6947 147.722 102.103 140.649 103.061 138.195L108.807 129.968L116.607 121.74L126.048 115.245L135.899 108.317L145.751 101.821L157.655 95.7591L168.327 89.6968L175.716 82.3354L180.641 71.0769L182.694 82.3354L180.641 89.6968L174.895 100.522L172.021 104.42C174.621 102.976 180.97 99.6563 185.567 97.9242C190.165 96.1921 195.692 90.5629 197.882 87.9647L212.659 76.2731L216.353 69.3448L222.51 66.3136L240.572 64.5815H261.096L276.694 69.3448L291.882 73.242C299.407 73.5307 300.502 78.4382 307.48 76.2731C301.897 78.0052 293.113 81.0364 289.419 82.3354H276.694H261.096L245.497 85.7996L232.772 89.6968C229.762 90.2742 223.496 91.6887 222.51 92.728C221.525 93.7672 219.637 95.1818 218.816 95.7591L229.078 97.9242L218.816 104.42L209.786 113.946L221.279 111.348V115.245L227.847 116.544L236.056 113.946L237.288 110.049L232.362 107.018L240.572 101.821L248.781 97.9242H256.17L266.842 100.522H276.694L290.65 96.6252L276.694 104.42H295.165L307.48 107.018H318.973H334.161C336.131 107.018 345.381 105.286 349.759 104.42L364.537 96.6252L371.104 92.728L374.799 87.9647L378.903 82.3354L383.008 76.2731L384.65 69.3448L388.755 82.3354V95.7591L383.008 111.348L374.799 122.606L369.052 128.236C366.452 130.545 361.581 134.991 362.895 134.298C364.208 133.605 370.283 131.989 373.157 131.267H383.008L388.755 134.298L380.956 136.896L371.104 142.092L362.895 149.021L371.104 153.351L362.895 155.949C361.8 156.96 358.872 159.327 355.917 160.712C352.961 162.098 350.58 164.465 349.759 165.476L342.781 168.507L334.161 170.672L325.541 172.404L310.353 170.672L300.091 168.507L289.419 162.877L279.567 157.681L268.895 155.949H261.096L256.17 157.681L272.179 160.712L284.082 168.507L276.694 172.404L272.179 180.631L286.956 176.734H300.091L310.353 180.631L321.436 182.797H334.161L342.371 178.033L353.454 172.404C356.053 171.105 361.581 168.507 362.895 168.507C364.208 168.507 369.736 167.641 372.336 167.208L364.537 176.734L360.021 182.797C359.064 184.24 357.723 187.127 360.021 187.127C362.32 187.127 365.905 185.683 367.41 184.962H376.851L385.471 188.426L399.427 195.354L410.921 204.881L423.646 217.005L432.676 229.996L439.244 246.884L440.886 253.812L430.214 243.42C427.477 239.811 421.593 232.507 419.951 232.161C418.31 231.815 413.247 225.377 410.921 222.201C406.459 220.012 398.85 216.213 396.149 214.655C397.527 216.56 398.857 221.913 399.427 224.8L388.755 219.603H380.956L369.873 220.902L360.021 222.201L345.244 224.8C347.16 227.253 351.483 232.161 353.454 232.161C355.424 232.161 360.569 235.625 362.895 237.357L355.917 241.687L342.371 243.42L325.541 239.089L310.353 229.996L295.165 220.902H292.703L297.218 226.965H292.703L300.091 234.759L289.419 237.357L297.218 251.214L309.122 267.669L317.742 275.896L327.183 279.793H338.266H347.296C349.267 279.793 352.222 277.195 353.454 275.896C353.043 278.783 351.73 284.643 349.759 284.99C347.789 285.336 342.371 287.443 339.908 288.454L330.877 290.619H321.436L330.877 295.815L321.436 297.547L317.742 295.815L321.436 304.909L327.183 309.672L329.235 318.332C330.877 320.209 334.161 324.221 334.161 325.261C334.161 326.3 339.634 329.158 342.371 330.457L347.296 332.622L353.454 335.653C355.917 335.076 360.35 334.268 358.379 335.653C356.409 337.039 350.17 339.406 347.296 340.416L338.266 342.582L327.183 340.416L321.436 337.818L310.353 332.622L302.554 323.529L295.165 318.332L289.419 316.167L278.746 314.435L280.388 320.497H274.231L267.663 314.435L263.969 307.074V297.547H260.685V290.619L255.759 282.825L250.013 275.896H246.729L250.423 286.289V297.547L252.886 309.672L257.401 320.497L263.969 327.859H252.886C250.149 327.57 244.43 326.646 243.445 325.261C242.46 323.875 237.288 320.064 234.825 318.332L228.668 309.672L222.921 297.547L221.279 292.784L217.174 301.011L215.122 290.619L208.965 282.825L203.218 275.896L196.65 269.834L187.209 264.638L180.641 261.606L175.305 259.008L180.641 255.544L187.209 251.214H194.598L192.956 246.884L197.882 239.955L203.218 234.759L208.965 229.996H215.122L208.965 224.8L221.279 222.201H230.31L237.288 224.8L245.087 229.996L240.572 220.902C241.256 219.603 241.557 217.005 237.288 217.005C233.019 217.005 230.857 214.984 230.31 213.974L240.572 210.943L245.908 212.675L255.759 217.005C255.349 214.551 254.2 209.297 252.886 207.912C251.572 206.526 246.045 204.159 243.445 203.149L250.013 199.251L240.572 191.89L230.31 188.426C227.847 187.271 222.593 184.962 221.279 184.962H217.174L228.668 176.734L234.825 174.136L222.921 172.404L215.122 170.672L206.912 174.136L203.218 176.734L201.165 174.136H192.956L187.209 176.734L188.441 168.074C192.956 164.321 201.576 156.902 199.934 157.248C198.292 157.595 191.588 157.681 188.441 157.681L194.598 149.021L184.746 147.289L180.641 149.021L172.021 153.351C173.526 150.753 175.634 145.903 172.021 147.289C168.409 148.674 162.307 151.908 159.707 153.351C160.528 151.475 161.924 147.375 160.938 145.99C159.953 144.604 164.906 134.731 167.506 129.968L156.013 138.195C155.055 139.783 152.729 143.565 151.087 145.99C149.034 149.021 147.393 153.351 145.751 153.351C144.437 153.351 139.73 156.238 137.541 157.681L126.048 162.877L116.607 166.342L106.345 170.672L108.807 157.681C107.029 158.547 102.322 161.492 97.7244 166.342C93.127 171.192 89.1043 177.023 88.2834 178.899Z" fill="url(#paint1_linear_342_472)"/>
<path d="M88.2834 178.899C87.0519 177.312 84.3428 173.963 83.3576 173.27C82.1262 172.404 78.0214 169.373 76.3794 169.373C75.0659 169.373 70.3591 166.197 68.1698 164.61L64.886 156.382L72.2746 160.279V149.887L74.327 143.825L81.3052 138.195L91.9777 129.968V143.825L94.4406 149.887C95.5352 153.351 97.7244 159.5 97.7244 156.382C99.6947 147.722 102.103 140.649 103.061 138.195L108.807 129.968L116.607 121.74L126.048 115.245L135.899 108.317L145.751 101.821L157.655 95.7591L168.327 89.6968L175.716 82.3354L180.641 71.0769L182.694 82.3354L180.641 89.6968L174.895 100.522L172.021 104.42C174.621 102.976 180.97 99.6563 185.567 97.9242C190.165 96.1921 195.692 90.5629 197.882 87.9647L212.659 76.2731L216.353 69.3448L222.51 66.3136L240.572 64.5815H261.096L276.694 69.3448L291.882 73.242C299.407 73.5307 300.502 78.4382 307.48 76.2731C301.897 78.0052 293.113 81.0364 289.419 82.3354H276.694H261.096L245.497 85.7996L232.772 89.6968C229.762 90.2742 223.496 91.6887 222.51 92.728C221.525 93.7672 219.637 95.1818 218.816 95.7591L229.078 97.9242L218.816 104.42L209.786 113.946L221.279 111.348V115.245L227.847 116.544L236.056 113.946L237.288 110.049L232.362 107.018L240.572 101.821L248.781 97.9242H256.17L266.842 100.522H276.694L290.65 96.6252L276.694 104.42H295.165L307.48 107.018H318.973C323.215 107.018 332.191 107.018 334.161 107.018C336.131 107.018 345.381 105.286 349.759 104.42L364.537 96.6252L371.104 92.728L374.799 87.9647L378.903 82.3354L383.008 76.2731L384.65 69.3448L388.755 82.3354V95.7591L383.008 111.348L374.799 122.606L369.052 128.236C366.452 130.545 361.581 134.991 362.895 134.298C364.208 133.605 370.283 131.989 373.157 131.267H383.008L388.755 134.298L380.956 136.896L371.104 142.092L362.895 149.021L371.104 153.351L362.895 155.949C361.8 156.96 358.872 159.327 355.917 160.712C352.961 162.098 350.58 164.465 349.759 165.476L342.781 168.507L334.161 170.672L325.541 172.404L310.353 170.672L300.091 168.507L289.419 162.877L279.567 157.681L268.895 155.949H261.096L256.17 157.681L272.179 160.712L284.082 168.507L276.694 172.404L272.179 180.631L286.956 176.734H300.091L310.353 180.631L321.436 182.797H334.161L342.371 178.033L353.454 172.404C356.053 171.105 361.581 168.507 362.895 168.507C364.208 168.507 369.736 167.641 372.336 167.208L364.537 176.734L360.021 182.797C359.064 184.24 357.723 187.127 360.021 187.127C362.32 187.127 365.905 185.683 367.41 184.962H376.851L385.471 188.426L399.427 195.354L410.921 204.881L423.646 217.005L432.676 229.996L439.244 246.884L440.886 253.812L430.214 243.42C427.477 239.811 421.593 232.507 419.951 232.161C418.31 231.815 413.247 225.377 410.921 222.201C405.037 219.315 393.681 213.628 395.323 213.974C396.965 214.32 398.743 221.335 399.427 224.8L388.755 219.603H380.956L369.873 220.902L360.021 222.201L345.244 224.8C347.16 227.253 351.483 232.161 353.454 232.161C355.424 232.161 360.569 235.625 362.895 237.357L355.917 241.687L342.371 243.42L325.541 239.089L310.353 229.996L295.165 220.902H292.703L297.218 226.965H292.703L300.091 234.759L289.419 237.357L297.218 251.214L309.122 267.669L317.742 275.896L327.183 279.793H338.266C340.455 279.793 345.326 279.793 347.296 279.793C349.267 279.793 352.222 277.195 353.454 275.896C353.043 278.783 351.73 284.643 349.759 284.99C347.789 285.336 342.371 287.443 339.908 288.454L330.877 290.619H321.436L330.877 295.815L321.436 297.547L317.742 295.815L321.436 304.909L327.183 309.672L329.235 318.332C330.877 320.209 334.161 324.221 334.161 325.261C334.161 326.3 339.634 329.158 342.371 330.457L347.296 332.622L353.454 335.653C355.917 335.076 360.35 334.268 358.379 335.653C356.409 337.039 350.17 339.406 347.296 340.416L338.266 342.582L327.183 340.416L321.436 337.818L310.353 332.622L302.554 323.529L295.165 318.332L289.419 316.167L278.746 314.435L280.388 320.497H274.231L267.663 314.435L263.969 307.074V297.547H260.685V290.619L255.759 282.825L250.013 275.896H246.729L250.423 286.289V297.547L252.886 309.672L257.401 320.497L263.969 327.859H252.886C250.149 327.57 244.43 326.646 243.445 325.261C242.46 323.875 237.288 320.064 234.825 318.332L228.668 309.672L222.921 297.547L221.279 292.784L217.174 301.011L215.122 290.619L208.965 282.825L203.218 275.896L196.65 269.834L187.209 264.638L180.641 261.606L175.305 259.008L180.641 255.544L187.209 251.214H194.598L192.956 246.884L197.882 239.955L203.218 234.759L208.965 229.996H215.122L208.965 224.8L221.279 222.201H230.31L237.288 224.8L245.087 229.996L240.572 220.902C241.256 219.603 241.557 217.005 237.288 217.005C233.019 217.005 230.857 214.984 230.31 213.974L240.572 210.943L245.908 212.675L255.759 217.005C255.349 214.551 254.2 209.297 252.886 207.912C251.572 206.526 246.045 204.159 243.445 203.149L250.013 199.251L240.572 191.89L230.31 188.426C227.847 187.271 222.593 184.962 221.279 184.962C219.965 184.962 217.995 184.962 217.174 184.962L228.668 176.734L234.825 174.136L222.921 172.404L215.122 170.672L206.912 174.136L203.218 176.734L201.165 174.136H192.956L187.209 176.734L188.441 168.074C192.956 164.321 201.576 156.902 199.934 157.248C198.292 157.595 191.588 157.681 188.441 157.681L194.598 149.021L184.746 147.289L180.641 149.021L172.021 153.351C173.526 150.753 175.634 145.903 172.021 147.289C168.409 148.674 162.307 151.908 159.707 153.351C160.528 151.475 161.924 147.375 160.938 145.99C159.953 144.604 164.906 134.731 167.506 129.968L156.013 138.195C155.055 139.783 152.729 143.565 151.087 145.99C149.034 149.021 147.393 153.351 145.751 153.351C144.437 153.351 139.73 156.238 137.541 157.681L126.048 162.877L116.607 166.342L106.345 170.672L108.807 157.681C107.029 158.547 102.322 161.492 97.7244 166.342C93.127 171.192 89.1043 177.023 88.2834 178.899Z" stroke="#8A7839" stroke-width="2"/>
<path d="M97 220L90 231.5L100 223H107L111.5 220L126.5 200L97 220Z" fill="#D1EBD5" fill-opacity="0.94" stroke="black"/>
<defs>
<linearGradient id="paint0_linear_342_472" x1="46.386" y1="277.082" x2="161.386" y2="286.582" gradientUnits="userSpaceOnUse">
<stop stop-color="#FF0000"/>
<stop offset="1" stop-color="#5D1110"/>
</linearGradient>
<linearGradient id="paint1_linear_342_472" x1="76.886" y1="164.582" x2="395.886" y2="263.582" gradientUnits="userSpaceOnUse">
<stop stop-color="#FFF503"/>
<stop offset="0.469605" stop-color="#EC2D13"/>
<stop offset="0.654511" stop-color="#E11C1C"/>
<stop offset="1" stop-color="#090902"/>
</linearGradient>
</defs>
</svg>
