<svg width="177" height="51" viewBox="0 0 177 51" fill="none" xmlns="http://www.w3.org/2000/svg">
<path d="M63.58 23C63.7267 22.8267 63.8 22.62 63.8 22.38C63.8 22.14 63.7267 21.9267 63.58 21.74C63.4467 21.54 63.2467 21.44 62.98 21.44H61.3V23.26H62.98C63.2467 23.26 63.4467 23.1733 63.58 23ZM61.3 26.6V28.56H63.16C63.4667 28.56 63.6933 28.46 63.84 28.26C64 28.0467 64.08 27.8133 64.08 27.56V27.54C64.08 27.2867 63.9933 27.0667 63.82 26.88C63.66 26.6933 63.44 26.6 63.16 26.6H61.3ZM63.68 32H56.84C56.6933 32 56.5667 31.9467 56.46 31.84C56.3533 31.7333 56.3 31.6067 56.3 31.46V18.54C56.3 18.3933 56.3533 18.2667 56.46 18.16C56.5667 18.0533 56.6933 18 56.84 18H63.48C65.3733 18 66.7667 18.3467 67.66 19.04C68.5667 19.72 69.02 20.7533 69.02 22.14V22.2C69.02 22.7733 68.8533 23.2867 68.52 23.74C68.1867 24.18 67.82 24.5 67.42 24.7C67.9533 24.9133 68.4 25.2933 68.76 25.84C69.1333 26.3733 69.32 26.96 69.32 27.6C69.32 30.5333 67.44 32 63.68 32ZM76.9172 25.1V27.3C76.9172 27.9667 77.2039 28.3 77.7772 28.3H79.5972C79.7439 28.3 79.8705 28.3533 79.9772 28.46C80.0839 28.5667 80.1372 28.6933 80.1372 28.84V31.46C80.1372 31.6067 80.0839 31.7333 79.9772 31.84C79.8705 31.9467 79.7439 32 79.5972 32H77.3372C74.0039 32 72.3372 30.5667 72.3372 27.7V25.1H70.7572C70.6105 25.1 70.4839 25.0467 70.3772 24.94C70.2705 24.8333 70.2172 24.7067 70.2172 24.56V22.14C70.2172 21.9933 70.2705 21.8667 70.3772 21.76C70.4839 21.6533 70.6105 21.6 70.7572 21.6H72.3372V18.34C72.3372 18.1933 72.3905 18.0667 72.4972 17.96C72.6039 17.8533 72.7305 17.8 72.8772 17.8H76.3772C76.5239 17.8 76.6505 17.8533 76.7572 17.96C76.8639 18.0667 76.9172 18.1933 76.9172 18.34V21.6H79.4372C79.5839 21.6 79.7105 21.6533 79.8172 21.76C79.9239 21.8667 79.9772 21.9933 79.9772 22.14V24.56C79.9772 24.7067 79.9239 24.8333 79.8172 24.94C79.7105 25.0467 79.5839 25.1 79.4372 25.1H76.9172ZM91.9022 27.98H85.9422V28.08C85.9422 28.8933 86.2022 29.3 86.7222 29.3C86.8689 29.3 87.0489 29.1933 87.2622 28.98C87.4755 28.7667 87.7089 28.66 87.9622 28.66H91.7422C92.0355 28.66 92.1822 28.8067 92.1822 29.1C92.1822 29.7533 91.6889 30.4333 90.7022 31.14C89.7289 31.8467 88.4022 32.2 86.7222 32.2C85.0555 32.2 83.6889 31.7667 82.6222 30.9C81.5689 30.02 81.0422 28.8133 81.0422 27.28V26.32C81.0422 24.8667 81.5822 23.6867 82.6622 22.78C83.7422 21.86 85.1555 21.4 86.9022 21.4C88.6622 21.4 90.0222 21.9133 90.9822 22.94C91.9555 23.9667 92.4422 25.2667 92.4422 26.84V27.44C92.4422 27.5867 92.3889 27.7133 92.2822 27.82C92.1755 27.9267 92.0489 27.98 91.9022 27.98ZM87.5422 25.4C87.5422 24.6 87.2755 24.2 86.7422 24.2C86.2089 24.2 85.9422 24.6 85.9422 25.4V25.48H87.5422V25.4ZM98.5352 26.1V27.5C98.5352 27.9533 98.5952 28.28 98.7152 28.48C98.8352 28.68 99.0218 28.78 99.2752 28.78C99.5285 28.78 99.7018 28.74 99.7952 28.66C99.8885 28.5667 99.9818 28.4 100.075 28.16C100.182 27.9067 100.375 27.78 100.655 27.78H104.555C104.702 27.78 104.828 27.8333 104.935 27.94C105.042 28.0467 105.095 28.1867 105.095 28.36C105.095 28.5333 105.035 28.7667 104.915 29.06C104.795 29.3533 104.588 29.6867 104.295 30.06C104.002 30.4333 103.642 30.78 103.215 31.1C102.788 31.4067 102.228 31.6667 101.535 31.88C100.842 32.0933 100.075 32.2 99.2352 32.2C97.5685 32.2 96.2152 31.7667 95.1752 30.9C94.1485 30.02 93.6352 28.8067 93.6352 27.26V26.34C93.6352 24.7933 94.1485 23.5867 95.1752 22.72C96.2152 21.84 97.5685 21.4 99.2352 21.4C100.222 21.4 101.115 21.5533 101.915 21.86C102.715 22.1533 103.328 22.52 103.755 22.96C104.195 23.3867 104.528 23.8067 104.755 24.22C104.982 24.6333 105.095 24.9533 105.095 25.18C105.095 25.3933 105.042 25.5533 104.935 25.66C104.828 25.7667 104.702 25.82 104.555 25.82H100.655C100.402 25.82 100.208 25.6867 100.075 25.42C99.8885 25.02 99.6418 24.82 99.3352 24.82C98.8018 24.82 98.5352 25.2467 98.5352 26.1ZM111.469 26.08V31.46C111.469 31.6067 111.416 31.7333 111.309 31.84C111.202 31.9467 111.076 32 110.929 32H107.029C106.882 32 106.756 31.9467 106.649 31.84C106.542 31.7333 106.489 31.6067 106.489 31.46V18.34C106.489 18.1933 106.542 18.0667 106.649 17.96C106.756 17.8533 106.882 17.8 107.029 17.8H110.929C111.076 17.8 111.202 17.8533 111.309 17.96C111.416 18.0667 111.469 18.1933 111.469 18.34V22.64C112.229 21.8133 113.202 21.4 114.389 21.4C115.576 21.4 116.556 21.7867 117.329 22.56C118.102 23.3333 118.489 24.46 118.489 25.94V31.44C118.489 31.5867 118.436 31.7133 118.329 31.82C118.222 31.9267 118.096 31.98 117.949 31.98H114.029C113.882 31.98 113.756 31.9267 113.649 31.82C113.542 31.7133 113.489 31.5867 113.489 31.44V26.08C113.489 25.3467 113.149 24.98 112.469 24.98C111.802 24.98 111.469 25.3467 111.469 26.08ZM125.295 28.1H131.455C131.602 28.1 131.729 28.1533 131.835 28.26C131.942 28.3667 131.995 28.4933 131.995 28.64V31.46C131.995 31.6067 131.942 31.7333 131.835 31.84C131.729 31.9467 131.602 32 131.455 32H121.035C120.889 32 120.762 31.9467 120.655 31.84C120.549 31.7333 120.495 31.6067 120.495 31.46V18.54C120.495 18.3933 120.549 18.2667 120.655 18.16C120.762 18.0533 120.889 18 121.035 18H131.295C131.442 18 131.569 18.0533 131.675 18.16C131.782 18.2667 131.835 18.3933 131.835 18.54V21.36C131.835 21.5067 131.782 21.6333 131.675 21.74C131.569 21.8467 131.442 21.9 131.295 21.9H125.295V23.16H130.855C131.002 23.16 131.129 23.2133 131.235 23.32C131.342 23.4267 131.395 23.5533 131.395 23.7V26.3C131.395 26.4467 131.342 26.5733 131.235 26.68C131.129 26.7867 131.002 26.84 130.855 26.84H125.295V28.1ZM138.282 22.14V22.84C139.215 22.0133 140.255 21.6 141.402 21.6H142.362C142.508 21.6 142.635 21.6533 142.742 21.76C142.848 21.8667 142.902 21.9933 142.902 22.14V25.26C142.902 25.4067 142.848 25.5333 142.742 25.64C142.635 25.7467 142.508 25.8 142.362 25.8H139.782C139.422 25.8 139.135 25.8867 138.922 26.06C138.722 26.22 138.608 26.44 138.582 26.72V31.46C138.582 31.6067 138.528 31.7333 138.422 31.84C138.315 31.9467 138.188 32 138.042 32H134.242C134.095 32 133.968 31.9467 133.862 31.84C133.755 31.7333 133.702 31.6067 133.702 31.46V22.14C133.702 21.9933 133.755 21.8667 133.862 21.76C133.968 21.6533 134.095 21.6 134.242 21.6H137.742C137.888 21.6 138.015 21.6533 138.122 21.76C138.228 21.8667 138.282 21.9933 138.282 22.14ZM148.687 22.14V22.84C149.62 22.0133 150.66 21.6 151.807 21.6H152.767C152.914 21.6 153.04 21.6533 153.147 21.76C153.254 21.8667 153.307 21.9933 153.307 22.14V25.26C153.307 25.4067 153.254 25.5333 153.147 25.64C153.04 25.7467 152.914 25.8 152.767 25.8H150.187C149.827 25.8 149.54 25.8867 149.327 26.06C149.127 26.22 149.014 26.44 148.987 26.72V31.46C148.987 31.6067 148.934 31.7333 148.827 31.84C148.72 31.9467 148.594 32 148.447 32H144.647C144.5 32 144.374 31.9467 144.267 31.84C144.16 31.7333 144.107 31.6067 144.107 31.46V22.14C144.107 21.9933 144.16 21.8667 144.267 21.76C144.374 21.6533 144.5 21.6 144.647 21.6H148.147C148.294 21.6 148.42 21.6533 148.527 21.76C148.634 21.8667 148.687 21.9933 148.687 22.14ZM154.413 27.48V26.12C154.413 24.6 154.953 23.4333 156.033 22.62C157.113 21.8067 158.506 21.4 160.213 21.4C161.919 21.4 163.313 21.8067 164.393 22.62C165.473 23.4333 166.013 24.6 166.013 26.12V27.48C166.013 29.0133 165.493 30.1867 164.453 31C163.413 31.8 161.999 32.2 160.213 32.2C158.426 32.2 157.013 31.8 155.973 31C154.933 30.1867 154.413 29.0133 154.413 27.48ZM161.113 27.64V25.96C161.113 25.4533 161.046 25.1 160.913 24.9C160.779 24.7 160.546 24.6 160.213 24.6C159.879 24.6 159.646 24.7 159.513 24.9C159.379 25.1 159.313 25.4533 159.313 25.96V27.64C159.313 28.1733 159.379 28.5333 159.513 28.72C159.646 28.9067 159.879 29 160.213 29C160.546 29 160.779 28.9 160.913 28.7C161.046 28.5 161.113 28.1467 161.113 27.64ZM171.9 22.14V22.84C172.834 22.0133 173.874 21.6 175.02 21.6H175.98C176.127 21.6 176.254 21.6533 176.36 21.76C176.467 21.8667 176.52 21.9933 176.52 22.14V25.26C176.52 25.4067 176.467 25.5333 176.36 25.64C176.254 25.7467 176.127 25.8 175.98 25.8H173.4C173.04 25.8 172.754 25.8867 172.54 26.06C172.34 26.22 172.227 26.44 172.2 26.72V31.46C172.2 31.6067 172.147 31.7333 172.04 31.84C171.934 31.9467 171.807 32 171.66 32H167.86C167.714 32 167.587 31.9467 167.48 31.84C167.374 31.7333 167.32 31.6067 167.32 31.46V22.14C167.32 21.9933 167.374 21.8667 167.48 21.76C167.587 21.6533 167.714 21.6 167.86 21.6H171.36C171.507 21.6 171.634 21.6533 171.74 21.76C171.847 21.8667 171.9 21.9933 171.9 22.14Z" fill="black"/>
<path d="M7.60443 33.1889C6.72749 32.9842 6.28008 32.7634 5.57574 32.1414C5.7784 31.6739 5.57574 31.3932 6.09471 30.9444C6.61367 30.4954 6.23623 30.4954 6.23623 30.4954L6.04752 29.2982L5.33984 29.0987L5.19831 29.2982L5.57574 30.0465L4.67934 31.5429C4.10818 31.1339 3.45268 31.2436 3.21679 30.4954C2.98089 29.7471 5.19831 26.7044 5.19831 26.7044L7.60443 26.1059L7.27417 25.1083L7.79314 24.6593L7.27417 23.9111L8.97262 22.0157H9.35005V21.5668L10.2936 20.5691L10.4823 21.5668L11.0957 20.9681L11.8978 20.5691L12.747 20.2698L13.5017 19.9206L14.3982 19.6214L15.2947 19.0727L15.9552 18.524L15.7663 19.2722L16.4268 18.923H17.1346L17.748 18.7734H18.4556L19.3992 18.524L18.8803 18.923H19.3992L18.5971 19.4218V19.771L19.069 19.6214L18.2669 20.2698L17.4648 20.5691L17.1346 20.7686V20.9681L16.7572 21.1677L16.4268 21.5668L15.9552 21.866H16.7572L17.4648 21.5668H17.748L18.0782 21.1677L18.8803 20.9681L18.4556 21.5668V22.2152L19.069 22.0157L19.7294 21.7164L20.3899 21.5668H21.2391H21.7109L21.5222 22.2152H22.2772L22.8904 22.0157C23.0791 22.0822 23.4849 22.2152 23.5981 22.2152C23.7114 22.2152 23.9598 22.4479 24.0699 22.5644L24.3058 22.8137L23.1735 23.113L22.2772 23.4621L21.5222 24.36L22.6074 24.6593L21.2391 24.8089L20.6258 25.1083L20.3899 25.4075H20.8617L21.2391 25.7068L20.6258 25.6083L20.2013 25.9563C20.044 26.0394 19.7294 26.2555 19.7294 26.4551C19.7294 26.6546 19.3835 26.8707 19.2105 26.9539C19.3678 26.9373 19.5218 26.9439 18.8803 27.1035C18.2386 27.2631 18.0782 27.17 18.0782 27.1035H17.1346L16.2854 26.9539L15.6721 26.7044H15.1531C14.803 27.133 14.3038 27.6023 14.2567 27.8018C14.2095 28.0014 14.5398 28.0014 14.5398 28.0014H15.9552L17.1346 28.2507L18.0782 28.5999L17.6064 29.0987C17.4285 29.2062 17.1632 29.3599 16.9738 29.454C17.138 29.491 17.3451 29.6129 17.4648 29.6973L18.3612 29.9966L19.069 30.2958L19.9653 30.6949L20.6258 31.3932C20.956 31.5761 21.5411 31.932 21.2391 31.892C20.9372 31.8521 20.5472 31.8754 20.3899 31.892L21.0504 32.8897L21.3807 34.1367L21.5222 35.1842V36.1818L21.3807 37.329L21.2391 38.0773H20.3899L20.8617 39.1248H20.2013L20.3899 40.6212C20.3899 40.6212 19.5408 39.9728 19.5408 40.7708C19.5408 41.5689 19.4463 41.6188 19.5408 42.2173C19.635 42.816 19.9653 43.3647 19.9653 43.3647C19.808 43.481 19.4369 43.6439 19.2105 43.3647C18.984 43.0853 18.7387 42.7494 18.6443 42.6164L18.7858 43.5641L19.2105 44.1128L19.9653 44.911L19.2105 45.2102L16.3326 45.8088C16.364 45.6591 16.4458 45.33 16.5212 45.2102C16.5967 45.0905 16.4268 44.329 16.3326 43.9632L15.6721 42.6164L15.1531 41.9181L14.7285 41.5689L15.3418 40.4716L14.7285 40.2221L14.0208 39.3742L13.6906 38.6259L14.9643 38.8754L15.9552 38.3766L16.5212 37.6782L16.8515 36.8302L16.9459 36.082L16.0966 35.1842L17.2762 35.3838L17.4648 34.8849V34.1367L17.1346 33.4384L16.5212 32.5904L15.8136 31.892L14.9643 31.2436L13.8793 30.6949L13.0301 30.4954H12.1808L12.0392 30.6949V31.2436L12.1808 32.1414L11.709 31.3932L11.5203 30.6949H10.9069L10.4352 30.9444H10.0106L9.77466 31.2436V31.892L10.0106 32.5904L10.1993 33.1889L10.6239 33.9372L9.77466 33.7875L8.92544 33.588L8.50083 33.1889L8.31211 32.5904L7.8875 32.74L7.60443 33.1889Z" fill="url(#paint0_linear_345_389)"/>
<path d="M9.4388 19.8216C9.29754 19.6397 8.98678 19.2557 8.87376 19.1763C8.73251 19.077 8.26165 18.7295 8.07329 18.7295C7.92262 18.7295 7.3827 18.3654 7.13157 18.1835L6.75488 17.2402L7.60243 17.6869V16.4956L7.83786 15.8006L8.63833 15.1552L9.86258 14.212V15.8006L10.1451 16.4956C10.2707 16.8927 10.5218 17.5976 10.5218 17.2402C10.7478 16.2474 11.0241 15.4365 11.1339 15.1552L11.7931 14.212L12.6878 13.2687L13.7708 12.5241L14.9008 11.7299L16.0309 10.9852L17.3964 10.2902L18.6206 9.59522L19.4682 8.75129L20.0332 7.46059L20.2687 8.75129L20.0332 9.59522L19.374 10.8363L19.0444 11.2831C19.3426 11.1176 20.0709 10.737 20.5982 10.5384C21.1257 10.3399 21.7597 9.69452 22.0109 9.39665L23.706 8.0563L24.1297 7.26202L24.836 6.91451L26.9079 6.71594H29.2622L31.0514 7.26202L32.7936 7.7088C33.6568 7.7419 33.7825 8.30451 34.5829 8.0563C33.9425 8.25487 32.9349 8.60237 32.5111 8.75129H31.0514H29.2622L27.4728 9.14844L26.0131 9.59522C25.6678 9.66142 24.9491 9.82358 24.836 9.94273C24.723 10.0619 24.5064 10.224 24.4122 10.2902L25.5894 10.5384L24.4122 11.2831L23.3764 12.3752L24.6948 12.0774V12.5241L25.4482 12.6731L26.3898 12.3752L26.5312 11.9285L25.9661 11.581L26.9079 10.9852L27.8495 10.5384H28.6971L29.9213 10.8363H31.0514L32.6523 10.3895L31.0514 11.2831H33.1702L34.5829 11.581H35.9013H37.6435C37.8695 11.581 38.9305 11.3824 39.4327 11.2831L41.1279 10.3895L41.8812 9.94273L42.3051 9.39665L42.7759 8.75129L43.2467 8.0563L43.4351 7.26202L43.906 8.75129V10.2902L43.2467 12.0774L42.3051 13.368L41.6458 14.0135C41.3476 14.2782 40.7888 14.7879 40.9396 14.7084C41.0902 14.629 41.787 14.4437 42.1167 14.3609H43.2467L43.906 14.7084L43.0113 15.0063L41.8812 15.6019L40.9396 16.3963L41.8812 16.8927L40.9396 17.1905C40.814 17.3064 40.4781 17.5778 40.1391 17.7366C39.8 17.8955 39.5269 18.1668 39.4327 18.2827L38.6323 18.6302L37.6435 18.8784L36.6547 19.077L34.9125 18.8784L33.7353 18.6302L32.5111 17.9848L31.381 17.3891L30.1568 17.1905H29.2622L28.6971 17.3891L30.5335 17.7366L31.8989 18.6302L31.0514 19.077L30.5335 20.0201L32.2286 19.5734H33.7353L34.9125 20.0201L36.1838 20.2685H37.6435L38.5853 19.7223L39.8566 19.077C40.1547 18.9281 40.7888 18.6302 40.9396 18.6302C41.0902 18.6302 41.7243 18.5309 42.0225 18.4813L41.1279 19.5734L40.6099 20.2685C40.5001 20.4339 40.3463 20.7649 40.6099 20.7649C40.8736 20.7649 41.2848 20.5993 41.4575 20.5167H42.5405L43.5293 20.9138L45.1302 21.708L46.4486 22.8002L47.9083 24.1902L48.9442 25.6795L49.6976 27.6156L49.8859 28.4098L48.6617 27.2184C48.3478 26.8047 47.6728 25.9673 47.4845 25.9277C47.2962 25.888 46.7155 25.1499 46.4486 24.7858C45.9368 24.5349 45.064 24.0994 44.7541 23.9207C44.9122 24.1391 45.0648 24.7528 45.1302 25.0838L43.906 24.488H43.0113L41.74 24.6369L40.6099 24.7858L38.9148 25.0838C39.1346 25.365 39.6305 25.9277 39.8566 25.9277C40.0826 25.9277 40.6727 26.3248 40.9396 26.5234L40.1391 27.0198L38.5853 27.2184L36.6547 26.7219L34.9125 25.6795L33.1702 24.6369H32.8878L33.4057 25.332H32.8878L33.7353 26.2255L32.5111 26.5234L33.4057 28.112L34.7713 29.9984L35.7601 30.9416L36.843 31.3883H38.1144H39.1502C39.3763 31.3883 39.7153 31.0905 39.8566 30.9416C39.8094 31.2725 39.6588 31.9443 39.4327 31.9841C39.2068 32.0238 38.5853 32.2653 38.3027 32.3813L37.2668 32.6295H36.1838L37.2668 33.2251L36.1838 33.4237L35.7601 33.2251L36.1838 34.2677L36.843 34.8137L37.0784 35.8065C37.2668 36.0217 37.6435 36.4817 37.6435 36.6009C37.6435 36.72 38.2713 37.0477 38.5853 37.1966L39.1502 37.4448L39.8566 37.7923C40.1391 37.7261 40.6476 37.6335 40.4215 37.7923C40.1956 37.9512 39.4799 38.2225 39.1502 38.3383L38.1144 38.5866L36.843 38.3383L36.1838 38.0405L34.9125 37.4448L34.0178 36.4023L33.1702 35.8065L32.5111 35.5583L31.2868 35.3598L31.4752 36.0547H30.7689L30.0155 35.3598L29.5917 34.5159V33.4237H29.215V32.6295L28.65 31.7359L27.9908 30.9416H27.6141L28.0379 32.1331V33.4237L28.3204 34.8137L28.8383 36.0547L29.5917 36.8987H28.3204C28.0064 36.8656 27.3504 36.7597 27.2374 36.6009C27.1244 36.442 26.5312 36.0051 26.2486 35.8065L25.5424 34.8137L24.8831 33.4237L24.6948 32.8777L24.2239 33.8208L23.9885 32.6295L23.2822 31.7359L22.623 30.9416L21.8696 30.2466L20.7866 29.6509L20.0332 29.3033L19.4211 29.0055L20.0332 28.6084L20.7866 28.112H21.6342L21.4458 27.6156L22.0109 26.8212L22.623 26.2255L23.2822 25.6795H23.9885L23.2822 25.0838L24.6948 24.7858H25.7307L26.5312 25.0838L27.4258 25.6795L26.9079 24.6369C26.9863 24.488 27.0209 24.1902 26.5312 24.1902C26.0415 24.1902 25.7935 23.9585 25.7307 23.8427L26.9079 23.4952L27.52 23.6938L28.65 24.1902C28.6029 23.9088 28.4711 23.3065 28.3204 23.1477C28.1697 22.9888 27.5357 22.7175 27.2374 22.6017L27.9908 22.1548L26.9079 21.3109L25.7307 20.9138C25.4482 20.7814 24.8455 20.5167 24.6948 20.5167H24.2239L25.5424 19.5734L26.2486 19.2755L24.8831 19.077L23.9885 18.8784L23.0467 19.2755L22.623 19.5734L22.3875 19.2755H21.4458L20.7866 19.5734L20.9279 18.5806C21.4458 18.1503 22.4346 17.2998 22.2463 17.3395C22.0579 17.3792 21.2889 17.3891 20.9279 17.3891L21.6342 16.3963L20.5041 16.1977L20.0332 16.3963L19.0444 16.8927C19.217 16.5949 19.4588 16.0388 19.0444 16.1977C18.63 16.3565 17.9301 16.7273 17.6318 16.8927C17.726 16.6776 17.8861 16.2076 17.773 16.0488C17.66 15.8899 18.2282 14.7581 18.5264 14.212L17.2081 15.1552C17.0982 15.3372 16.8314 15.7708 16.643 16.0488C16.4075 16.3963 16.2193 16.8927 16.0309 16.8927C15.8802 16.8927 15.3403 17.2237 15.0892 17.3891L13.7708 17.9848L12.6878 18.382L11.5107 18.8784L11.7931 17.3891C11.5891 17.4884 11.0492 17.826 10.5218 18.382C9.99441 18.938 9.53297 19.6065 9.4388 19.8216Z" fill="url(#paint1_linear_345_389)"/>
<path d="M10.4387 24.5334L9.63574 25.8517L10.7828 24.8773H11.5858L12.102 24.5334L13.8227 22.2405L10.4387 24.5334Z" fill="#D1EBD5" fill-opacity="0.94"/>
<defs>
<linearGradient id="paint0_linear_345_389" x1="4.63309" y1="31.0773" x2="17.8246" y2="32.1677" gradientUnits="userSpaceOnUse">
<stop stop-color="#FF0000"/>
<stop offset="1" stop-color="#5D1110"/>
</linearGradient>
<linearGradient id="paint1_linear_345_389" x1="8.13141" y1="18.1803" x2="44.7202" y2="29.5421" gradientUnits="userSpaceOnUse">
<stop stop-color="#FFF503"/>
<stop offset="0.469605" stop-color="#EC2D13"/>
<stop offset="0.654511" stop-color="#E11C1C"/>
<stop offset="1" stop-color="#090902"/>
</linearGradient>
</defs>
</svg>
