<svg width="132" height="127" viewBox="0 0 132 127" fill="none" xmlns="http://www.w3.org/2000/svg">
<path d="M88.1603 37.6399C87.7036 38.1821 87.1238 38.6071 86.4692 38.8792L84.5943 40.9905L79.2839 47.4029L75.6962 49.5731L74.0303 46.7051L81.8944 39.0449L84.0857 36.8153C84.2614 36.1282 84.5991 35.4933 85.0707 34.9637C86.2316 33.6225 87.8647 33.1346 88.7179 33.8735C89.5713 34.6125 89.3218 36.2984 88.1603 37.6399Z" fill="#FFAFAF"/>
<path d="M56.063 44.0113L59.5164 38.2642L74.2088 44.5771L82.2397 38.0156C82.2397 38.0156 85.4258 40.7602 85.5396 40.8582C85.6534 40.9562 77.4413 52.3306 76.8581 52.3172C76.275 52.3037 56.063 44.0113 56.063 44.0113Z" fill="#DEDEDE"/>
<path d="M0 124.529C0 124.701 0.137725 124.838 0.30923 124.838H131.691C131.862 124.838 132 124.701 132 124.529C132 124.358 131.862 124.22 131.691 124.22H0.30923C0.137725 124.22 0 124.358 0 124.529Z" fill="#3F3D58"/>
<path d="M89.225 0C99.6844 0 108.194 7.98464 108.194 17.7993C108.194 20.5417 107.51 23.2693 106.214 25.7165H106.23L105.886 26.3133C102.973 31.3323 101.355 37.0481 101.208 42.8424C101.164 44.6088 99.7444 45.9925 97.9774 45.9925H83.1958C81.2911 45.9925 79.6914 44.6272 79.3923 42.7462C78.6642 38.1697 77.2082 33.76 75.065 29.639C71.9639 26.3755 70.2563 22.172 70.2563 17.7994C70.2563 7.98464 78.7657 0 89.225 0ZM105.427 26.07L105.55 25.8487C106.939 23.3817 107.674 20.5983 107.674 17.7993C107.674 8.27138 99.3978 0.519689 89.225 0.519689C79.0522 0.519689 70.776 8.27138 70.776 17.7993C70.776 22.05 72.4417 26.1367 75.4664 29.3071L75.5088 29.3665C77.6873 33.5463 79.1667 38.0205 79.9054 42.6645C80.1642 44.2917 81.5482 45.4728 83.1958 45.4728H97.9774C99.4603 45.4728 100.651 44.3116 100.689 42.8292C100.837 36.955 102.476 31.1603 105.427 26.07Z" fill="#3F3D56"/>
<path d="M100.022 44.6933H80.5065C79.886 44.6933 79.3994 45.2261 79.4556 45.8441L79.6383 47.8541C79.7912 49.5362 80.322 51.1621 81.191 52.6104C81.3363 52.8526 81.6107 52.9852 81.8911 52.9514C87.674 52.2544 93.3323 52.2316 98.855 52.9413C99.1571 52.9802 99.4503 52.8258 99.5865 52.5533L99.7115 52.3032C100.337 51.052 100.723 49.6949 100.85 48.3018L101.073 45.8441C101.129 45.2261 100.643 44.6933 100.022 44.6933Z" fill="#3F3D56"/>
<path d="M82.469 51.5792H98.4494V61.9802C98.4494 63.8406 96.9391 65.3509 95.0787 65.3509H85.8397C83.9794 65.3509 82.469 63.8406 82.469 61.9802V51.5792Z" fill="#3F3D56"/>
<path d="M92.5156 68.0794H89.0524C88.6714 68.0794 88.314 67.8954 88.0925 67.5854L85.8469 64.4415H95.721L93.4754 67.5854C93.254 67.8954 92.8965 68.0794 92.5156 68.0794Z" fill="#3F3D56"/>
<path d="M95.136 9.17937C92.5934 9.70586 90.0508 10.2323 87.5082 10.7588C86.3649 10.9956 85.0844 11.1184 84.0456 11.6867C83.0385 12.2375 82.3331 13.3934 82.6934 14.5505C83.0375 15.6555 84.053 16.3487 85.1423 16.5951C86.3508 16.8685 87.6455 16.8666 88.8774 16.9617C90.1623 17.0608 91.4472 17.16 92.7321 17.2592C93.3436 17.3064 93.9583 17.339 94.5684 17.4018C94.7635 17.4219 94.9763 17.4459 95.1365 17.5697C95.1341 17.5678 95.1907 17.6032 95.1593 17.6087C95.1532 17.6097 95.1527 17.5686 95.1536 17.5658C95.1783 17.4887 95.1682 17.5617 95.1482 17.5619C95.1412 17.5619 94.9571 17.6835 94.8545 17.7027C94.5775 17.7545 94.2718 17.7168 93.9912 17.712C93.3813 17.7016 92.7711 17.7132 92.162 17.7464C90.9362 17.8132 89.7121 17.9657 88.5064 18.1966C87.3205 18.4238 86.1402 18.7263 85.0012 19.1292C83.8969 19.5199 82.7403 20.2618 82.7103 21.5708C82.6821 22.8002 83.7486 23.6642 84.8348 23.973C85.3934 24.1318 85.9822 24.1894 86.5552 24.2746C87.1945 24.3698 87.8338 24.4649 88.4731 24.56C89.7304 24.747 90.9877 24.934 92.245 25.1211C92.8843 25.2162 93.5236 25.3113 94.1629 25.4064C94.461 25.4507 94.7608 25.489 95.0579 25.5395C95.1675 25.5582 95.2708 25.5926 95.3788 25.6148C95.3063 25.5999 95.3963 25.6 95.3814 25.6169C95.4288 25.6459 95.4289 25.6415 95.3817 25.6038L95.3496 25.5566C95.2763 25.3507 95.2788 25.3235 95.4127 25.08C95.4382 25.0335 95.4902 25.0815 95.424 25.0742C95.3533 25.0664 95.4663 25.0653 95.3911 25.0964C95.3535 25.1119 95.3126 25.1225 95.2734 25.1333C94.9774 25.2152 94.6672 25.258 94.3659 25.3172C93.7395 25.4402 93.1132 25.5632 92.4868 25.6862C91.255 25.928 90.0231 26.1699 88.7913 26.4118C86.6213 26.838 84.3167 27.4145 83.0162 29.3724C82.7333 29.7984 82.528 30.2892 82.4255 30.7899C82.3411 31.2019 82.545 31.632 82.9699 31.7488C83.3554 31.8547 83.844 31.6187 83.9289 31.2043C84.3408 29.1931 86.5416 28.4708 88.3514 28.0871C89.5512 27.8328 90.7583 27.6103 91.9617 27.374C93.1746 27.1359 94.4067 26.942 95.6092 26.6565C96.1147 26.5365 96.6632 26.2257 96.8045 25.6867C96.9592 25.0965 96.6679 24.5268 96.133 24.2519C95.62 23.9882 95.0101 23.9674 94.4495 23.884C93.8315 23.792 93.2135 23.7001 92.5955 23.6082C91.3382 23.4211 90.0809 23.2341 88.8236 23.0471C88.2056 22.9551 87.5876 22.8632 86.9696 22.7713C86.3966 22.686 85.808 22.6285 85.2493 22.4696C84.8712 22.3621 84.4845 22.1777 84.3175 21.8178C84.2637 21.7017 84.2498 21.6173 84.2866 21.4868C84.337 21.3076 84.4773 21.1408 84.6335 21.0173C84.9934 20.7327 85.4807 20.6057 85.9085 20.4684C86.47 20.2883 87.0376 20.1276 87.6101 19.9867C88.7468 19.7068 89.9021 19.5021 91.0674 19.3886C91.6744 19.3294 92.2836 19.2918 92.8934 19.276C93.4703 19.261 94.0483 19.2968 94.6245 19.2789C95.2387 19.2599 95.8708 19.0957 96.2925 18.6196C96.7264 18.1296 96.8319 17.4606 96.53 16.8732C95.9326 15.7108 94.3496 15.825 93.2461 15.7398C91.9826 15.6423 90.7191 15.5448 89.4556 15.4472C88.2741 15.356 87.0594 15.3368 85.8882 15.155C85.4545 15.0877 84.9546 14.9637 84.6275 14.7052C84.3276 14.4683 84.1329 14.1576 84.1568 13.8463C84.1789 13.5568 84.4747 13.2369 84.7842 13.0592C85.2185 12.8098 85.731 12.7167 86.216 12.6156C88.7123 12.0952 91.2101 11.5815 93.7071 11.0644C94.3215 10.9372 94.936 10.81 95.5505 10.6827C95.9629 10.5973 96.2013 10.1109 96.0949 9.72383C95.9772 9.29563 95.5496 9.09372 95.136 9.17937Z" fill="#B39354"/>
<path d="M62.3691 34.0397H57.2627V43.952H62.3691V34.0397Z" fill="#FFAFAF"/>
<path d="M70.7996 61.6607L58.4842 60.7596C58.4842 60.7596 53.3779 72.4742 57.2827 79.9836L59.9861 95.603L58.9171 121.312H64.5108L73.2026 79.9836L70.7996 61.6607Z" fill="#2F2E41"/>
<path d="M68.3966 74.7811L73.2026 78.9643L70.7996 119.933H65.3928L68.3966 74.7811Z" fill="#2F2E41"/>
<path d="M59.7471 35.9886C63.2729 35.9886 66.1312 33.1304 66.1312 29.6045C66.1312 26.0787 63.2729 23.2205 59.7471 23.2205C56.2213 23.2205 53.363 26.0787 53.363 29.6045C53.363 33.1304 56.2213 35.9886 59.7471 35.9886Z" fill="#FFAFAF"/>
<path d="M58.9825 115.21L65.5772 116.252L66.8166 120.983C66.8166 120.983 72.1713 122.998 69.5912 125.187C67.0111 127.377 57.4797 126.245 56.7261 124.674C55.9725 123.104 58.9825 115.21 58.9825 115.21Z" fill="#2F2E41"/>
<path d="M64.3892 115.21L70.9839 116.252L72.2234 120.983C72.2234 120.983 77.578 122.998 74.9979 125.187C72.4179 127.377 62.8864 126.245 62.1328 124.674C61.3792 123.104 64.3892 115.21 64.3892 115.21Z" fill="#2F2E41"/>
<path d="M82.6079 60.6447C81.899 60.6525 81.1986 60.4906 80.5652 60.1723L77.742 60.1297L69.4177 60.2913L65.4319 58.9894L66.5176 55.8554L77.4539 56.8142L80.5734 57.0194C81.2086 56.7041 81.9101 56.5455 82.6191 56.5573C84.3929 56.5614 85.8284 57.4803 85.8255 58.609C85.8225 59.7379 84.3823 60.6492 82.6079 60.6447Z" fill="#FFAFAF"/>
<path d="M62.8397 37.7809H56.5198L54.4292 44.0888L58.4843 60.7596L70.7996 61.6607L70.0487 54.9023C71.5026 52.5396 71.3866 49.533 69.7549 47.2894L62.8397 37.7809Z" fill="#DEDEDE"/>
<path d="M56.8323 40.4843L63.4405 39.3499L68.2465 54.6019L78.4592 56.4041V60.7596C78.4592 60.9098 64.4817 62.1113 64.1113 61.6607C63.7409 61.2101 56.8323 40.4843 56.8323 40.4843Z" fill="#DEDEDE"/>
<path d="M62.935 25.9032C63.7193 27.1755 62.9962 28.8513 62.0301 29.9917C61.0639 31.132 59.8182 32.133 59.3868 33.564C59.0001 34.847 59.3519 36.2307 59.8067 37.4912C60.2615 38.7517 60.827 40.0084 60.8739 41.3476C60.9208 42.6868 60.287 44.1657 59.0255 44.6178C57.7311 45.0817 56.2007 44.3527 54.9539 44.9326C53.3299 45.688 52.9619 48.3033 51.1914 48.5745C50.1018 48.7413 49.092 47.7967 48.7875 46.7373C48.483 45.6779 48.7017 44.5472 48.9219 43.4671C49.525 40.5078 50.1281 37.5486 50.7312 34.5893C51.233 32.127 51.7349 29.6647 52.2367 27.2024C52.5363 25.7323 52.8918 24.1598 53.9967 23.1447C55.3468 21.9044 57.3818 21.875 59.2136 21.9493C60.8966 22.0176 62.6476 22.1327 64.1127 22.9637C65.5779 23.7946 66.6541 25.5609 66.1471 27.1672C65.6736 26.0366 64.2587 25.4024 63.0997 25.8011" fill="#2F2E41"/>
</svg>
