<svg width="494" height="169" viewBox="0 0 494 169" fill="none" xmlns="http://www.w3.org/2000/svg">
<g clip-path="url(#clip0_113_361)">
<path d="M14.1754 149.178C15.9108 149.734 17.774 149.874 19.5855 149.583C21.3971 149.291 23.0959 148.579 24.5184 147.515C28.141 144.74 29.2771 140.169 30.201 135.936L32.9345 123.414L27.2117 127.011C23.0959 129.597 18.8877 132.266 16.0382 136.012C13.1888 139.758 11.9456 144.873 14.2344 148.926" fill="#E6E6E6"/>
<path d="M15.0591 165.209C14.3388 160.419 13.5977 155.568 14.1041 150.727C14.553 146.428 15.9901 142.23 18.916 138.786C20.469 136.962 22.3588 135.399 24.5003 134.168C25.0586 133.846 25.5726 134.653 25.0167 134.974C21.3112 137.111 18.445 140.267 16.8315 143.987C15.0495 148.123 14.7634 152.632 15.0703 157.026C15.2559 159.684 15.6501 162.323 16.0461 164.96C16.0773 165.079 16.0578 165.205 15.9915 165.312C15.9251 165.418 15.8169 165.498 15.6886 165.534C15.5578 165.566 15.4184 165.55 15.3006 165.489C15.1828 165.428 15.0961 165.327 15.0594 165.208L15.0591 165.209Z" fill="#F2F2F2"/>
<path d="M20.2437 157.524C20.9878 158.556 22.0109 159.397 23.2142 159.964C24.4175 160.531 25.7605 160.805 27.1138 160.761C30.5925 160.61 33.4914 158.395 36.1008 156.292L43.8205 150.071L38.7116 149.848C35.0374 149.687 31.2685 149.537 27.769 150.572C24.2695 151.607 21.0421 154.095 20.4023 157.401" fill="#E6E6E6"/>
<path d="M13.023 167.962C16.4908 162.362 20.5128 156.138 27.7001 154.149C29.6983 153.598 31.7936 153.4 33.8731 153.567C34.5286 153.619 34.3649 154.541 33.7107 154.49C30.2249 154.225 26.7458 155.065 23.8592 156.868C21.1455 158.665 18.8449 160.931 17.088 163.537C15.9666 165.095 14.9622 166.72 13.9578 168.342C13.6369 168.861 12.6983 168.486 13.023 167.962Z" fill="#F2F2F2"/>
<path d="M331.38 141.858C333.77 142.624 336.336 142.816 338.83 142.415C341.325 142.014 343.664 141.034 345.623 139.568C350.612 135.746 352.176 129.452 353.448 123.623L357.213 106.38L349.332 111.333C343.664 114.894 337.869 118.57 333.945 123.728C330.021 128.887 328.31 135.929 331.461 141.511" fill="#E6E6E6"/>
<path d="M332.597 163.934C331.605 157.338 330.585 150.658 331.282 143.992C331.9 138.072 333.879 132.29 337.908 127.548C340.047 125.036 342.649 122.884 345.598 121.188C346.367 120.745 347.075 121.857 346.309 122.298C341.206 125.241 337.26 129.587 335.038 134.709C332.584 140.405 332.19 146.615 332.612 152.666C332.868 156.325 333.411 159.96 333.956 163.591C333.999 163.755 333.972 163.928 333.881 164.075C333.79 164.222 333.641 164.332 333.464 164.382C333.284 164.426 333.092 164.404 332.93 164.32C332.767 164.236 332.648 164.097 332.597 163.933L332.597 163.934Z" fill="#F2F2F2"/>
<path d="M339.737 153.351C340.761 154.773 342.17 155.93 343.827 156.711C345.484 157.491 347.333 157.869 349.197 157.808C353.987 157.601 357.979 154.551 361.573 151.654L372.203 143.088L365.168 142.781C360.108 142.56 354.918 142.352 350.099 143.778C345.28 145.203 340.836 148.629 339.955 153.182" fill="#E6E6E6"/>
<path d="M329.793 167.725C334.568 160.013 340.107 151.443 350.004 148.704C352.756 147.945 355.641 147.673 358.505 147.902C359.408 147.974 359.182 149.243 358.281 149.173C353.481 148.809 348.69 149.966 344.715 152.448C340.89 154.824 337.911 158.128 335.391 161.631C333.847 163.778 332.464 166.015 331.08 168.249C330.638 168.963 329.346 168.447 329.793 167.725Z" fill="#F2F2F2"/>
<path d="M286.623 25.826C286.119 25.6259 285.714 25.2637 285.484 24.8085C285.254 24.3532 285.216 23.8367 285.376 23.3572C285.402 23.2837 285.418 23.2076 285.424 23.1306C285.439 22.911 285.376 22.6928 285.244 22.5085C285.112 22.3242 284.919 22.1835 284.693 22.1074C284.466 22.0312 284.219 22.0236 283.988 22.0856C283.757 22.1476 283.553 22.276 283.408 22.4518C283.358 22.5141 283.316 22.5816 283.284 22.6529C283.064 23.1125 282.668 23.4824 282.169 23.6923C281.67 23.9022 281.104 23.9374 280.579 23.7911C280.498 23.7674 280.415 23.7525 280.33 23.7467C280.09 23.7333 279.851 23.7911 279.649 23.9114C279.447 24.0317 279.293 24.2081 279.209 24.4146C279.126 24.6211 279.117 24.8466 279.185 25.0578C279.253 25.269 279.394 25.4546 279.587 25.5871C279.655 25.6326 279.729 25.6707 279.807 25.7004C280.311 25.9006 280.716 26.2628 280.946 26.718C281.176 27.1732 281.214 27.6898 281.054 28.1692C281.028 28.2428 281.012 28.3188 281.005 28.3958C280.991 28.6155 281.054 28.8336 281.186 29.0179C281.318 29.2022 281.511 29.3429 281.737 29.4191C281.964 29.4952 282.211 29.5029 282.442 29.4409C282.673 29.3788 282.877 29.2504 283.022 29.0747C283.072 29.0123 283.114 28.9448 283.146 28.8735C283.365 28.4139 283.762 28.044 284.261 27.8341C284.76 27.6242 285.326 27.5891 285.851 27.7353C285.932 27.759 286.015 27.7739 286.1 27.7797C286.34 27.7931 286.579 27.7354 286.781 27.6151C286.983 27.4948 287.137 27.3183 287.221 27.1118C287.304 26.9053 287.313 26.6798 287.245 26.4686C287.177 26.2575 287.036 26.0719 286.843 25.9394C286.775 25.8938 286.701 25.8558 286.623 25.826Z" fill="#CBCBCB"/>
<path d="M105.713 63.6287C105.209 63.4285 104.804 63.0663 104.574 62.6111C104.344 62.1558 104.306 61.6393 104.466 61.1598C104.492 61.0863 104.508 61.0103 104.515 60.9332C104.529 60.7136 104.466 60.4954 104.334 60.3111C104.202 60.1268 104.009 59.9862 103.783 59.91C103.556 59.8338 103.309 59.8262 103.078 59.8882C102.847 59.9502 102.643 60.0786 102.498 60.2544C102.448 60.3167 102.406 60.3842 102.374 60.4555C102.155 60.9151 101.758 61.2851 101.259 61.4949C100.76 61.7048 100.194 61.74 99.6687 61.5937C99.5882 61.5701 99.5048 61.5552 99.4205 61.5493C99.1798 61.5359 98.9407 61.5937 98.7388 61.714C98.5369 61.8343 98.3827 62.0108 98.2993 62.2172C98.2158 62.4237 98.2075 62.6493 98.2754 62.8604C98.3434 63.0716 98.484 63.2572 98.6766 63.3897C98.7449 63.4352 98.8189 63.4733 98.897 63.503C99.4006 63.7032 99.8059 64.0654 100.036 64.5206C100.266 64.9759 100.304 65.4924 100.144 65.9719C100.118 66.0454 100.102 66.1214 100.095 66.1984C100.081 66.4181 100.144 66.6363 100.276 66.8206C100.408 67.0049 100.601 67.1455 100.827 67.2217C101.054 67.2979 101.301 67.3055 101.532 67.2435C101.763 67.1814 101.967 67.053 102.112 66.8773C102.162 66.8149 102.204 66.7474 102.236 66.6762C102.455 66.2166 102.852 65.8466 103.351 65.6367C103.85 65.4268 104.416 65.3917 104.941 65.5379C105.022 65.5616 105.105 65.5765 105.19 65.5823C105.43 65.5957 105.669 65.538 105.871 65.4177C106.073 65.2974 106.227 65.1209 106.311 64.9144C106.394 64.7079 106.403 64.4824 106.335 64.2712C106.267 64.0601 106.126 63.8745 105.933 63.742C105.865 63.6964 105.791 63.6584 105.713 63.6287Z" fill="#F1F1F1"/>
<path d="M198.973 31.1316C200.991 31.1316 202.628 29.6382 202.628 27.796C202.628 25.9539 200.991 24.4605 198.973 24.4605C196.954 24.4605 195.318 25.9539 195.318 27.796C195.318 29.6382 196.954 31.1316 198.973 31.1316Z" fill="#F1F1F1"/>
<path d="M393.893 22.2368C395.911 22.2368 397.547 20.7435 397.547 18.9013C397.547 17.0592 395.911 15.5658 393.893 15.5658C391.874 15.5658 390.238 17.0592 390.238 18.9013C390.238 20.7435 391.874 22.2368 393.893 22.2368Z" fill="#5483B3"/>
<path d="M110.041 6.67105C112.059 6.67105 113.695 5.17769 113.695 3.33553C113.695 1.49337 112.059 0 110.041 0C108.022 0 106.386 1.49337 106.386 3.33553C106.386 5.17769 108.022 6.67105 110.041 6.67105Z" fill="#CBCBCB"/>
<path d="M95.9858 158.266C110.474 158.266 122.219 147.546 122.219 134.324C122.219 121.101 110.474 110.382 95.9858 110.382C81.4975 110.382 69.7524 121.101 69.7524 134.324C69.7524 147.546 81.4975 158.266 95.9858 158.266Z" fill="#2F2E41"/>
<path d="M92.001 153.114H84.0314V166.145H92.001V153.114Z" fill="#2F2E41"/>
<path d="M107.94 153.114H99.9706V166.145H107.94V153.114Z" fill="#2F2E41"/>
<path d="M90.6727 168.57C94.3406 168.57 97.3141 167.552 97.3141 166.297C97.3141 165.041 94.3406 164.024 90.6727 164.024C87.0048 164.024 84.0313 165.041 84.0313 166.297C84.0313 167.552 87.0048 168.57 90.6727 168.57Z" fill="#2F2E41"/>
<path d="M106.612 168.267C110.28 168.267 113.253 167.249 113.253 165.994C113.253 164.738 110.28 163.721 106.612 163.721C102.944 163.721 99.9706 164.738 99.9706 165.994C99.9706 167.249 102.944 168.267 106.612 168.267Z" fill="#2F2E41"/>
<path d="M124.255 123.861C129.936 118.672 133.095 113.146 131.31 111.518C129.525 109.891 123.473 112.778 117.791 117.967C112.11 123.156 108.951 128.682 110.736 130.31C112.521 131.937 118.574 129.05 124.255 123.861Z" fill="#2F2E41"/>
<path d="M74.8409 131.978C76.6258 130.35 73.4671 124.824 67.7858 119.635C62.1045 114.446 56.052 111.559 54.2671 113.186C52.4822 114.814 55.6408 120.34 61.3221 125.529C67.0034 130.718 73.056 133.605 74.8409 131.978Z" fill="#2F2E41"/>
<path d="M94.8821 139.113C99.8338 139.113 103.848 135.45 103.848 130.931C103.848 126.411 99.8338 122.748 94.8821 122.748C89.9304 122.748 85.9163 126.411 85.9163 130.931C85.9163 135.45 89.9304 139.113 94.8821 139.113Z" fill="white"/>
<path d="M94.8821 133.658C96.5326 133.658 97.8707 132.437 97.8707 130.931C97.8707 129.424 96.5326 128.203 94.8821 128.203C93.2315 128.203 91.8934 129.424 91.8934 130.931C91.8934 132.437 93.2315 133.658 94.8821 133.658Z" fill="#3F3D56"/>
<path d="M101.999 146.064C102.276 147.453 101.938 148.885 101.058 150.045C100.178 151.206 98.8286 152 97.3072 152.253C95.7858 152.506 94.2166 152.196 92.945 151.393C91.6733 150.59 90.8033 149.359 90.5263 147.97L90.5243 147.96C89.9506 145.068 92.4006 144.045 95.5694 143.521C98.7382 142.998 101.426 143.172 101.999 146.064Z" fill="white"/>
<path d="M121.709 159.451C121.119 159.452 120.553 159.666 120.135 160.047C119.718 160.428 119.483 160.945 119.482 161.484V165.73C119.483 166.269 119.718 166.785 120.135 167.166C120.553 167.547 121.119 167.762 121.709 167.762H157.544C158.134 167.762 158.7 167.547 159.118 167.166C159.536 166.785 159.77 166.269 159.771 165.73V161.484C159.77 160.945 159.536 160.428 159.118 160.047C158.7 159.666 158.134 159.452 157.544 159.451H121.709Z" fill="#E5E5E5"/>
<path d="M142.317 156.624C142.095 156.507 141.832 156.475 141.584 156.536C141.337 156.596 141.126 156.744 140.998 156.946L139.666 159.051L138.361 156.698C138.245 156.489 138.044 156.331 137.8 156.258C137.557 156.185 137.292 156.203 137.063 156.309C136.835 156.415 136.662 156.599 136.582 156.821C136.502 157.043 136.522 157.285 136.638 157.493L137.653 159.325H137.281V167.888H142.248V159.325H141.723L142.671 157.828C142.799 157.625 142.833 157.385 142.767 157.159C142.701 156.933 142.539 156.741 142.317 156.624Z" fill="#5483B3"/>
<path d="M95.3103 118.62C90.6491 118.615 86.0154 117.969 81.5654 116.703C81.2562 116.612 80.9865 116.434 80.7948 116.195C80.6031 115.956 80.4993 115.667 80.4981 115.37V105.625C80.4986 105.257 80.6592 104.903 80.9447 104.643C81.2301 104.382 81.6172 104.236 82.0209 104.235H108.822C109.226 104.236 109.613 104.382 109.899 104.643C110.184 104.903 110.345 105.257 110.345 105.625V115.365C110.345 115.664 110.24 115.955 110.045 116.195C109.85 116.435 109.575 116.612 109.262 116.699C104.74 117.96 100.039 118.607 95.3103 118.62Z" fill="#052659"/>
<path opacity="0.2" d="M110.041 105.625V107.254L95.5374 111.896C95.2663 111.981 94.971 111.977 94.7028 111.885L80.8027 107.12V105.625C80.8036 105.33 80.9322 105.048 81.1605 104.84C81.3888 104.631 81.6981 104.514 82.0209 104.513H108.822C109.145 104.514 109.455 104.631 109.683 104.84C109.911 105.048 110.04 105.33 110.041 105.625Z" fill="black"/>
<path d="M95.1315 110.012C94.9488 110.012 94.7675 109.982 94.5963 109.924L73.8245 102.805C73.5308 102.705 73.2783 102.524 73.1016 102.287C72.9249 102.051 72.8326 101.77 72.8372 101.484C72.8418 101.197 72.9432 100.92 73.1275 100.688C73.3118 100.456 73.5701 100.282 73.8669 100.189L93.4109 94.0872C93.7267 93.9896 94.0686 93.9883 94.3853 94.0834L116.198 100.719C116.499 100.811 116.762 100.986 116.948 101.221C117.135 101.455 117.237 101.737 117.239 102.027C117.242 102.317 117.145 102.6 116.962 102.837C116.779 103.075 116.52 103.254 116.22 103.349L95.6351 109.934C95.4732 109.986 95.303 110.012 95.1315 110.012Z" fill="#052659"/>
<path d="M76.2344 109.516H75.6252V101.456H94.2035V102.011H76.2344V109.516Z" fill="#3F3D56"/>
<path d="M75.9297 111.184C76.6025 111.184 77.1479 110.686 77.1479 110.072C77.1479 109.458 76.6025 108.961 75.9297 108.961C75.2569 108.961 74.7114 109.458 74.7114 110.072C74.7114 110.686 75.2569 111.184 75.9297 111.184Z" fill="#3F3D56"/>
<path d="M247.658 158.266C262.146 158.266 273.891 147.546 273.891 134.324C273.891 121.101 262.146 110.382 247.658 110.382C233.17 110.382 221.424 121.101 221.424 134.324C221.424 147.546 233.17 158.266 247.658 158.266Z" fill="#2F2E41"/>
<path d="M243.673 153.114H235.703V166.145H243.673V153.114Z" fill="#2F2E41"/>
<path d="M259.612 153.114H251.643V166.145H259.612V153.114Z" fill="#2F2E41"/>
<path d="M242.345 168.57C246.013 168.57 248.986 167.552 248.986 166.297C248.986 165.041 246.013 164.024 242.345 164.024C238.677 164.024 235.703 165.041 235.703 166.297C235.703 167.552 238.677 168.57 242.345 168.57Z" fill="#2F2E41"/>
<path d="M258.284 168.267C261.952 168.267 264.925 167.249 264.925 165.994C264.925 164.738 261.952 163.721 258.284 163.721C254.616 163.721 251.643 164.738 251.643 165.994C251.643 167.249 254.616 168.267 258.284 168.267Z" fill="#2F2E41"/>
<path d="M275.927 123.861C281.608 118.672 284.767 113.146 282.982 111.518C281.197 109.891 275.144 112.778 269.463 117.967C263.782 123.156 260.623 128.682 262.408 130.31C264.193 131.937 270.246 129.05 275.927 123.861Z" fill="#2F2E41"/>
<path d="M224.243 146.085C228.827 140.06 230.863 134.11 228.79 132.797C226.718 131.483 221.321 135.303 216.737 141.329C212.153 147.354 210.117 153.304 212.189 154.617C214.262 155.93 219.658 152.111 224.243 146.085Z" fill="#2F2E41"/>
<path d="M246.554 139.113C251.506 139.113 255.52 135.45 255.52 130.931C255.52 126.411 251.506 122.748 246.554 122.748C241.602 122.748 237.588 126.411 237.588 130.931C237.588 135.45 241.602 139.113 246.554 139.113Z" fill="white"/>
<path d="M249.6 130.879C251.25 130.879 252.588 129.657 252.588 128.151C252.588 126.645 251.25 125.423 249.6 125.423C247.949 125.423 246.611 126.645 246.611 128.151C246.611 129.657 247.949 130.879 249.6 130.879Z" fill="#3F3D56"/>
<path d="M257.303 146.064C258.183 148.956 254.979 151.726 250.148 152.253C245.316 152.779 240.686 150.862 239.807 147.97L239.804 147.96C238.929 145.068 242.665 144.045 247.498 143.521C252.33 142.998 256.429 143.172 257.303 146.064Z" fill="white"/>
<path d="M238.479 120.233C234.152 121.816 229.589 122.794 224.943 123.134C224.619 123.155 224.296 123.082 224.02 122.925C223.745 122.768 223.53 122.536 223.408 122.261L219.424 113.219C219.274 112.877 219.279 112.495 219.437 112.156C219.595 111.817 219.895 111.549 220.269 111.411L245.136 102.286C245.51 102.149 245.929 102.153 246.301 102.298C246.672 102.442 246.966 102.715 247.117 103.057L251.098 112.094C251.22 112.371 251.242 112.677 251.159 112.966C251.076 113.256 250.893 113.513 250.638 113.7C246.958 116.41 242.861 118.611 238.479 120.233Z" fill="#052659"/>
<path opacity="0.2" d="M246.834 103.161L247.5 104.672L235.941 113.917C235.724 114.088 235.449 114.185 235.162 114.191L220.318 114.503L219.707 113.116C219.587 112.842 219.591 112.536 219.718 112.265C219.844 111.994 220.083 111.78 220.383 111.669L245.249 102.544C245.549 102.435 245.884 102.438 246.181 102.554C246.478 102.67 246.713 102.888 246.834 103.161Z" fill="black"/>
<path d="M234.795 112.307C234.625 112.37 234.445 112.404 234.262 112.408L212.08 112.876C211.766 112.882 211.458 112.8 211.197 112.641C210.937 112.482 210.736 112.253 210.624 111.986C210.511 111.718 210.491 111.426 210.568 111.148C210.644 110.87 210.812 110.621 211.05 110.434L226.689 98.118C226.942 97.9199 227.258 97.8023 227.591 97.7827L250.542 96.5129C250.859 96.4953 251.174 96.5687 251.443 96.7227C251.712 96.8767 251.921 97.1036 252.042 97.3717C252.163 97.6398 252.189 97.9357 252.116 98.2179C252.044 98.5001 251.876 98.7545 251.637 98.9455L235.23 112.064C235.101 112.167 234.954 112.249 234.795 112.307Z" fill="#052659"/>
<path d="M217.059 118.282L216.494 118.489L213.199 111.01L230.436 104.684L230.663 105.2L213.991 111.319L217.059 118.282Z" fill="#3F3D56"/>
<path d="M217.004 120.013C217.676 120.013 218.222 119.515 218.222 118.901C218.222 118.287 217.676 117.789 217.004 117.789C216.331 117.789 215.785 118.287 215.785 118.901C215.785 119.515 216.331 120.013 217.004 120.013Z" fill="#3F3D56"/>
<path d="M347.528 77.7561C343.574 75.504 340.015 72.7203 336.97 69.499C336.76 69.2726 336.634 68.9914 336.61 68.6958C336.586 68.4001 336.665 68.105 336.836 67.8528L342.48 59.5798C342.694 59.2672 343.034 59.0448 343.428 58.9613C343.821 58.8779 344.234 58.9402 344.577 59.1345L367.329 72.063C367.672 72.2581 367.915 72.5693 368.007 72.9282C368.098 73.287 368.03 73.6644 367.817 73.9774L362.177 82.2455C362.004 82.4994 361.746 82.6958 361.441 82.8056C361.136 82.9154 360.801 82.9328 360.484 82.8552C355.915 81.7443 351.55 80.0262 347.528 77.7561Z" fill="#5483B3"/>
<path opacity="0.2" d="M367.559 73.8305L366.615 75.2132L351.615 72.1577C351.336 72.0994 351.087 71.9537 350.913 71.7457L341.872 60.9962L342.738 59.7267C342.91 59.4771 343.182 59.2995 343.497 59.2327C343.811 59.166 344.142 59.2155 344.416 59.3705L367.168 72.299C367.442 72.4554 367.636 72.7043 367.71 72.9913C367.783 73.2782 367.728 73.5799 367.559 73.8305Z" fill="black"/>
<path d="M352.361 70.3628C352.206 70.2748 352.07 70.162 351.958 70.0298L338.447 53.9671C338.256 53.7399 338.147 53.4645 338.134 53.1784C338.121 52.8924 338.205 52.6096 338.375 52.3688C338.544 52.128 338.792 51.9409 339.082 51.8332C339.373 51.7254 339.693 51.7021 339.999 51.7666L360.123 56.0141C360.448 56.0836 360.739 56.2474 360.953 56.4809L375.627 72.6363C375.829 72.8595 375.951 73.1349 375.973 73.424C375.996 73.7131 375.919 74.0015 375.753 74.2487C375.587 74.4959 375.341 74.6897 375.049 74.8028C374.756 74.9159 374.432 74.9428 374.122 74.8796L352.834 70.5396C352.667 70.5054 352.507 70.4457 352.361 70.3628Z" fill="#052659"/>
<path d="M336.607 60.8267L336.089 60.5326L340.758 53.6898L356.529 62.6518L356.207 63.1232L340.953 54.4553L336.607 60.8267Z" fill="#3F3D56"/>
<path d="M336.026 62.2633C336.699 62.2633 337.244 61.7655 337.244 61.1515C337.244 60.5374 336.699 60.0396 336.026 60.0396C335.353 60.0396 334.808 60.5374 334.808 61.1515C334.808 61.7655 335.353 62.2633 336.026 62.2633Z" fill="#3F3D56"/>
<path d="M410.993 131.025C425.481 131.025 437.226 120.306 437.226 107.083C437.226 93.8606 425.481 83.1414 410.993 83.1414C396.505 83.1414 384.76 93.8606 384.76 107.083C384.76 120.306 396.505 131.025 410.993 131.025Z" fill="#2F2E41"/>
<path d="M429.18 119.498L422.379 123.291L429.825 134.41L436.626 130.617L429.18 119.498Z" fill="#2F2E41"/>
<path d="M415.579 127.084L408.779 130.876L416.225 141.996L423.025 138.203L415.579 127.084Z" fill="#2F2E41"/>
<path d="M432.344 135.847C435.474 134.101 437.43 131.818 436.712 130.746C435.995 129.675 432.876 130.222 429.747 131.968C426.617 133.713 424.661 135.997 425.379 137.068C426.096 138.139 429.214 137.592 432.344 135.847Z" fill="#2F2E41"/>
<path d="M418.57 143.174C421.7 141.428 423.656 139.145 422.939 138.074C422.221 137.003 419.103 137.549 415.973 139.295C412.843 141.041 410.888 143.324 411.605 144.395C412.322 145.467 415.441 144.92 418.57 143.174Z" fill="#2F2E41"/>
<path d="M396.243 103.07C398.028 101.442 394.869 95.9158 389.188 90.7267C383.506 85.5376 377.454 82.6506 375.669 84.2784C373.884 85.9061 377.043 91.4322 382.724 96.6213C388.405 101.81 394.458 104.697 396.243 103.07Z" fill="#2F2E41"/>
<path d="M446.462 127.377C448.534 126.063 446.498 120.114 441.914 114.089C437.33 108.063 431.933 104.243 429.86 105.557C427.788 106.87 429.824 112.819 434.408 118.845C438.993 124.87 444.389 128.69 446.462 127.377Z" fill="#2F2E41"/>
<path d="M402.96 108.538C407.912 108.538 411.926 104.874 411.926 100.355C411.926 95.8358 407.912 92.1722 402.96 92.1722C398.008 92.1722 393.994 95.8358 393.994 100.355C393.994 104.874 398.008 108.538 402.96 108.538Z" fill="white"/>
<path d="M399.914 100.303C401.565 100.303 402.903 99.0818 402.903 97.5754C402.903 96.069 401.565 94.8478 399.914 94.8478C398.264 94.8478 396.926 96.069 396.926 97.5754C396.926 99.0818 398.264 100.303 399.914 100.303Z" fill="#3F3D56"/>
<path d="M391.414 114.005C389.714 116.547 391.98 119.986 396.474 121.686C400.969 123.387 405.99 122.704 407.69 120.162L407.696 120.153C409.392 117.609 406.099 115.706 401.602 114.008C397.106 112.31 393.11 111.461 391.414 114.005Z" fill="white"/>
<path d="M402.191 77.0212C404.533 68.4117 414.873 63.3452 425.286 65.7048C435.698 68.0645 442.24 76.9568 439.898 85.5664C437.555 94.1759 429.784 94.2037 419.371 91.844C408.959 89.4844 399.848 85.6308 402.191 77.0212Z" fill="#052659"/>
<path d="M493.391 169H0.609125C0.447575 169 0.292641 168.941 0.178408 168.837C0.064175 168.733 0 168.592 0 168.444C0 168.297 0.064175 168.155 0.178408 168.051C0.292641 167.947 0.447575 167.888 0.609125 167.888H493.391C493.552 167.888 493.707 167.947 493.822 168.051C493.936 168.155 494 168.297 494 168.444C494 168.592 493.936 168.733 493.822 168.837C493.707 168.941 493.552 169 493.391 169Z" fill="#CBCBCB"/>
</g>
<defs>
<clipPath id="clip0_113_361">
<rect width="494" height="169" fill="white"/>
</clipPath>
</defs>
</svg>
