<svg width="139" height="119" viewBox="0 0 139 119" fill="none" xmlns="http://www.w3.org/2000/svg">
<g clip-path="url(#clip0_143_340)">
<path d="M72.0646 17.554C72.1706 17.8589 72.3422 18.1369 72.5672 18.3684C72.7923 18.5999 73.0653 18.7792 73.3672 18.8937C73.6691 19.0083 73.9923 19.0552 74.3143 19.0313C74.6363 19.0073 74.9491 18.9131 75.2307 18.7552L94.3836 24.8988L100.723 19.9256L76.0178 15.5998C75.7211 15.1443 75.2677 14.8135 74.7435 14.6699C74.2192 14.5264 73.6605 14.5801 73.1732 14.821C72.6859 15.0619 72.3039 15.4731 72.0996 15.9768C71.8953 16.4805 71.8828 17.0417 72.0646 17.554Z" fill="#FFB6B6"/>
<path d="M107.54 25.7642C107.54 25.7642 107.366 25.3386 105.074 26.2646C102.23 27.414 87.0851 26.6456 86.2458 22.5163C85.9779 22.7928 85.6256 22.9724 85.2443 23.0267C84.8631 23.081 84.4746 23.0069 84.1401 22.816L86.5076 17.6197C87.74 17.2257 88.4097 16.9343 88.4894 17.4361L92.1946 17.2182L107.201 19.7442L107.616 24.9241L107.54 25.7642Z" fill="#F2F2F2"/>
<path d="M102.821 20.5544L110.273 19.9093L117.259 23.1029L121.183 77.3736L105.787 70.2534L99.1812 72.081L102.821 20.5544Z" fill="#F2F2F2"/>
<path d="M121.155 115.27L118.328 115.27L116.984 104.367L121.156 104.367L121.155 115.27Z" fill="#FFB6B6"/>
<path d="M121.876 118.01L112.761 118.01V117.895C112.762 116.954 113.135 116.052 113.801 115.386C114.466 114.721 115.368 114.347 116.309 114.347L117.974 113.084L121.081 114.347L121.876 114.347L121.876 118.01Z" fill="#2F2E41"/>
<path d="M110.201 113.489L107.444 114.112L103.73 103.772L107.8 102.854L110.201 113.489Z" fill="#FFB6B6"/>
<path d="M111.508 116.003L102.617 118.01L102.591 117.898C102.384 116.98 102.55 116.018 103.053 115.222C103.555 114.427 104.353 113.863 105.271 113.656L105.271 113.656L106.617 112.057L109.925 112.605L110.701 112.43L111.508 116.003Z" fill="#2F2E41"/>
<path d="M124.735 48.614C126.061 52.6111 125.921 56.9499 124.417 61.6066L123.774 87.825C124.837 88.9946 124.999 99.4595 123.362 102.874C121.176 107.434 123.187 108.044 121.641 111.069H117.159L115.088 97.3637L114.94 86.2549C114.345 84.8454 114.833 79.8851 114.833 79.8851L114.661 69.5996L106.58 87.6174C110.241 90.7513 109.912 100.875 109.972 105.365L111.172 110.663L105.656 111.156L103.222 103.971L100.485 99.5432C99.0899 91.6978 98.6763 85.9382 99.8654 83.5855L107.978 53.4018L124.735 48.614Z" fill="#2F2E41"/>
<path d="M125.31 47.2799L124.571 45.8022C123.666 40.1986 122.773 34.9721 123.987 30.2708C124.063 26.1667 122.795 22.3111 119.272 20.2056L117.683 19.2554L116.879 17.2153L109.473 17.3962L109.451 20.0705L106.799 24.301V24.3185L106.964 47.3388L107.697 49.7145L106.592 52.4781L107.178 54.2414L121.779 51.9071L123.477 51.6347C123.673 51.5719 123.862 51.4894 124.041 51.3884C124.65 51.0501 125.128 50.5165 125.397 49.8736C125.412 49.8365 125.425 49.8017 125.438 49.7646C125.553 49.4646 125.619 49.1482 125.634 48.8274C125.661 48.2922 125.549 47.7593 125.31 47.2799Z" fill="#3F3D56"/>
<path opacity="0.2" d="M125.634 48.8274C125.619 49.1482 125.553 49.4646 125.438 49.7646L124.041 51.3884C123.862 51.4894 123.673 51.5719 123.477 51.6347L121.779 51.9071L124.235 47.2887L118.836 35.469L125.634 48.8274Z" fill="black"/>
<path d="M10.9255 96.5815C9.2101 96.599 7.49598 96.4803 5.79931 96.2266C4.21951 95.9594 3.41846 95.5798 3.41846 95.0985L3.41904 95.0898L6.36616 72.6514L4.88187 68.3964C4.81955 68.2178 4.80116 68.0267 4.82824 67.8395C4.85532 67.6522 4.92708 67.4742 5.03745 67.3205C5.14782 67.1669 5.29356 67.042 5.46236 66.9565C5.63116 66.871 5.81806 66.8274 6.00726 66.8294L15.7682 66.9311C15.954 66.933 16.1366 66.9788 16.3013 67.0647C16.466 67.1507 16.608 67.2743 16.7158 67.4256C16.8236 67.5768 16.8942 67.7514 16.9217 67.9351C16.9493 68.1188 16.933 68.3064 16.8742 68.4826L15.4849 72.6509L18.432 95.0898C18.4326 96.2692 13.7138 96.5815 10.9255 96.5815Z" fill="#F2F2F2"/>
<path d="M10.1302 93.4229H5.3623V93.691H10.1302V93.4229Z" fill="#CCCCCC"/>
<path d="M10.1302 91.8142H5.3623V92.0823H10.1302V91.8142Z" fill="#CCCCCC"/>
<path d="M10.1302 90.2055H5.3623V90.4736H10.1302V90.2055Z" fill="#CCCCCC"/>
<path d="M10.1302 88.5969H5.3623V88.865H10.1302V88.5969Z" fill="#CCCCCC"/>
<path d="M10.1302 86.9882H5.3623V87.2563H10.1302V86.9882Z" fill="#CCCCCC"/>
<path d="M53.823 96.5815C52.1076 96.599 50.3934 96.4803 48.6968 96.2266C47.117 95.9594 46.3159 95.5798 46.3159 95.0985L46.3165 95.0898L49.2636 72.6514L47.7793 68.3964C47.717 68.2178 47.6986 68.0267 47.7257 67.8395C47.7528 67.6522 47.8245 67.4742 47.9349 67.3205C48.0453 67.1669 48.191 67.042 48.3598 66.9565C48.5286 66.871 48.7155 66.8274 48.9047 66.8294L58.6657 66.9311C58.8514 66.933 59.0341 66.9788 59.1987 67.0647C59.3634 67.1507 59.5055 67.2743 59.6133 67.4256C59.7211 67.5768 59.7916 67.7514 59.8192 67.9351C59.8467 68.1188 59.8304 68.3064 59.7717 68.4826L58.3823 72.6509L61.3295 95.0898C61.3301 96.2692 56.6113 96.5815 53.823 96.5815Z" fill="#F2F2F2"/>
<path d="M53.0277 93.4229H48.2598V93.691H53.0277V93.4229Z" fill="#CCCCCC"/>
<path d="M53.0277 91.8142H48.2598V92.0823H53.0277V91.8142Z" fill="#CCCCCC"/>
<path d="M53.0277 90.2055H48.2598V90.4736H53.0277V90.2055Z" fill="#CCCCCC"/>
<path d="M53.0277 88.5969H48.2598V88.865H53.0277V88.5969Z" fill="#CCCCCC"/>
<path d="M53.0277 86.9882H48.2598V87.2563H53.0277V86.9882Z" fill="#CCCCCC"/>
<path d="M33.7148 96.5815C31.9994 96.599 30.2853 96.4803 28.5886 96.2266C27.0088 95.9594 26.2078 95.5798 26.2078 95.0985L26.2084 95.0898L29.1555 72.6514L27.6712 68.3964C27.6089 68.2178 27.5905 68.0267 27.6175 67.8395C27.6446 67.6522 27.7164 67.4742 27.8268 67.3205C27.9371 67.1669 28.0829 67.042 28.2517 66.9565C28.4205 66.871 28.6074 66.8274 28.7966 66.8294L38.5575 66.9311C38.7433 66.933 38.9259 66.9788 39.0906 67.0647C39.2553 67.1507 39.3973 67.2743 39.5051 67.4256C39.6129 67.5768 39.6835 67.7514 39.711 67.9351C39.7386 68.1188 39.7223 68.3064 39.6635 68.4826L38.2742 72.6509L41.2213 95.0898C41.2219 96.2692 36.5031 96.5815 33.7148 96.5815Z" fill="#F2F2F2"/>
<path d="M32.9195 93.4229H28.1516V93.691H32.9195V93.4229Z" fill="#CCCCCC"/>
<path d="M32.9195 91.8142H28.1516V92.0823H32.9195V91.8142Z" fill="#CCCCCC"/>
<path d="M32.9195 90.2055H28.1516V90.4736H32.9195V90.2055Z" fill="#CCCCCC"/>
<path d="M32.9195 88.5969H28.1516V88.865H32.9195V88.5969Z" fill="#CCCCCC"/>
<path d="M32.9195 86.9882H28.1516V87.2563H32.9195V86.9882Z" fill="#CCCCCC"/>
<path d="M65.4189 98.2488H56.3031V82.9666H65.4189C65.9166 82.9666 66.394 82.7688 66.746 82.4169C67.0979 82.0649 67.2957 81.5875 67.2957 81.0898C67.2957 80.592 67.0979 80.1147 66.746 79.7627C66.394 79.4108 65.9166 79.213 65.4189 79.213H1.87677C1.37902 79.213 0.901658 79.4108 0.549695 79.7627C0.197732 80.1147 0 80.592 0 81.0898C0 81.5875 0.197732 82.0649 0.549695 82.4169C0.901658 82.7688 1.37902 82.9666 1.87677 82.9666H9.65197V98.2488H1.87677C1.37902 98.2488 0.901658 98.4466 0.549695 98.7985C0.197732 99.1505 0 99.6279 0 100.126C0 100.623 0.197732 101.101 0.549695 101.453C0.901658 101.805 1.37902 102.002 1.87677 102.002H65.4189C65.6655 102.003 65.9098 101.954 66.1377 101.86C66.3657 101.766 66.5728 101.628 66.7473 101.453C66.9218 101.279 67.0602 101.072 67.1546 100.844C67.2491 100.616 67.2977 100.372 67.2977 100.126C67.2977 99.879 67.2491 99.6348 67.1546 99.4069C67.0602 99.1791 66.9218 98.9721 66.7473 98.7978C66.5728 98.6235 66.3657 98.4853 66.1377 98.3911C65.9098 98.2969 65.6655 98.2486 65.4189 98.2488ZM13.4055 98.2488V82.9666H52.5496V98.2488H13.4055Z" fill="#CCCCCC"/>
<path d="M63.9428 118.036C59.2803 118.036 54.9318 117.734 51.6986 117.187C47.71 116.513 45.771 115.532 45.771 114.19L45.7732 114.148L52.7739 60.8409L49.269 50.7934C49.1008 50.3207 49.0504 49.8141 49.1222 49.3175C49.194 48.8209 49.3858 48.3493 49.681 47.9436C49.9694 47.5316 50.3551 47.1973 50.8038 46.9703C51.2526 46.7434 51.7505 46.6309 52.2532 46.6429L75.4627 46.8846C75.9547 46.8897 76.4385 47.011 76.8746 47.2386C77.3108 47.4662 77.687 47.7937 77.9726 48.1943C78.2582 48.5949 78.4451 49.0573 78.518 49.5439C78.5909 50.0304 78.5478 50.5273 78.3922 50.994L75.1112 60.8371L82.1133 114.149V114.169C82.114 115.616 79.9188 116.644 75.4023 117.31C70.9654 117.965 65.9103 118.036 63.9428 118.036Z" fill="white"/>
<path d="M63.9428 118.036C59.2803 118.036 54.9318 117.734 51.6986 117.187C47.71 116.513 45.771 115.532 45.771 114.19L45.7732 114.148L52.7739 60.8409L49.269 50.7934C49.1008 50.3207 49.0504 49.8141 49.1222 49.3175C49.194 48.8209 49.3858 48.3493 49.681 47.9436C49.9694 47.5316 50.3551 47.1973 50.8038 46.9703C51.2526 46.7434 51.7505 46.6309 52.2532 46.6429L75.4627 46.8846C75.9547 46.8897 76.4385 47.011 76.8746 47.2386C77.3108 47.4662 77.687 47.7937 77.9726 48.1943C78.2582 48.5949 78.4451 49.0573 78.518 49.5439C78.5909 50.0304 78.5478 50.5273 78.3922 50.994L75.1112 60.8371L82.1133 114.149V114.169C82.114 115.616 79.9188 116.644 75.4023 117.31C70.9654 117.965 65.9103 118.036 63.9428 118.036ZM52.1891 47.2799C51.7985 47.2795 51.4135 47.3734 51.067 47.5538C50.7205 47.7341 50.4227 47.9955 50.1989 48.3157C49.964 48.6385 49.8114 49.0137 49.7542 49.4089C49.6971 49.804 49.7372 50.2071 49.8711 50.5832L53.4259 60.7736L53.4161 60.8486L46.4074 114.211C46.4086 114.734 47.1097 115.764 51.8051 116.558C55.0042 117.1 59.3147 117.398 63.9428 117.398C68.0108 117.398 72.2601 117.129 75.3092 116.679C79.2045 116.105 81.4484 115.198 81.4753 114.189L74.4599 60.7748L77.7873 50.7924C77.9111 50.421 77.9454 50.0256 77.8873 49.6385C77.8293 49.2513 77.6806 48.8833 77.4534 48.5645C77.2261 48.2457 76.9268 47.9852 76.5797 47.804C76.2326 47.6229 75.8477 47.5263 75.4562 47.5222L52.2431 47.2805C52.2251 47.28 52.207 47.2799 52.1891 47.2799Z" fill="#3F3D56"/>
<path opacity="0.5" d="M77.1731 107.668H50.7124L54.907 79.3037L55.0213 78.5219L56.7688 66.7138C56.8754 65.9935 57.7047 66.5529 58.291 66.1211C61.9313 63.4403 65.6151 63.3626 69.331 65.9464C69.9054 66.3458 70.6988 65.8784 70.806 66.5697L72.6418 78.4136L72.8192 79.5593L77.1731 107.668Z" fill="#5483B3"/>
<path d="M73.9072 111.64H53.9498C53.4266 111.64 52.9095 111.527 52.4338 111.309C51.9581 111.091 51.5349 110.773 51.1931 110.377C50.8513 109.981 50.5988 109.516 50.453 109.014C50.3071 108.511 50.2712 107.983 50.3478 107.466L56.1787 68.0357C56.2088 67.8341 56.2916 67.644 56.4188 67.4847C56.546 67.3254 56.713 67.2025 56.9029 67.1285C57.0928 67.0544 57.2989 67.0319 57.5003 67.0631C57.7018 67.0943 57.8914 67.1782 58.05 67.3063C61.6037 70.1531 65.4768 70.0889 69.5615 67.1167C69.7199 67.0009 69.9056 66.9281 70.1005 66.9054C70.2954 66.8827 70.4928 66.9109 70.6736 66.9871C70.8581 67.0629 71.0199 67.1852 71.1431 67.342C71.2663 67.4989 71.3468 67.685 71.3767 67.8822L77.5056 107.441C77.586 107.96 77.5531 108.49 77.4092 108.996C77.2653 109.501 77.0138 109.969 76.672 110.368C76.3301 110.767 75.9061 111.087 75.4288 111.306C74.9516 111.526 74.4325 111.64 73.9072 111.64Z" fill="#5483B3"/>
<path d="M65.877 107.017H54.5381V107.655H65.877V107.017Z" fill="white"/>
<path d="M65.877 103.191H54.5381V103.829H65.877V103.191Z" fill="white"/>
<path d="M65.877 99.3657H54.5381V100.003H65.877V99.3657Z" fill="white"/>
<path d="M65.877 95.54H54.5381V96.1776H65.877V95.54Z" fill="white"/>
<path d="M65.877 91.7144H54.5381V92.352H65.877V91.7144Z" fill="white"/>
<path d="M73.3537 81.6784C72.4743 82.5517 71.4163 83.2244 70.2525 83.6503C69.0886 84.0763 67.8464 84.2453 66.611 84.146C65.2019 84.0185 63.9171 83.4924 62.6801 82.8293C61.4017 82.1439 60.1648 81.3246 58.7493 80.942C57.5091 80.6073 56.0395 80.5626 54.9747 81.3915C54.8876 81.459 54.7813 81.4969 54.6712 81.4997C54.5611 81.5026 54.453 81.4703 54.3625 81.4075L54.4837 80.5786C55.6696 79.7497 57.1106 79.6222 58.5229 79.9059C61.3667 80.4798 63.525 82.8325 66.4388 83.1705C67.6958 83.312 68.9682 83.139 70.1418 82.6671C71.3153 82.1953 72.3533 81.4392 73.1624 80.467L73.1656 80.4638L73.3537 81.6784Z" fill="white"/>
<path d="M139 118.052C139 118.086 138.993 118.12 138.98 118.152C138.967 118.183 138.948 118.212 138.924 118.236C138.9 118.26 138.872 118.279 138.84 118.292C138.808 118.305 138.775 118.312 138.741 118.312H0.276456C0.207668 118.312 0.141696 118.284 0.0930559 118.236C0.0444154 118.187 0.0170898 118.121 0.0170898 118.052C0.0170898 117.984 0.0444154 117.918 0.0930559 117.869C0.141696 117.82 0.207668 117.793 0.276456 117.793H138.741C138.775 117.793 138.808 117.8 138.84 117.813C138.872 117.826 138.9 117.845 138.924 117.869C138.948 117.893 138.967 117.922 138.98 117.953C138.993 117.985 139 118.018 139 118.052Z" fill="#CCCCCC"/>
<path d="M110.231 19.9005L117.683 19.2554L124.67 22.4491L128.593 76.7197L113.197 69.5996L106.592 71.4271L110.231 19.9005Z" fill="#F2F2F2"/>
<path d="M73.4505 19.8336C74.1728 19.8336 74.7583 19.2481 74.7583 18.5259C74.7583 17.8037 74.1728 17.2182 73.4505 17.2182C72.7283 17.2182 72.1428 17.8037 72.1428 18.5259C72.1428 19.2481 72.7283 19.8336 73.4505 19.8336Z" fill="#5483B3"/>
<path d="M71.2711 35.7443C71.9933 35.7443 72.5788 35.1588 72.5788 34.4366C72.5788 33.7143 71.9933 33.1288 71.2711 33.1288C70.5489 33.1288 69.9634 33.7143 69.9634 34.4366C69.9634 35.1588 70.5489 35.7443 71.2711 35.7443Z" fill="#5483B3"/>
<path d="M64.2965 45.1163C65.0187 45.1163 65.6042 44.5308 65.6042 43.8086C65.6042 43.0863 65.0187 42.5009 64.2965 42.5009C63.5743 42.5009 62.9888 43.0863 62.9888 43.8086C62.9888 44.5308 63.5743 45.1163 64.2965 45.1163Z" fill="#5483B3"/>
<path d="M96.9429 55.2484V41.2101C96.9432 40.926 97.0562 40.6536 97.2571 40.4527C97.458 40.2518 97.7304 40.1387 98.0146 40.1384H108.617C108.901 40.1387 109.173 40.2518 109.374 40.4527C109.575 40.6536 109.688 40.926 109.688 41.2101V55.2484C109.688 55.5326 109.575 55.805 109.374 56.0059C109.173 56.2068 108.901 56.3198 108.617 56.3202H98.0146C97.7304 56.3198 97.458 56.2068 97.2571 56.0059C97.0562 55.805 96.9432 55.5326 96.9429 55.2484Z" fill="#E6E6E6"/>
<path d="M97.7561 51.0083V41.9832C97.7564 41.7171 97.8622 41.462 98.0504 41.2738C98.2386 41.0856 98.4937 40.9798 98.7598 40.9795H107.871C108.137 40.9798 108.393 41.0856 108.581 41.2738C108.769 41.462 108.875 41.7171 108.875 41.9832V54.4754C108.875 54.7415 108.769 54.9966 108.581 55.1848C108.393 55.3729 108.137 55.4788 107.871 55.4791H102.227C101.042 55.4777 99.9052 55.0063 99.0671 54.1681C98.2289 53.33 97.7574 52.1936 97.7561 51.0083Z" fill="white"/>
<path d="M99.2314 44.5013C99.2317 44.2413 99.3352 43.992 99.519 43.8081C99.7029 43.6243 99.9522 43.5208 100.212 43.5206H106.533C106.793 43.5206 107.042 43.6239 107.226 43.8078C107.41 43.9918 107.514 44.2412 107.514 44.5013C107.514 44.7615 107.41 45.0109 107.226 45.1949C107.042 45.3788 106.793 45.4821 106.533 45.4821H100.212C99.9522 45.4819 99.7029 45.3784 99.519 45.1946C99.3352 45.0107 99.2317 44.7614 99.2314 44.5013Z" fill="#E6E6E6"/>
<path d="M99.2314 47.5527C99.2317 47.2927 99.3352 47.0434 99.519 46.8595C99.7029 46.6756 99.9522 46.5722 100.212 46.5719H106.533C106.793 46.5719 107.042 46.6752 107.226 46.8592C107.41 47.0431 107.514 47.2926 107.514 47.5527C107.514 47.8128 107.41 48.0623 107.226 48.2462C107.042 48.4302 106.793 48.5335 106.533 48.5335H100.212C99.9522 48.5332 99.7029 48.4298 99.519 48.2459C99.3352 48.062 99.2317 47.8127 99.2314 47.5527Z" fill="#E6E6E6"/>
<path d="M99.2314 50.6041C99.2317 50.344 99.3352 50.0947 99.519 49.9109C99.7029 49.727 99.9522 49.6236 100.212 49.6233H106.533C106.793 49.6233 107.042 49.7266 107.226 49.9105C107.41 50.0945 107.514 50.3439 107.514 50.6041C107.514 50.8642 107.41 51.1137 107.226 51.2976C107.042 51.4815 106.793 51.5849 106.533 51.5849H100.212C99.9522 51.5846 99.7029 51.4812 99.519 51.2973C99.3352 51.1134 99.2317 50.8641 99.2314 50.6041Z" fill="#E6E6E6"/>
<path d="M105.58 57.6704C105.878 57.5471 106.146 57.3598 106.364 57.1218C106.582 56.8839 106.746 56.601 106.843 56.293C106.94 55.9851 106.968 55.6596 106.926 55.3396C106.883 55.0195 106.771 54.7126 106.597 54.4405L114.285 47.4572L116.981 37.0256L112.195 36.6273L110.732 44.8133L103.402 53.8359C102.964 54.1581 102.66 54.6298 102.547 55.1614C102.434 55.6931 102.519 56.2478 102.788 56.7204C103.056 57.1931 103.489 57.5508 104.003 57.7259C104.518 57.901 105.079 57.8812 105.58 57.6704Z" fill="#FFB6B6"/>
<path d="M117.719 27.6048C117.719 27.6048 118.885 27.622 118.36 30.0373C117.939 31.9709 116.343 42.8523 115.07 45.2866C115.361 45.5383 115.561 45.8797 115.637 46.2572C115.713 46.6347 115.661 47.0268 115.49 47.3717L110.166 45.3063C109.702 44.0986 110.48 43.7232 110.977 43.6148L110.879 39.8265L111.642 30.1703L116.876 27.5773L117.719 27.6048Z" fill="#F2F2F2"/>
<path d="M119.287 9.72864C119.039 11.5398 118.081 13.1784 116.626 14.2842C115.17 15.39 113.335 15.8727 111.523 15.6262C109.712 15.3796 108.072 14.424 106.965 12.9694C105.858 11.5147 105.373 9.67997 105.618 7.86828L105.631 7.77038C105.917 5.98302 106.894 4.37962 108.351 3.30608C109.809 2.23253 111.63 1.77486 113.421 2.0318C115.213 2.28875 116.832 3.2397 117.929 4.67954C119.026 6.11938 119.513 7.9327 119.285 9.72835L119.287 9.72864Z" fill="#FFB8B8"/>
<path d="M117.531 13.2814C117.886 12.5618 118.249 11.7893 118.15 10.9936C118.05 10.1978 117.27 9.43714 116.504 9.67364C116.045 9.81506 115.699 10.2676 115.22 10.2907C114.561 10.3226 114.183 9.56828 113.978 8.94113L113.142 6.3869C112.34 7.01219 111.41 7.45265 110.417 7.67686C109.425 7.90107 108.396 7.90349 107.403 7.68394C106.627 7.50658 105.843 7.16077 105.388 6.50796C104.933 5.85514 104.936 4.84251 105.56 4.34886C105.866 4.10681 106.273 4.01485 106.566 3.75656C106.747 3.59634 106.872 3.38196 106.922 3.14516C106.972 2.90836 106.945 2.66171 106.844 2.44172C106.743 2.22172 106.574 2.04007 106.362 1.92365C106.15 1.80722 105.906 1.7622 105.666 1.79526L107.77 1.53233L107.143 0.398672C107.594 0.754707 108.223 0.802588 108.789 0.700677C109.355 0.598766 109.888 0.365722 110.442 0.21031C113.1 -0.535778 116.189 0.761458 117.518 3.18163C118.035 3.00876 118.593 2.99727 119.118 3.14868C119.642 3.30009 120.108 3.60725 120.454 4.02947C121.017 4.74425 121.17 5.69811 121.192 6.60782C121.233 8.40155 120.842 10.1788 120.052 11.7896C119.825 12.3013 119.5 12.7631 119.094 13.1485C118.89 13.3396 118.646 13.4836 118.38 13.5706C118.114 13.6575 117.833 13.6852 117.555 13.6518" fill="#2F2E41"/>
</g>
<defs>
<clipPath id="clip0_143_340">
<rect width="139" height="118.312" fill="white"/>
</clipPath>
</defs>
</svg>
