<svg width="117" height="117" viewBox="0 0 117 117" fill="none" xmlns="http://www.w3.org/2000/svg">
<g clip-path="url(#clip0_143_179)">
<path d="M117 58.5C117.02 72.3091 112.136 85.6767 103.217 96.2194C102.893 96.604 102.563 96.9825 102.227 97.359C98.273 101.806 93.6667 105.628 88.5658 108.693C87.3958 109.395 86.2002 110.057 84.9789 110.678C84.8554 110.741 84.7299 110.804 84.6064 110.865C84.4586 110.94 84.3089 111.012 84.1591 111.085C81.0686 112.598 77.8495 113.832 74.5399 114.773C74.1958 114.871 73.851 114.965 73.5056 115.057C69.152 116.209 64.6798 116.853 60.1781 116.978C59.9433 116.984 59.7125 116.988 59.4899 116.992C59.4109 116.994 59.334 116.996 59.2571 116.996C59.004 116.998 58.753 117 58.5 117C53.7561 117.004 49.0293 116.431 44.4236 115.294C43.9621 115.18 43.5026 115.061 43.0451 114.935C40.6354 114.277 38.2708 113.464 35.9664 112.5C34.7518 111.994 33.5589 111.448 32.3876 110.863C32.1224 110.729 31.8572 110.595 31.5961 110.458C31.4848 110.403 31.3754 110.344 31.2661 110.288C25.0231 106.993 19.4245 102.6 14.7384 97.3205C14.4145 96.9582 14.0967 96.5898 13.7829 96.2194C8.61969 90.0976 4.76825 82.9809 2.46715 75.3102C0.166044 67.6395 -0.535723 59.578 0.405312 51.625C1.34635 43.672 3.91015 35.9969 7.93792 29.0751C11.9657 22.1532 17.3717 16.132 23.8211 11.3842C24.153 11.1393 24.487 10.8964 24.8251 10.6596C24.8919 10.613 24.9587 10.5665 25.0255 10.5199C30.9652 6.35931 37.632 3.34861 44.6807 1.64368C45.0814 1.54449 45.4822 1.45138 45.8871 1.36434C53.5219 -0.305705 61.4122 -0.444001 69.1009 0.957469C69.5037 1.03237 69.9065 1.10929 70.3073 1.19228C77.293 2.62513 83.9556 5.33064 89.9625 9.17379C90.0961 9.2588 90.2297 9.34382 90.3633 9.43289C90.6325 9.60697 90.9017 9.7851 91.1669 9.96525C99.1243 15.3149 105.643 22.5405 110.148 31.0047C114.653 39.4688 117.006 48.9116 117 58.5Z" fill="#F2F2F2"/>
<path d="M43.7233 88.7641L25.0256 90.4239L24.8252 90.4421V10.6595C24.892 10.613 24.9588 10.5664 25.0256 10.5199C28.9224 7.7942 33.1377 5.55501 37.5778 3.8521L38.5332 17.0298L38.6203 18.2362L39.5656 31.3046L39.8571 35.3247L43.6889 88.2985L43.7233 88.7641Z" fill="#CCCCCC"/>
<path d="M89.9624 9.17378C90.096 9.2588 90.2296 9.34381 90.3632 9.43288V90.4422L89.9624 90.4058L71.467 88.7642L71.5014 88.2986L75.3333 35.3247L75.6248 31.3046L76.5701 18.2362L76.6572 17.0298L77.6591 3.21042C81.9801 4.70821 86.1097 6.70979 89.9624 9.17378Z" fill="#CCCCCC"/>
<path d="M89.9626 9.17378V91.5475C89.9626 93.1284 88.8736 94.4138 87.5335 94.4138H27.4546C26.3453 94.4138 25.404 93.5312 25.1186 92.3268C25.0563 92.0718 25.025 91.8101 25.0255 91.5475V10.5199C24.9587 10.5665 24.8919 10.613 24.8251 10.6596C24.487 10.8964 24.153 11.1393 23.8211 11.3842V91.5475C23.8031 92.7483 24.2516 93.9093 25.072 94.7863C25.5023 95.237 26.0465 95.563 26.6469 95.7295C26.9101 95.8011 27.1818 95.8372 27.4546 95.8368H87.5335C87.807 95.8371 88.0793 95.801 88.3432 95.7295C89.9585 95.2943 91.167 93.5859 91.167 91.5475V9.96525C90.9018 9.7851 90.6326 9.60697 90.3634 9.43288C90.2298 9.34382 90.0962 9.2588 89.9626 9.17378Z" fill="#CCCCCC"/>
<path d="M90.5652 17.0306H24.4233V18.2368H90.5652V17.0306Z" fill="#CCCCCC"/>
<path d="M44.6807 1.64366C45.0815 1.54447 45.4823 1.45136 45.8871 1.36432V34.1182H44.6807V1.64366Z" fill="#CCCCCC"/>
<path d="M69.1008 0.957458C69.5036 1.03235 69.9065 1.10928 70.3073 1.19227V34.1183H69.1008V0.957458Z" fill="#CCCCCC"/>
<path d="M98.1039 88.2985H18.8941C17.4542 88.2985 16.0733 88.8705 15.0552 89.8886C14.0371 90.9067 13.4651 92.2876 13.4651 93.7275C13.4651 95.1673 14.0371 96.5482 15.0552 97.5663C16.0733 98.5845 17.4542 99.1564 18.8941 99.1564H98.1039C98.8749 99.1566 99.637 98.9922 100.339 98.6742C101.042 98.3562 101.668 97.8919 102.177 97.3124C102.407 97.0504 102.611 96.7671 102.788 96.4662C102.924 96.2356 103.043 95.9947 103.142 95.7456C103.473 94.922 103.596 94.0298 103.502 93.1473C103.408 92.2649 103.098 91.419 102.601 90.6839C102.104 89.9488 101.434 89.3469 100.65 88.931C99.8655 88.5152 98.9914 88.298 98.1039 88.2985Z" fill="#CCCCCC"/>
<path d="M90.5652 31.3044H24.8254V35.3251H90.5652V31.3044Z" fill="#CCCCCC"/>
<path d="M57.0923 30.0981H58.2985C58.5889 30.0981 58.8765 30.1553 59.1448 30.2665C59.4131 30.3776 59.6569 30.5405 59.8622 30.7459C60.0676 30.9512 60.2305 31.195 60.3416 31.4633C60.4528 31.7316 60.51 32.0192 60.51 32.3096H54.8809C54.8809 31.7231 55.1138 31.1606 55.5286 30.7459C55.9433 30.3311 56.5058 30.0981 57.0923 30.0981Z" fill="#CCCCCC"/>
<path d="M103.217 96.2194C101.459 98.303 99.5565 100.261 97.5249 102.079H19.4751C17.4435 100.261 15.5415 98.303 13.783 96.2194H103.217Z" fill="#3F3D56"/>
<path d="M65.0343 75.9225H51.893C51.8222 75.9217 51.7518 75.9326 51.6845 75.9548C51.5419 75.9989 51.4171 76.0876 51.3286 76.2078C51.24 76.3281 51.1924 76.4735 51.1926 76.6228V97.3833H65.7367V76.6228C65.7366 76.5307 65.7183 76.4395 65.683 76.3544C65.6476 76.2694 65.5959 76.1921 65.5306 76.1271C65.4654 76.062 65.388 76.0105 65.3028 75.9754C65.2176 75.9403 65.1264 75.9223 65.0343 75.9225ZM60.0607 86.165C60.0612 86.5018 59.9502 86.8292 59.745 87.0962C59.5491 87.3553 59.2769 87.5464 58.9667 87.6426C58.6565 87.7388 58.3239 87.7352 58.0159 87.6324C57.7078 87.5296 57.4398 87.3326 57.2495 87.0694C57.0593 86.8061 56.9565 86.4898 56.9556 86.165V83.7562C56.9594 83.3469 57.1246 82.9557 57.4154 82.6676C57.7061 82.3796 58.0989 82.218 58.5082 82.218C58.9175 82.218 59.3102 82.3796 59.6009 82.6676C59.8917 82.9557 60.057 83.3469 60.0607 83.7562V86.165Z" fill="#2F2E41"/>
<path d="M51.1479 96.7194V98.7213C51.1479 98.8251 51.189 98.9247 51.2622 98.9983C51.3354 99.0719 51.4348 99.1135 51.5386 99.114H65.3904C65.4941 99.1132 65.5932 99.0714 65.6664 98.9979C65.7395 98.9244 65.7807 98.825 65.781 98.7213V96.7194H51.1479Z" fill="#3F3D56"/>
<path d="M86.7945 43.5249H30.6223C30.1397 43.5255 29.677 43.7173 29.3355 44.0584C28.9941 44.3995 28.8017 44.862 28.8005 45.3446V83.2503C28.8009 83.7333 28.993 84.1965 29.3346 84.538C29.6761 84.8796 30.1393 85.0717 30.6223 85.0721H86.7945C87.2775 85.0717 87.7407 84.8796 88.0823 84.538C88.4238 84.1965 88.6159 83.7333 88.6163 83.2503V45.3446C88.6151 44.862 88.4228 44.3995 88.0813 44.0584C87.7398 43.7173 87.2771 43.5255 86.7945 43.5249Z" fill="#3F3D56"/>
<path d="M86.325 44.8406H31.0901C30.8317 44.8412 30.5841 44.9442 30.4015 45.1271C30.219 45.31 30.1165 45.5579 30.1165 45.8163V82.7826C30.1169 83.0407 30.2196 83.2881 30.4021 83.4706C30.5846 83.6531 30.832 83.7559 31.0901 83.7563H86.325C86.5831 83.7559 86.8305 83.6531 87.013 83.4706C87.1955 83.2881 87.2982 83.0407 87.2987 82.7826V45.8163C87.2987 45.5579 87.1961 45.31 87.0136 45.1271C86.8311 44.9442 86.5834 44.8412 86.325 44.8406Z" fill="#5483B3"/>
<path d="M76.1593 99.0815L75.6492 96.6585C75.6281 96.5597 75.5826 96.4677 75.5168 96.391C75.451 96.3143 75.3671 96.2553 75.2727 96.2193C75.2044 96.1924 75.1316 96.1787 75.0581 96.1788H43.2151C43.1417 96.1787 43.0689 96.1924 43.0005 96.2193C42.9061 96.2553 42.8222 96.3143 42.7565 96.391C42.6907 96.4677 42.6452 96.5597 42.624 96.6585L42.1139 99.0815C42.0955 99.1695 42.0969 99.2604 42.118 99.3478C42.1392 99.4351 42.1795 99.5167 42.2361 99.5865C42.2927 99.6562 42.3642 99.7125 42.4453 99.7513C42.5264 99.79 42.6151 99.8101 42.705 99.8102H75.5662C75.6564 99.8107 75.7455 99.7907 75.8268 99.7518C75.9082 99.7129 75.9796 99.656 76.0358 99.5855C76.0926 99.516 76.1331 99.4346 76.1544 99.3474C76.1758 99.2603 76.1775 99.1694 76.1593 99.0815Z" fill="#2F2E41"/>
<path d="M44.3618 96.6152H43.5473C43.4927 96.6152 43.4485 96.6595 43.4485 96.7141V97.1237C43.4485 97.1783 43.4927 97.2225 43.5473 97.2225H44.3618C44.4164 97.2225 44.4606 97.1783 44.4606 97.1237V96.7141C44.4606 96.6595 44.4164 96.6152 44.3618 96.6152Z" fill="#3F3D56"/>
<path d="M46.3859 96.6152H45.5715C45.5169 96.6152 45.4727 96.6595 45.4727 96.7141V97.1237C45.4727 97.1783 45.5169 97.2225 45.5715 97.2225H46.3859C46.4405 97.2225 46.4848 97.1783 46.4848 97.1237V96.7141C46.4848 96.6595 46.4405 96.6152 46.3859 96.6152Z" fill="#3F3D56"/>
<path d="M48.4104 96.6152H47.5959C47.5413 96.6152 47.4971 96.6595 47.4971 96.7141V97.1237C47.4971 97.1783 47.5413 97.2225 47.5959 97.2225H48.4104C48.4649 97.2225 48.5092 97.1783 48.5092 97.1237V96.7141C48.5092 96.6595 48.4649 96.6152 48.4104 96.6152Z" fill="#3F3D56"/>
<path d="M50.4345 96.6152H49.6201C49.5655 96.6152 49.5212 96.6595 49.5212 96.7141V97.1237C49.5212 97.1783 49.5655 97.2225 49.6201 97.2225H50.4345C50.4891 97.2225 50.5334 97.1783 50.5334 97.1237V96.7141C50.5334 96.6595 50.4891 96.6152 50.4345 96.6152Z" fill="#3F3D56"/>
<path d="M52.4587 96.6152H51.6442C51.5897 96.6152 51.5454 96.6595 51.5454 96.7141V97.1237C51.5454 97.1783 51.5897 97.2225 51.6442 97.2225H52.4587C52.5133 97.2225 52.5575 97.1783 52.5575 97.1237V96.7141C52.5575 96.6595 52.5133 96.6152 52.4587 96.6152Z" fill="#3F3D56"/>
<path d="M54.4829 96.6152H53.6684C53.6138 96.6152 53.5696 96.6595 53.5696 96.7141V97.1237C53.5696 97.1783 53.6138 97.2225 53.6684 97.2225H54.4829C54.5374 97.2225 54.5817 97.1783 54.5817 97.1237V96.7141C54.5817 96.6595 54.5374 96.6152 54.4829 96.6152Z" fill="#3F3D56"/>
<path d="M56.507 96.6152H55.6926C55.638 96.6152 55.5938 96.6595 55.5938 96.7141V97.1237C55.5938 97.1783 55.638 97.2225 55.6926 97.2225H56.507C56.5616 97.2225 56.6059 97.1783 56.6059 97.1237V96.7141C56.6059 96.6595 56.5616 96.6152 56.507 96.6152Z" fill="#3F3D56"/>
<path d="M58.5315 96.6152H57.717C57.6624 96.6152 57.6182 96.6595 57.6182 96.7141V97.1237C57.6182 97.1783 57.6624 97.2225 57.717 97.2225H58.5315C58.586 97.2225 58.6303 97.1783 58.6303 97.1237V96.7141C58.6303 96.6595 58.586 96.6152 58.5315 96.6152Z" fill="#3F3D56"/>
<path d="M60.5556 96.6152H59.7412C59.6866 96.6152 59.6423 96.6595 59.6423 96.7141V97.1237C59.6423 97.1783 59.6866 97.2225 59.7412 97.2225H60.5556C60.6102 97.2225 60.6544 97.1783 60.6544 97.1237V96.7141C60.6544 96.6595 60.6102 96.6152 60.5556 96.6152Z" fill="#3F3D56"/>
<path d="M62.5798 96.6152H61.7653C61.7107 96.6152 61.6665 96.6595 61.6665 96.7141V97.1237C61.6665 97.1783 61.7107 97.2225 61.7653 97.2225H62.5798C62.6344 97.2225 62.6786 97.1783 62.6786 97.1237V96.7141C62.6786 96.6595 62.6344 96.6152 62.5798 96.6152Z" fill="#3F3D56"/>
<path d="M64.604 96.6152H63.7895C63.7349 96.6152 63.6907 96.6595 63.6907 96.7141V97.1237C63.6907 97.1783 63.7349 97.2225 63.7895 97.2225H64.604C64.6585 97.2225 64.7028 97.1783 64.7028 97.1237V96.7141C64.7028 96.6595 64.6585 96.6152 64.604 96.6152Z" fill="#3F3D56"/>
<path d="M66.6281 96.6152H65.8137C65.7591 96.6152 65.7148 96.6595 65.7148 96.7141V97.1237C65.7148 97.1783 65.7591 97.2225 65.8137 97.2225H66.6281C66.6827 97.2225 66.727 97.1783 66.727 97.1237V96.7141C66.727 96.6595 66.6827 96.6152 66.6281 96.6152Z" fill="#3F3D56"/>
<path d="M68.6525 96.6152H67.8381C67.7835 96.6152 67.7393 96.6595 67.7393 96.7141V97.1237C67.7393 97.1783 67.7835 97.2225 67.8381 97.2225H68.6525C68.7071 97.2225 68.7514 97.1783 68.7514 97.1237V96.7141C68.7514 96.6595 68.7071 96.6152 68.6525 96.6152Z" fill="#3F3D56"/>
<path d="M70.6767 96.6152H69.8622C69.8077 96.6152 69.7634 96.6595 69.7634 96.7141V97.1237C69.7634 97.1783 69.8077 97.2225 69.8622 97.2225H70.6767C70.7313 97.2225 70.7755 97.1783 70.7755 97.1237V96.7141C70.7755 96.6595 70.7313 96.6152 70.6767 96.6152Z" fill="#3F3D56"/>
<path d="M72.7009 96.6152H71.8864C71.8318 96.6152 71.7876 96.6595 71.7876 96.7141V97.1237C71.7876 97.1783 71.8318 97.2225 71.8864 97.2225H72.7009C72.7555 97.2225 72.7997 97.1783 72.7997 97.1237V96.7141C72.7997 96.6595 72.7555 96.6152 72.7009 96.6152Z" fill="#3F3D56"/>
<path d="M74.7253 96.6152H73.9108C73.8563 96.6152 73.812 96.6595 73.812 96.7141V97.1237C73.812 97.1783 73.8563 97.2225 73.9108 97.2225H74.7253C74.7799 97.2225 74.8241 97.1783 74.8241 97.1237V96.7141C74.8241 96.6595 74.7799 96.6152 74.7253 96.6152Z" fill="#3F3D56"/>
<path d="M44.3379 97.6274H43.5234C43.4688 97.6274 43.4246 97.6717 43.4246 97.7263V98.1359C43.4246 98.1905 43.4688 98.2347 43.5234 98.2347H44.3379C44.3924 98.2347 44.4367 98.1905 44.4367 98.1359V97.7263C44.4367 97.6717 44.3924 97.6274 44.3379 97.6274Z" fill="#3F3D56"/>
<path d="M46.362 97.6274H45.5476C45.493 97.6274 45.4487 97.6717 45.4487 97.7263V98.1359C45.4487 98.1905 45.493 98.2347 45.5476 98.2347H46.362C46.4166 98.2347 46.4608 98.1905 46.4608 98.1359V97.7263C46.4608 97.6717 46.4166 97.6274 46.362 97.6274Z" fill="#3F3D56"/>
<path d="M48.3862 97.6274H47.5717C47.5171 97.6274 47.4729 97.6717 47.4729 97.7263V98.1359C47.4729 98.1905 47.5171 98.2347 47.5717 98.2347H48.3862C48.4408 98.2347 48.485 98.1905 48.485 98.1359V97.7263C48.485 97.6717 48.4408 97.6274 48.3862 97.6274Z" fill="#3F3D56"/>
<path d="M50.4106 97.6274H49.5961C49.5416 97.6274 49.4973 97.6717 49.4973 97.7263V98.1359C49.4973 98.1905 49.5416 98.2347 49.5961 98.2347H50.4106C50.4652 98.2347 50.5094 98.1905 50.5094 98.1359V97.7263C50.5094 97.6717 50.4652 97.6274 50.4106 97.6274Z" fill="#3F3D56"/>
<path d="M52.4348 97.6274H51.6203C51.5657 97.6274 51.5215 97.6717 51.5215 97.7263V98.1359C51.5215 98.1905 51.5657 98.2347 51.6203 98.2347H52.4348C52.4894 98.2347 52.5336 98.1905 52.5336 98.1359V97.7263C52.5336 97.6717 52.4894 97.6274 52.4348 97.6274Z" fill="#3F3D56"/>
<path d="M54.4589 97.6274H53.6445C53.5899 97.6274 53.5457 97.6717 53.5457 97.7263V98.1359C53.5457 98.1905 53.5899 98.2347 53.6445 98.2347H54.4589C54.5135 98.2347 54.5578 98.1905 54.5578 98.1359V97.7263C54.5578 97.6717 54.5135 97.6274 54.4589 97.6274Z" fill="#3F3D56"/>
<path d="M56.4831 97.6274H55.6686C55.6141 97.6274 55.5698 97.6717 55.5698 97.7263V98.1359C55.5698 98.1905 55.6141 98.2347 55.6686 98.2347H56.4831C56.5377 98.2347 56.5819 98.1905 56.5819 98.1359V97.7263C56.5819 97.6717 56.5377 97.6274 56.4831 97.6274Z" fill="#3F3D56"/>
<path d="M58.5075 97.6274H57.6931C57.6385 97.6274 57.5942 97.6717 57.5942 97.7263V98.1359C57.5942 98.1905 57.6385 98.2347 57.6931 98.2347H58.5075C58.5621 98.2347 58.6063 98.1905 58.6063 98.1359V97.7263C58.6063 97.6717 58.5621 97.6274 58.5075 97.6274Z" fill="#3F3D56"/>
<path d="M60.5317 97.6274H59.7172C59.6627 97.6274 59.6184 97.6717 59.6184 97.7263V98.1359C59.6184 98.1905 59.6627 98.2347 59.7172 98.2347H60.5317C60.5863 98.2347 60.6305 98.1905 60.6305 98.1359V97.7263C60.6305 97.6717 60.5863 97.6274 60.5317 97.6274Z" fill="#3F3D56"/>
<path d="M62.5559 97.6274H61.7414C61.6868 97.6274 61.6426 97.6717 61.6426 97.7263V98.1359C61.6426 98.1905 61.6868 98.2347 61.7414 98.2347H62.5559C62.6104 98.2347 62.6547 98.1905 62.6547 98.1359V97.7263C62.6547 97.6717 62.6104 97.6274 62.5559 97.6274Z" fill="#3F3D56"/>
<path d="M64.58 97.6274H63.7656C63.711 97.6274 63.6667 97.6717 63.6667 97.7263V98.1359C63.6667 98.1905 63.711 98.2347 63.7656 98.2347H64.58C64.6346 98.2347 64.6789 98.1905 64.6789 98.1359V97.7263C64.6789 97.6717 64.6346 97.6274 64.58 97.6274Z" fill="#3F3D56"/>
<path d="M66.6042 97.6274H65.7897C65.7352 97.6274 65.6909 97.6717 65.6909 97.7263V98.1359C65.6909 98.1905 65.7352 98.2347 65.7897 98.2347H66.6042C66.6588 98.2347 66.703 98.1905 66.703 98.1359V97.7263C66.703 97.6717 66.6588 97.6274 66.6042 97.6274Z" fill="#3F3D56"/>
<path d="M68.6284 97.6274H67.8139C67.7593 97.6274 67.7151 97.6717 67.7151 97.7263V98.1359C67.7151 98.1905 67.7593 98.2347 67.8139 98.2347H68.6284C68.683 98.2347 68.7272 98.1905 68.7272 98.1359V97.7263C68.7272 97.6717 68.683 97.6274 68.6284 97.6274Z" fill="#3F3D56"/>
<path d="M70.6528 97.6274H69.8383C69.7837 97.6274 69.7395 97.6717 69.7395 97.7263V98.1359C69.7395 98.1905 69.7837 98.2347 69.8383 98.2347H70.6528C70.7074 98.2347 70.7516 98.1905 70.7516 98.1359V97.7263C70.7516 97.6717 70.7074 97.6274 70.6528 97.6274Z" fill="#3F3D56"/>
<path d="M72.677 97.6274H71.8625C71.8079 97.6274 71.7637 97.6717 71.7637 97.7263V98.1359C71.7637 98.1905 71.8079 98.2347 71.8625 98.2347H72.677C72.7315 98.2347 72.7758 98.1905 72.7758 98.1359V97.7263C72.7758 97.6717 72.7315 97.6274 72.677 97.6274Z" fill="#3F3D56"/>
<path d="M74.7011 97.6274H73.8867C73.8321 97.6274 73.7878 97.6717 73.7878 97.7263V98.1359C73.7878 98.1905 73.8321 98.2347 73.8867 98.2347H74.7011C74.7557 98.2347 74.8 98.1905 74.8 98.1359V97.7263C74.8 97.6717 74.7557 97.6274 74.7011 97.6274Z" fill="#3F3D56"/>
<path d="M61.1389 98.8419H53.2397C53.1851 98.8419 53.1409 98.8861 53.1409 98.9407V99.3503C53.1409 99.4049 53.1851 99.4491 53.2397 99.4491H61.1389C61.1935 99.4491 61.2377 99.4049 61.2377 99.3503V98.9407C61.2377 98.8861 61.1935 98.8419 61.1389 98.8419Z" fill="#3F3D56"/>
<path d="M83.5495 49.9328H31.8663C31.8126 49.9316 31.7615 49.9095 31.7239 49.871C31.6863 49.8326 31.6653 49.781 31.6653 49.7273C31.6653 49.6735 31.6863 49.6219 31.7239 49.5835C31.7615 49.5451 31.8126 49.5229 31.8663 49.5218H83.5495C83.6032 49.5229 83.6543 49.5451 83.6919 49.5835C83.7295 49.6219 83.7505 49.6735 83.7505 49.7273C83.7505 49.781 83.7295 49.8326 83.6919 49.871C83.6543 49.9095 83.6032 49.9316 83.5495 49.9328Z" fill="#3F3D56"/>
<path d="M35.3844 48.4724C36.0497 48.4724 36.5889 47.9211 36.5889 47.241C36.5889 46.561 36.0497 46.0097 35.3844 46.0097C34.7192 46.0097 34.1799 46.561 34.1799 47.241C34.1799 47.9211 34.7192 48.4724 35.3844 48.4724Z" fill="#3F3D56"/>
<path d="M39.5453 48.4724C40.2105 48.4724 40.7498 47.9211 40.7498 47.241C40.7498 46.561 40.2105 46.0097 39.5453 46.0097C38.8801 46.0097 38.3408 46.561 38.3408 47.241C38.3408 47.9211 38.8801 48.4724 39.5453 48.4724Z" fill="#3F3D56"/>
<path d="M43.7065 48.4724C44.3717 48.4724 44.9109 47.9211 44.9109 47.241C44.9109 46.561 44.3717 46.0097 43.7065 46.0097C43.0412 46.0097 42.502 46.561 42.502 47.241C42.502 47.9211 43.0412 48.4724 43.7065 48.4724Z" fill="#3F3D56"/>
<path d="M81.0438 46.3142H78.0884C78.03 46.3156 77.9744 46.3397 77.9336 46.3815C77.8927 46.4233 77.8699 46.4794 77.8699 46.5379C77.8699 46.5963 77.8927 46.6524 77.9336 46.6942C77.9744 46.736 78.03 46.7602 78.0884 46.7616H81.0438C81.1025 46.7607 81.1586 46.7368 81.1999 46.6949C81.2412 46.6531 81.2643 46.5967 81.2643 46.5379C81.2643 46.4791 81.2412 46.4227 81.1999 46.3808C81.1586 46.339 81.1025 46.315 81.0438 46.3142Z" fill="#3F3D56"/>
<path d="M81.0438 47.1543H78.0884C78.03 47.1556 77.9743 47.1797 77.9334 47.2215C77.8925 47.2633 77.8696 47.3195 77.8696 47.3779C77.8696 47.4364 77.8925 47.4926 77.9334 47.5344C77.9743 47.5762 78.03 47.6003 78.0884 47.6016H81.0438C81.1026 47.6009 81.1588 47.577 81.2002 47.5352C81.2416 47.4933 81.2648 47.4368 81.2648 47.3779C81.2648 47.3191 81.2416 47.2626 81.2002 47.2207C81.1588 47.1789 81.1026 47.155 81.0438 47.1543Z" fill="#3F3D56"/>
<path d="M81.0438 47.9943H78.0884C78.03 47.9957 77.9744 48.0198 77.9336 48.0616C77.8927 48.1034 77.8699 48.1595 77.8699 48.218C77.8699 48.2764 77.8927 48.3325 77.9336 48.3743C77.9744 48.4161 78.03 48.4403 78.0884 48.4417H81.0438C81.1025 48.4408 81.1586 48.4169 81.1999 48.375C81.2412 48.3332 81.2643 48.2768 81.2643 48.218C81.2643 48.1592 81.2412 48.1028 81.1999 48.0609C81.1586 48.0191 81.1025 47.9951 81.0438 47.9943Z" fill="#3F3D56"/>
<path d="M36.3226 54.7093H35.2607C34.9387 54.7093 34.6777 54.9703 34.6777 55.2923C34.6777 55.6142 34.9387 55.8753 35.2607 55.8753H36.3226C36.6446 55.8753 36.9056 55.6142 36.9056 55.2923C36.9056 54.9703 36.6446 54.7093 36.3226 54.7093Z" fill="#E6E6E6"/>
<path d="M48.4681 54.7093H47.4062C47.0842 54.7093 46.8232 54.9703 46.8232 55.2923C46.8232 55.6142 47.0842 55.8753 47.4062 55.8753H48.4681C48.7901 55.8753 49.0511 55.6142 49.0511 55.2923C49.0511 54.9703 48.7901 54.7093 48.4681 54.7093Z" fill="#E6E6E6"/>
<path d="M51.9093 54.7093H50.8474C50.5254 54.7093 50.2644 54.9703 50.2644 55.2923C50.2644 55.6142 50.5254 55.8753 50.8474 55.8753H51.9093C52.2313 55.8753 52.4923 55.6142 52.4923 55.2923C52.4923 54.9703 52.2313 54.7093 51.9093 54.7093Z" fill="#E6E6E6"/>
<path d="M45.1645 54.6121H38.5644C38.2425 54.6121 37.9814 54.8731 37.9814 55.1951C37.9814 55.517 38.2425 55.778 38.5644 55.778H45.1645C45.4865 55.778 45.7475 55.517 45.7475 55.1951C45.7475 54.8731 45.4865 54.6121 45.1645 54.6121Z" fill="#E6E6E6"/>
<path d="M61.3581 54.6121H54.758C54.436 54.6121 54.175 54.8731 54.175 55.1951C54.175 55.517 54.436 55.778 54.758 55.778H61.3581C61.6801 55.778 61.9411 55.517 61.9411 55.1951C61.9411 54.8731 61.6801 54.6121 61.3581 54.6121Z" fill="#E6E6E6"/>
<path d="M39.5614 57.3408H38.4995C38.1775 57.3408 37.9165 57.6018 37.9165 57.9238C37.9165 58.2457 38.1775 58.5068 38.4995 58.5068H39.5614C39.8834 58.5068 40.1444 58.2457 40.1444 57.9238C40.1444 57.6018 39.8834 57.3408 39.5614 57.3408Z" fill="#E6E6E6"/>
<path d="M51.7067 57.3408H50.6447C50.3228 57.3408 50.0618 57.6018 50.0618 57.9238C50.0618 58.2457 50.3228 58.5068 50.6447 58.5068H51.7067C52.0286 58.5068 52.2896 58.2457 52.2896 57.9238C52.2896 57.6018 52.0286 57.3408 51.7067 57.3408Z" fill="#E6E6E6"/>
<path d="M55.1478 57.3408H54.0859C53.7639 57.3408 53.5029 57.6018 53.5029 57.9238C53.5029 58.2457 53.7639 58.5068 54.0859 58.5068H55.1478C55.4698 58.5068 55.7308 58.2457 55.7308 57.9238C55.7308 57.6018 55.4698 57.3408 55.1478 57.3408Z" fill="#E6E6E6"/>
<path d="M48.4031 57.2436H41.8029C41.481 57.2436 41.22 57.5046 41.22 57.8266C41.22 58.1485 41.481 58.4096 41.8029 58.4096H48.4031C48.725 58.4096 48.986 58.1485 48.986 57.8266C48.986 57.5046 48.725 57.2436 48.4031 57.2436Z" fill="#E6E6E6"/>
<path d="M64.5969 57.2436H57.9968C57.6748 57.2436 57.4138 57.5046 57.4138 57.8266C57.4138 58.1485 57.6748 58.4096 57.9968 58.4096H64.5969C64.9189 58.4096 65.1799 58.1485 65.1799 57.8266C65.1799 57.5046 64.9189 57.2436 64.5969 57.2436Z" fill="#E6E6E6"/>
<path d="M42.8002 59.9723H41.7382C41.4163 59.9723 41.1553 60.2333 41.1553 60.5553C41.1553 60.8772 41.4163 61.1383 41.7382 61.1383H42.8002C43.1221 61.1383 43.3831 60.8772 43.3831 60.5553C43.3831 60.2333 43.1221 59.9723 42.8002 59.9723Z" fill="#E6E6E6"/>
<path d="M54.9454 59.9723H53.8835C53.5615 59.9723 53.3005 60.2333 53.3005 60.5553C53.3005 60.8772 53.5615 61.1383 53.8835 61.1383H54.9454C55.2674 61.1383 55.5284 60.8772 55.5284 60.5553C55.5284 60.2333 55.2674 59.9723 54.9454 59.9723Z" fill="#E6E6E6"/>
<path d="M58.3866 59.9723H57.3247C57.0027 59.9723 56.7417 60.2333 56.7417 60.5553C56.7417 60.8772 57.0027 61.1383 57.3247 61.1383H58.3866C58.7086 61.1383 58.9696 60.8772 58.9696 60.5553C58.9696 60.2333 58.7086 59.9723 58.3866 59.9723Z" fill="#E6E6E6"/>
<path d="M51.6421 59.8751H45.042C44.72 59.8751 44.459 60.1361 44.459 60.4581C44.459 60.78 44.72 61.041 45.042 61.041H51.6421C51.964 61.041 52.2251 60.78 52.2251 60.4581C52.2251 60.1361 51.964 59.8751 51.6421 59.8751Z" fill="#E6E6E6"/>
<path d="M67.8357 59.8751H61.2356C60.9136 59.8751 60.6526 60.1361 60.6526 60.4581C60.6526 60.78 60.9136 61.041 61.2356 61.041H67.8357C68.1576 61.041 68.4187 60.78 68.4187 60.4581C68.4187 60.1361 68.1576 59.8751 67.8357 59.8751Z" fill="#E6E6E6"/>
<path d="M46.0389 62.6038H44.977C44.655 62.6038 44.394 62.8648 44.394 63.1868C44.394 63.5088 44.655 63.7698 44.977 63.7698H46.0389C46.3609 63.7698 46.6219 63.5088 46.6219 63.1868C46.6219 62.8648 46.3609 62.6038 46.0389 62.6038Z" fill="#E6E6E6"/>
<path d="M58.1842 62.6038H57.1223C56.8003 62.6038 56.5393 62.8648 56.5393 63.1868C56.5393 63.5088 56.8003 63.7698 57.1223 63.7698H58.1842C58.5062 63.7698 58.7672 63.5088 58.7672 63.1868C58.7672 62.8648 58.5062 62.6038 58.1842 62.6038Z" fill="#E6E6E6"/>
<path d="M61.6254 62.6038H60.5634C60.2415 62.6038 59.9805 62.8648 59.9805 63.1868C59.9805 63.5088 60.2415 63.7698 60.5634 63.7698H61.6254C61.9473 63.7698 62.2083 63.5088 62.2083 63.1868C62.2083 62.8648 61.9473 62.6038 61.6254 62.6038Z" fill="#E6E6E6"/>
<path d="M54.8806 62.5066H48.2805C47.9585 62.5066 47.6975 62.7676 47.6975 63.0896C47.6975 63.4115 47.9585 63.6725 48.2805 63.6725H54.8806C55.2026 63.6725 55.4636 63.4115 55.4636 63.0896C55.4636 62.7676 55.2026 62.5066 54.8806 62.5066Z" fill="#E6E6E6"/>
<path d="M48.4681 73.0676H47.4062C47.0842 73.0676 46.8232 73.3286 46.8232 73.6506C46.8232 73.9726 47.0842 74.2336 47.4062 74.2336H48.4681C48.7901 74.2336 49.0511 73.9726 49.0511 73.6506C49.0511 73.3286 48.7901 73.0676 48.4681 73.0676Z" fill="#E6E6E6"/>
<path d="M51.9093 73.0676H50.8474C50.5254 73.0676 50.2644 73.3286 50.2644 73.6506C50.2644 73.9726 50.5254 74.2336 50.8474 74.2336H51.9093C52.2313 74.2336 52.4923 73.9726 52.4923 73.6506C52.4923 73.3286 52.2313 73.0676 51.9093 73.0676Z" fill="#E6E6E6"/>
<path d="M61.3581 73.1648H54.758C54.436 73.1648 54.175 73.4258 54.175 73.7478C54.175 74.0697 54.436 74.3307 54.758 74.3307H61.3581C61.6801 74.3307 61.9411 74.0697 61.9411 73.7478C61.9411 73.4258 61.6801 73.1648 61.3581 73.1648Z" fill="#E6E6E6"/>
<path d="M36.3226 73.0676H35.2607C34.9387 73.0676 34.6777 73.3286 34.6777 73.6506C34.6777 73.9726 34.9387 74.2336 35.2607 74.2336H36.3226C36.6446 74.2336 36.9056 73.9726 36.9056 73.6506C36.9056 73.3286 36.6446 73.0676 36.3226 73.0676Z" fill="#E6E6E6"/>
<path d="M45.1645 73.1648H38.5644C38.2425 73.1648 37.9814 73.4258 37.9814 73.7478C37.9814 74.0697 38.2425 74.3307 38.5644 74.3307H45.1645C45.4865 74.3307 45.7475 74.0697 45.7475 73.7478C45.7475 73.4258 45.4865 73.1648 45.1645 73.1648Z" fill="#E6E6E6"/>
<path d="M39.5614 70.4361H38.4995C38.1775 70.4361 37.9165 70.6971 37.9165 71.0191C37.9165 71.3411 38.1775 71.6021 38.4995 71.6021H39.5614C39.8834 71.6021 40.1444 71.3411 40.1444 71.0191C40.1444 70.6971 39.8834 70.4361 39.5614 70.4361Z" fill="#E6E6E6"/>
<path d="M51.7067 70.4361H50.6447C50.3228 70.4361 50.0618 70.6971 50.0618 71.0191C50.0618 71.3411 50.3228 71.6021 50.6447 71.6021H51.7067C52.0286 71.6021 52.2896 71.3411 52.2896 71.0191C52.2896 70.6971 52.0286 70.4361 51.7067 70.4361Z" fill="#E6E6E6"/>
<path d="M55.1478 70.4361H54.0859C53.7639 70.4361 53.5029 70.6971 53.5029 71.0191C53.5029 71.3411 53.7639 71.6021 54.0859 71.6021H55.1478C55.4698 71.6021 55.7308 71.3411 55.7308 71.0191C55.7308 70.6971 55.4698 70.4361 55.1478 70.4361Z" fill="#E6E6E6"/>
<path d="M48.4031 70.5333H41.8029C41.481 70.5333 41.22 70.7943 41.22 71.1163C41.22 71.4382 41.481 71.6992 41.8029 71.6992H48.4031C48.725 71.6992 48.986 71.4382 48.986 71.1163C48.986 70.7943 48.725 70.5333 48.4031 70.5333Z" fill="#E6E6E6"/>
<path d="M42.8002 67.8047H41.7382C41.4163 67.8047 41.1553 68.0657 41.1553 68.3876C41.1553 68.7096 41.4163 68.9706 41.7382 68.9706H42.8002C43.1221 68.9706 43.3831 68.7096 43.3831 68.3876C43.3831 68.0657 43.1221 67.8047 42.8002 67.8047Z" fill="#E6E6E6"/>
<path d="M54.9454 67.8047H53.8835C53.5615 67.8047 53.3005 68.0657 53.3005 68.3876C53.3005 68.7096 53.5615 68.9706 53.8835 68.9706H54.9454C55.2674 68.9706 55.5284 68.7096 55.5284 68.3876C55.5284 68.0657 55.2674 67.8047 54.9454 67.8047Z" fill="#E6E6E6"/>
<path d="M58.3866 67.8047H57.3247C57.0027 67.8047 56.7417 68.0657 56.7417 68.3876C56.7417 68.7096 57.0027 68.9706 57.3247 68.9706H58.3866C58.7086 68.9706 58.9696 68.7096 58.9696 68.3876C58.9696 68.0657 58.7086 67.8047 58.3866 67.8047Z" fill="#E6E6E6"/>
<path d="M51.6421 67.9018H45.042C44.72 67.9018 44.459 68.1628 44.459 68.4848C44.459 68.8068 44.72 69.0678 45.042 69.0678H51.6421C51.964 69.0678 52.2251 68.8068 52.2251 68.4848C52.2251 68.1628 51.964 67.9018 51.6421 67.9018Z" fill="#E6E6E6"/>
<path d="M46.0389 65.1732H44.977C44.655 65.1732 44.394 65.4342 44.394 65.7561C44.394 66.0781 44.655 66.3391 44.977 66.3391H46.0389C46.3609 66.3391 46.6219 66.0781 46.6219 65.7561C46.6219 65.4342 46.3609 65.1732 46.0389 65.1732Z" fill="#E6E6E6"/>
<path d="M58.1842 65.1732H57.1223C56.8003 65.1732 56.5393 65.4342 56.5393 65.7561C56.5393 66.0781 56.8003 66.3391 57.1223 66.3391H58.1842C58.5062 66.3391 58.7672 66.0781 58.7672 65.7561C58.7672 65.4342 58.5062 65.1732 58.1842 65.1732Z" fill="#E6E6E6"/>
<path d="M61.6254 65.1732H60.5634C60.2415 65.1732 59.9805 65.4342 59.9805 65.7561C59.9805 66.0781 60.2415 66.3391 60.5634 66.3391H61.6254C61.9473 66.3391 62.2083 66.0781 62.2083 65.7561C62.2083 65.4342 61.9473 65.1732 61.6254 65.1732Z" fill="#E6E6E6"/>
<path d="M54.8806 65.2703H48.2805C47.9585 65.2703 47.6975 65.5313 47.6975 65.8533C47.6975 66.1753 47.9585 66.4363 48.2805 66.4363H54.8806C55.2026 66.4363 55.4636 66.1753 55.4636 65.8533C55.4636 65.5313 55.2026 65.2703 54.8806 65.2703Z" fill="#E6E6E6"/>
<path d="M84.1691 111.083C84.0456 111.146 83.9201 111.209 83.7966 111.269C80.5983 112.868 78.0397 113.777 74.5398 114.773C74.2443 111.474 73.9589 105.674 73.6816 102.079C73.6087 101.146 73.5358 100.363 73.465 99.8102C73.4471 99.5164 73.3871 99.2267 73.2868 98.9499L73.299 99.8102L73.3294 102.079L73.5055 115.057C69.1519 116.209 64.6797 116.853 60.178 116.978C59.9432 116.984 59.7124 116.988 59.4898 116.992C59.4108 116.994 59.3339 116.996 59.257 116.996C59.0039 116.998 58.7529 117 58.4999 117C53.756 117.003 49.0292 116.43 44.4235 115.293C44.5227 112.028 44.6218 106.294 44.717 102.079C44.7372 101.255 44.7554 100.488 44.7757 99.8102C44.8141 98.3609 44.8546 97.3164 44.8931 96.9662C44.859 97.0282 44.8325 97.0941 44.8141 97.1625C44.6267 98.0354 44.4988 98.92 44.4316 99.8102C44.3607 100.488 44.2899 101.255 44.219 102.079C43.8425 106.458 43.4498 112.411 43.045 114.935C40.6353 114.277 38.2707 113.464 35.9663 112.5C34.7517 111.994 33.5588 111.448 32.3875 110.862C32.6101 109.405 32.8429 107.771 33.0818 106.077C33.268 104.763 33.4603 103.413 33.6566 102.079C33.9603 100.019 34.272 97.9985 34.5878 96.2192C35.0493 93.6201 35.523 91.5311 35.9926 90.5717C36.4379 89.6608 36.8832 88.762 37.3144 87.9017C37.4642 87.6001 37.614 87.3025 37.7597 87.0131C37.7941 86.9443 37.8286 86.8775 37.863 86.8107C38.1727 86.2014 38.4723 85.6184 38.7577 85.0719C39.0026 84.6043 39.2354 84.163 39.456 83.7561C39.9904 82.7683 40.4439 81.9809 40.7799 81.4829C42.1847 79.352 44.2761 77.7656 46.7068 76.9871L46.7675 76.9709L46.81 76.9891L50.9496 75.7179L51.5548 75.5317L51.9617 75.4062L53.3948 74.3151L54.1741 73.7221L54.9049 73.1654L56.334 72.0784L65.1819 72.6229L66.9045 76.7705L70.7626 78.1814L70.8294 78.151L70.8881 78.1268L70.9489 78.1429C73.3792 78.9221 75.4704 80.5084 76.8758 82.6387C77.0661 82.9242 77.2968 83.3007 77.558 83.7561C77.7806 84.1427 78.0235 84.584 78.2867 85.0719C78.6612 85.7662 79.07 86.5495 79.5032 87.3977C79.5984 87.5839 79.6955 87.7742 79.7927 87.9665C79.9728 88.3227 80.1557 88.6864 80.3413 89.0575C80.7724 89.9178 81.2177 90.8166 81.6631 91.7295C82.0497 92.521 82.4404 94.1485 82.825 96.2192C83.1428 97.9398 83.4586 99.9681 83.7642 102.079C84.165 104.816 83.7379 108.093 84.1002 110.611C84.1225 110.771 84.1468 110.927 84.1691 111.083Z" fill="#3F3D56"/>
<path d="M58.6244 68.7678C64.3076 68.7678 68.9148 64.1606 68.9148 58.4774C68.9148 52.7942 64.3076 48.187 58.6244 48.187C52.9412 48.187 48.334 52.7942 48.334 58.4774C48.334 64.1606 52.9412 68.7678 58.6244 68.7678Z" fill="#A0616A"/>
<path d="M75.5945 44.8405C75.3911 44.3657 75.1204 43.9226 74.7908 43.5248C73.2281 41.6159 70.3861 40.7759 67.4692 43.0349C66.9077 42.9095 66.3224 42.9431 65.779 43.1321C65.5224 43.225 65.282 43.3575 65.0665 43.5248C64.6248 43.8693 64.2802 44.3227 64.0665 44.8405C63.9523 45.114 63.8773 45.4023 63.8438 45.6968C63.1228 45.3221 62.3597 45.0347 61.5706 44.8405C59.6346 44.359 57.6101 44.359 55.6741 44.8405C55.0537 44.9975 54.4563 45.2343 53.8968 45.545C52.9495 46.0915 52.4049 46.7818 52.3078 47.5489C50.9414 47.6259 49.5204 48.3445 48.4618 49.5226C48.3423 49.6541 48.2269 49.7918 48.1197 49.9335C47.2294 51.0984 46.7509 52.5259 46.7594 53.992V54.2491H47.0165C47.7208 54.2484 48.4186 54.3845 49.071 54.6499C49.4938 54.8197 49.8942 55.0407 50.2633 55.3078C50.5048 55.4791 50.7328 55.6686 50.9455 55.8746C51.4385 56.3519 51.8562 56.9013 52.1843 57.504C53.0253 59.0272 53.3169 60.7932 53.0102 62.5059C52.9398 62.9023 52.8369 63.2923 52.7025 63.6718C52.5113 64.2134 52.2593 64.7315 51.9515 65.2163C51.9394 65.2345 51.9293 65.2528 51.9171 65.271C51.7815 65.4876 51.6519 65.7082 51.5305 65.9309C51.4394 66.0969 51.3544 66.2669 51.2754 66.4369C51.0447 66.9102 50.8498 67.4001 50.6925 67.9025C50.4107 68.791 50.2447 69.7122 50.1985 70.6433C50.1844 70.8902 50.1803 71.1372 50.1884 71.3841C50.2005 72.0207 50.2702 72.6549 50.3969 73.2788C50.4151 73.3638 50.4334 73.4468 50.4516 73.5318L50.5993 74.1776L50.9495 75.718L51.1924 76.7787L51.4171 77.7624L51.7491 77.2868C51.8625 77.1248 52.1479 76.6269 52.5305 75.9224C52.7835 75.4629 53.077 74.9144 53.3948 74.3152C53.8381 73.4752 54.3239 72.5379 54.7996 71.6027C54.9919 71.2242 55.1822 70.8477 55.3664 70.4793C55.7146 69.781 56.0425 69.1069 56.3238 68.5077C56.5829 67.9551 56.8036 67.4652 56.9675 67.0725C57.0182 67.3296 57.0607 67.5907 57.093 67.8539C57.1295 68.1211 57.1558 68.3923 57.17 68.6636C57.174 68.7041 57.176 68.7466 57.1781 68.7871L57.1862 68.9531L57.1882 69.0016L57.4028 69.03C58.6403 69.1625 59.8879 69.172 61.1273 69.0583H61.1293C62.7713 68.9347 64.3821 68.5443 65.8984 67.9025C66.7596 67.5289 67.5638 67.0355 68.287 66.437C68.625 66.1572 68.9404 65.8513 69.2303 65.522C69.3032 65.439 69.374 65.356 69.4428 65.271C69.8434 64.7787 70.1864 64.2421 70.4651 63.6719C70.6517 63.2955 70.81 62.9058 70.9387 62.5059C71.716 60.1518 71.6715 57.2146 70.8051 53.7249C71.0392 53.6798 71.2633 53.5934 71.4671 53.4698C72.1027 53.0872 72.544 52.3282 72.6816 51.4011L72.9002 51.4598C73.6752 51.0988 74.3656 50.5788 74.9265 49.9335C75.0375 49.8021 75.1416 49.6649 75.2382 49.5226C76.228 48.0651 76.2361 46.3162 75.5945 44.8405Z" fill="#2F2E41"/>
<path opacity="0.2" d="M41.7637 96.2104L43.4837 89.5726L45.0024 95.3003L41.7637 96.2104Z" fill="black"/>
<path d="M87.5333 91.8854C86.9179 100.363 87.5556 104.096 84.1589 111.085C81.0685 112.598 77.8494 113.832 74.5398 114.773C74.1957 114.87 73.8509 114.965 73.5054 115.057C69.1519 116.209 64.6797 116.853 60.178 116.978C59.9432 116.984 59.7124 116.988 59.4897 116.992C59.4108 116.994 59.3339 116.996 59.257 116.996C59.0039 116.998 58.7529 117 58.4999 117C53.756 117.003 49.0292 116.43 44.4235 115.294C43.962 115.18 43.5025 115.061 43.045 114.935C40.6353 114.277 38.2707 113.464 35.9663 112.5C34.7518 111.994 33.5588 111.448 32.3875 110.863C32.1223 110.729 31.8571 110.595 31.596 110.458C30.2539 108.097 29.4908 105.227 29.4746 101.778C30.4037 95.8347 85.4807 86.7601 87.5333 91.8854Z" fill="#2F2E41"/>
<path opacity="0.2" d="M87.5317 93.3372C87.5631 92.8124 87.5983 92.2702 87.6392 91.7057C85.5867 86.5804 30.5097 95.655 29.5806 101.598C29.5831 102.143 29.6064 102.672 29.6456 103.188C31.8956 97.3222 84.2195 88.6973 87.5317 93.3372Z" fill="black"/>
<path d="M33.0142 69.259C33.0276 69.0754 33.0016 68.8912 32.9378 68.7186C32.874 68.546 32.774 68.389 32.6445 68.2583C32.515 68.1276 32.359 68.0261 32.187 67.9608C32.015 67.8954 31.8309 67.8676 31.6473 67.8793C31.5789 67.8819 31.5108 67.8904 31.4438 67.9048L23.3951 69.7231C23.2153 69.7667 23.0465 69.8475 22.8998 69.9603C22.7531 70.0731 22.6316 70.2153 22.5432 70.3779C22.4251 70.3823 22.3079 70.3994 22.1935 70.4287C21.9431 70.4855 21.7062 70.5911 21.4965 70.7394C21.2869 70.8877 21.1085 71.0758 20.9715 71.2931C20.8345 71.5103 20.7417 71.7524 20.6983 72.0056C20.6549 72.2587 20.6618 72.5179 20.7185 72.7683C20.7753 73.0188 20.8809 73.2556 21.0292 73.4653C21.1775 73.675 21.3656 73.8534 21.5829 73.9904C22.0216 74.267 22.5523 74.358 23.0581 74.2433C23.3461 74.1765 23.6154 74.0462 23.8465 73.8619L26.5739 81.5419C26.7102 81.7826 26.9206 81.9727 27.1739 82.0839C27.4271 82.195 27.7096 82.2212 27.9789 82.1586L33.2113 80.9761C33.4786 80.9134 33.7192 80.7677 33.8985 80.5598C34.0778 80.3519 34.1867 80.0926 34.2094 79.819L33.0142 69.259ZM22.9374 73.6966C22.5761 73.7781 22.1972 73.713 21.8839 73.5156C21.5706 73.3182 21.3483 73.0046 21.2658 72.6435C21.1833 72.2825 21.2474 71.9035 21.4439 71.5896C21.6405 71.2757 21.9535 71.0526 22.3143 70.9692C22.3397 70.9628 22.3652 70.9692 22.3906 70.9628C22.3887 71.1945 22.4479 71.4225 22.5623 71.624L23.5604 73.366C23.3866 73.5308 23.1712 73.6451 22.9374 73.6966Z" fill="#2F2E41"/>
<path d="M31.6473 67.8794C31.7236 68.8967 29.9816 70.0664 27.6484 70.5306C25.5058 70.9692 23.5858 70.664 23.0454 69.863C23.154 69.7986 23.272 69.7514 23.3951 69.7231L31.4438 67.9049C31.5108 67.8905 31.5789 67.882 31.6473 67.8794Z" fill="#3F3D56"/>
<path d="M26.0806 93.7024L30.6014 91.4419L26.8341 81.2701L25.8412 76.1403C25.7122 75.4738 25.4106 74.8529 24.9664 74.3396C24.5223 73.8262 23.9512 73.4384 23.3102 73.2149C22.6692 72.9914 21.9808 72.9401 21.3138 73.066C20.6467 73.1919 20.0244 73.4906 19.509 73.9324C18.7453 74.5871 18.2657 75.5128 18.1716 76.5144C18.0774 77.5159 18.3761 78.5148 19.0045 79.3003L22.69 83.9072L26.0806 93.7024Z" fill="#A0616A"/>
<path d="M30.6015 89.5581L24.5737 92.572L29.1482 106.905C29.4767 107.935 30.0655 108.861 30.8577 109.596C31.6498 110.331 32.6184 110.849 33.6694 111.099C34.9654 111.407 36.326 111.295 37.5539 110.778C38.7818 110.262 39.8132 109.367 40.4986 108.225L52.6287 87.4334C53.4884 86.0007 53.7537 84.2887 53.3681 82.663C52.9825 81.0373 51.9764 79.6269 50.5649 78.7329C49.8058 78.2521 48.9539 77.9365 48.0647 77.8068C47.1755 77.677 46.269 77.7359 45.4041 77.9796C44.5391 78.2234 43.7353 78.6465 43.0447 79.2215C42.3541 79.7964 41.7924 80.5104 41.396 81.3168L33.9922 97.0929L30.6015 89.5581Z" fill="#3F3D56"/>
<path d="M28.7371 76.6049C28.7259 76.6049 28.7148 76.6031 28.7042 76.5994L27.3882 76.1463C27.3723 76.1409 27.358 76.1316 27.3466 76.1192C27.3352 76.1068 27.3271 76.0918 27.3229 76.0755C27.3188 76.0593 27.3188 76.0422 27.3229 76.0259C27.327 76.0096 27.3352 75.9946 27.3465 75.9822L28.3254 74.9166C28.3343 74.9067 28.3451 74.8987 28.3572 74.8931C28.3693 74.8874 28.3823 74.8842 28.3956 74.8836C28.4089 74.883 28.4222 74.885 28.4347 74.8896C28.4473 74.8941 28.4588 74.9011 28.4686 74.9101C28.4784 74.9191 28.4863 74.93 28.4919 74.942C28.4975 74.9541 28.5007 74.9672 28.5013 74.9805C28.5018 74.9938 28.4997 75.0071 28.4951 75.0196C28.4905 75.0321 28.4835 75.0436 28.4744 75.0534L27.6002 76.0052L28.77 76.408C28.7927 76.4158 28.8118 76.4314 28.8241 76.452C28.8363 76.4725 28.8409 76.4968 28.8369 76.5204C28.833 76.544 28.8208 76.5655 28.8025 76.581C28.7842 76.5964 28.7611 76.6049 28.7371 76.6049Z" fill="#5483B3"/>
<path d="M30.5411 76.2356C30.5209 76.2356 30.5012 76.2296 30.4845 76.2183C30.4678 76.207 30.4548 76.191 30.4473 76.1723C30.4397 76.1536 30.4379 76.1331 30.4421 76.1134C30.4463 76.0937 30.4562 76.0756 30.4707 76.0616L31.3603 75.2015L30.1653 74.7091C30.153 74.7041 30.1418 74.6966 30.1324 74.6873C30.123 74.6779 30.1155 74.6668 30.1103 74.6545C30.1052 74.6422 30.1026 74.629 30.1025 74.6157C30.1025 74.6024 30.1051 74.5893 30.1102 74.577C30.1152 74.5647 30.1227 74.5535 30.1321 74.5441C30.1415 74.5347 30.1526 74.5272 30.1649 74.5221C30.1772 74.517 30.1904 74.5144 30.2037 74.5144C30.217 74.5144 30.2301 74.517 30.2424 74.5221L31.5803 75.0734C31.5958 75.0798 31.6095 75.09 31.6202 75.103C31.6308 75.116 31.638 75.1314 31.6412 75.1479C31.6443 75.1644 31.6433 75.1815 31.6383 75.1975C31.6332 75.2135 31.6242 75.228 31.6121 75.2397L30.6115 76.2071C30.5926 76.2254 30.5674 76.2356 30.5411 76.2356Z" fill="#5483B3"/>
<path d="M29.0136 77.2241C29.0035 77.2241 28.9935 77.2226 28.9839 77.2195C28.9711 77.2156 28.9593 77.2093 28.9491 77.2008C28.9388 77.1923 28.9303 77.1819 28.9241 77.1702C28.9179 77.1584 28.914 77.1455 28.9128 77.1323C28.9116 77.1191 28.9129 77.1057 28.9168 77.093L29.851 74.0567C29.859 74.0311 29.8768 74.0097 29.9005 73.9972C29.9242 73.9848 29.9519 73.9822 29.9775 73.9901C30.0031 73.998 30.0245 74.0157 30.0371 74.0394C30.0496 74.0631 30.0523 74.0907 30.0445 74.1164L29.1104 77.1527C29.104 77.1734 29.0911 77.1915 29.0737 77.2043C29.0563 77.2171 29.0352 77.2241 29.0136 77.2241Z" fill="#5483B3"/>
</g>
<defs>
<clipPath id="clip0_143_179">
<rect width="117" height="117" fill="white"/>
</clipPath>
</defs>
</svg>
