<svg width="174" height="117" viewBox="0 0 174 117" fill="none" xmlns="http://www.w3.org/2000/svg">
<g clip-path="url(#clip0_143_397)">
<path d="M106.466 117H67.698C66.6016 117 65.7097 115.589 65.7097 113.854V3.14585C65.7097 1.41133 66.6016 0 67.698 0H106.466C107.562 0 108.454 1.41133 108.454 3.14585V113.854C108.454 115.589 107.562 117 106.466 117ZM82.8506 0.525337C73.5673 0.525337 66.0417 12.4323 66.0417 27.1204V113.854C66.0417 115.301 66.7833 116.475 67.698 116.475H106.466C107.381 116.475 108.122 115.301 108.122 113.854V3.14585C108.122 1.69858 107.381 0.525334 106.466 0.525334L82.8506 0.525337Z" fill="#E6E6E6"/>
<path d="M108.253 29.1749C108.253 29.3624 108.386 29.5129 108.551 29.5129H159.771C159.937 29.5129 160.07 29.3624 160.07 29.1749C160.07 28.9874 159.937 28.8368 159.771 28.8368H108.551C108.386 28.8368 108.253 28.9874 108.253 29.1749Z" fill="#E6E6E6"/>
<path d="M66.5966 77.4553L67.1035 98.7095H65.8696V101.116H69.3183V98.7095H68.3124L68.3843 77.4553H66.5966Z" fill="#3F3D56"/>
<path d="M65.2659 95.3008C65.7908 95.3008 66.2164 95.9741 66.2164 96.8046V103.02C66.2164 103.851 65.7908 104.524 65.2659 104.524C64.741 104.524 64.3154 103.851 64.3154 103.02V96.8046C64.3154 95.9741 64.741 95.3008 65.2659 95.3008Z" fill="#3F3D56"/>
<path d="M70.0813 95.3008C70.6063 95.3008 71.0318 95.9741 71.0318 96.8046V103.02C71.0318 103.851 70.6063 104.524 70.0813 104.524C69.5564 104.524 69.1309 103.851 69.1309 103.02V96.8046C69.1309 95.9741 69.5564 95.3008 70.0813 95.3008Z" fill="#3F3D56"/>
<path d="M77.812 64.2127L58.2957 62.8091L61.3372 60.6035L78.4457 61.0045L77.812 64.2127Z" fill="#6C63FF"/>
<path d="M0 67.3294L2.35697 65.9258L75.531 68.9335L78.5725 66.7278L77.3052 80.3626L19.1799 70.563L0 67.3294Z" fill="#6C63FF"/>
<path d="M18.8193 75.2496L19.1798 70.563L77.3051 80.3627L76.9883 87.2803L18.8193 75.2496Z" fill="#3F3D56"/>
<path d="M57.9154 89.0849C61.24 89.0849 63.9351 84.5514 63.9351 78.9591C63.9351 73.3667 61.24 68.8332 57.9154 68.8332C54.5908 68.8332 51.8958 73.3667 51.8958 78.9591C51.8958 84.5514 54.5908 89.0849 57.9154 89.0849Z" fill="#3F3D56"/>
<path d="M57.9155 84.1724C60.3652 84.1724 62.3511 81.0304 62.3511 77.1545C62.3511 73.2786 60.3652 70.1366 57.9155 70.1366C55.4658 70.1366 53.48 73.2786 53.48 77.1545C53.48 81.0304 55.4658 84.1724 57.9155 84.1724Z" fill="#6C63FF"/>
<path d="M107.404 77.4553L106.897 98.7095H108.131V101.116H104.682V98.7095H105.688L105.616 77.4553H107.404Z" fill="#3F3D56"/>
<path d="M108.734 95.3008H108.734C108.209 95.3008 107.784 95.9741 107.784 96.8046V103.02C107.784 103.851 108.209 104.524 108.734 104.524H108.734C109.259 104.524 109.685 103.851 109.685 103.02V96.8046C109.685 95.9741 109.259 95.3008 108.734 95.3008Z" fill="#3F3D56"/>
<path d="M103.918 95.3008H103.918C103.394 95.3008 102.968 95.9741 102.968 96.8046V103.02C102.968 103.851 103.394 104.524 103.918 104.524H103.918C104.443 104.524 104.869 103.851 104.869 103.02V96.8046C104.869 95.9741 104.443 95.3008 103.918 95.3008Z" fill="#3F3D56"/>
<path d="M96.1878 64.2127L115.704 62.8091L112.663 60.6035L95.5542 61.0045L96.1878 64.2127Z" fill="#6C63FF"/>
<path d="M89.2025 59.8927L88.3154 29.0139L86.9214 33.8261L87.1748 60.8952L89.2025 59.8927Z" fill="#6C63FF"/>
<path d="M174 67.3294L171.643 65.9258L98.469 68.9335L95.4275 66.7278L96.6948 80.3626L154.82 70.563L174 67.3294Z" fill="#6C63FF"/>
<path d="M155.181 75.2496L154.82 70.563L96.6948 80.3627L97.0117 87.2803L155.181 75.2496Z" fill="#3F3D56"/>
<path d="M116.085 89.0849C119.409 89.0849 122.104 84.5514 122.104 78.9591C122.104 73.3667 119.409 68.8332 116.085 68.8332C112.76 68.8332 110.065 73.3667 110.065 78.9591C110.065 84.5514 112.76 89.0849 116.085 89.0849Z" fill="#3F3D56"/>
<path d="M116.084 84.1724C118.534 84.1724 120.52 81.0304 120.52 77.1545C120.52 73.2786 118.534 70.1366 116.084 70.1366C113.635 70.1366 111.649 73.2786 111.649 77.1545C111.649 81.0304 113.635 84.1724 116.084 84.1724Z" fill="#6C63FF"/>
<path d="M98.0571 60.3662L97.7695 63.7202L97.6199 81.7743C97.6085 83.1177 97.5059 84.4451 97.3132 85.7324C96.7582 89.4819 95.4617 92.8926 93.5468 95.3649C91.8094 97.6107 89.4395 99.311 86.303 99.0102C77.9388 98.2082 77.2 86.9454 77.2 86.9454L77.5155 66.5213L77.5586 63.7202L77.9388 58.6659C77.9388 58.6659 78.9526 44.4296 88.3306 44.8306C97.7086 45.2316 98.0571 60.3662 98.0571 60.3662Z" fill="#6C63FF"/>
<path d="M79.9666 55.6582L81.8675 50.846L84.2754 49.6429H92.5128L94.5405 50.846L96.3806 55.6582L93.0197 53.2521H83.5918L79.9666 55.6582Z" fill="#E6E6E6"/>
<path d="M86.9378 90.2554L87.263 103.89H86.4714V105.434H88.6838V103.89H88.0385L88.0846 90.2554H86.9378Z" fill="#3F3D56"/>
<path d="M86.0841 101.704C86.4209 101.704 86.6938 102.135 86.6938 102.668V106.656C86.6938 107.189 86.4209 107.621 86.0841 107.621C85.7474 107.621 85.4744 107.189 85.4744 106.656V102.668C85.4744 102.135 85.7474 101.704 86.0841 101.704Z" fill="#3F3D56"/>
<path d="M89.1735 101.704C89.5102 101.704 89.7832 102.135 89.7832 102.668V106.656C89.7832 107.189 89.5102 107.621 89.1735 107.621C88.8367 107.621 88.5637 107.189 88.5637 106.656V102.668C88.5637 102.135 88.8367 101.704 89.1735 101.704Z" fill="#3F3D56"/>
<path d="M84.5784 46.6874L82.8276 56.6609L83.165 56.8091L84.9158 46.8357L84.5784 46.6874Z" fill="#6C63FF"/>
<path d="M92.518 48.2786L92.1743 48.3855L93.4357 58.5424L93.7794 58.4355L92.518 48.2786Z" fill="#6C63FF"/>
<path d="M128.595 32.3454C129.852 32.3454 130.871 30.7329 130.871 28.7439C130.871 26.7548 129.852 25.1424 128.595 25.1424C127.337 25.1424 126.318 26.7548 126.318 28.7439C126.318 30.7329 127.337 32.3454 128.595 32.3454Z" fill="#6C63FF"/>
<path d="M65.5919 44.1342C66.8491 44.1342 67.8682 42.5217 67.8682 40.5326C67.8682 38.5436 66.8491 36.9311 65.5919 36.9311C64.3348 36.9311 63.3157 38.5436 63.3157 40.5326C63.3157 42.5217 64.3348 44.1342 65.5919 44.1342Z" fill="#6C63FF"/>
<path d="M14.0505 108.131C14.0505 108.319 14.1834 108.469 14.3489 108.469H65.5691C65.7345 108.469 65.8674 108.319 65.8674 108.131C65.8674 107.944 65.7345 107.793 65.5691 107.793H14.3489C14.1834 107.793 14.0505 107.944 14.0505 108.131Z" fill="#E6E6E6"/>
<path d="M34.392 111.302C35.6491 111.302 36.6683 109.689 36.6683 107.7C36.6683 105.711 35.6491 104.099 34.392 104.099C33.1348 104.099 32.1157 105.711 32.1157 107.7C32.1157 109.689 33.1348 111.302 34.392 111.302Z" fill="#6C63FF"/>
</g>
<defs>
<clipPath id="clip0_143_397">
<rect width="174" height="117" fill="white"/>
</clipPath>
</defs>
</svg>
