<svg width="126" height="98" viewBox="0 0 126 98" fill="none" xmlns="http://www.w3.org/2000/svg">
<path d="M59.3439 42.6153C58.7081 41.4553 58.9473 40.2408 59.8781 39.9028C60.8089 39.5647 62.0786 40.2311 62.7144 41.3916C62.9764 41.8522 63.0955 42.3585 63.0617 42.8682L65.6773 47.8116L62.7273 48.7896L60.4619 43.8124C59.9733 43.4924 59.5899 43.0819 59.3439 42.6153Z" fill="#FFAFAF"/>
<path d="M77.4206 44.7143C79.0152 45.9562 78.9154 48.0751 77.2086 49.2108L68.8506 54.7726C67.9384 55.3796 66.5846 55.1652 66.0092 54.3225C63.8127 51.3856 63.3987 51.2246 62.1221 48.2146L65.7221 47.1746L67.7519 49.2738L72.1836 44.956C73.523 43.651 75.9135 43.5407 77.4206 44.7143Z" fill="#6C63FF"/>
<path d="M45.1509 37.2045V35.016H18.8933V37.2045H45.1509Z" fill="#DFDFDF"/>
<path d="M111.638 37.2045V35.016H85.3803V37.2045H111.638Z" fill="#DFDFDF"/>
<path d="M33.4389 27.4573H28.9498C27.2087 27.4573 25.7974 28.6229 25.7974 30.0608V43.7529C25.7974 45.1908 27.2087 46.3564 28.9498 46.3564H33.4389C35.18 46.3564 36.5913 45.1908 36.5913 43.7529V30.0608C36.5913 28.6229 35.18 27.4573 33.4389 27.4573Z" fill="#3F3D56"/>
<path d="M104.247 27.4573H99.7581C98.0171 27.4573 96.6057 28.6229 96.6057 30.0608V43.7529C96.6057 45.1908 98.0171 46.3564 99.7581 46.3564H104.247C105.988 46.3564 107.4 45.1908 107.4 43.7529V30.0608C107.4 28.6229 105.988 27.4573 104.247 27.4573Z" fill="#3F3D56"/>
<path d="M101.402 41.7208H32.8431C30.4596 41.7208 28.4201 40.315 27.9937 38.3783L25.3718 26.4687C24.2316 21.2892 26.5942 16.0123 31.5387 12.6918L36.7086 3.50529C37.9069 1.37586 40.5184 0 43.3616 0H81.981C84.0341 0 86.0066 0.717355 87.393 1.9682L96.8926 10.5404C103.843 14.4084 107.785 21.0981 107.184 28.0023L106.318 37.9422C106.134 40.061 103.974 41.7208 101.402 41.7208Z" fill="#0047FF"/>
<path d="M89.7014 11.8565H37.9044C37.0048 11.8565 36.1747 11.4848 35.6838 10.8623C35.193 10.2397 35.1172 9.46228 35.481 8.78288L38.2112 3.68496C38.6267 2.9091 39.5587 2.39773 40.5855 2.38223L84.7409 2.42663C85.5817 2.42211 86.3845 2.73464 86.8943 3.28467L91.8057 8.33819C92.4229 9.00436 92.5269 9.88521 92.0771 10.6374C91.6273 11.3894 90.717 11.8565 89.7014 11.8565Z" fill="white"/>
<path d="M97.4693 25.3178C99.973 25.3178 102.003 23.6414 102.003 21.5736C102.003 19.5057 99.973 17.8294 97.4693 17.8294C94.9655 17.8294 92.9358 19.5057 92.9358 21.5736C92.9358 23.6414 94.9655 25.3178 97.4693 25.3178Z" fill="white"/>
<path d="M37.8865 25.3178C40.3903 25.3178 42.42 23.6414 42.42 21.5736C42.42 19.5057 40.3903 17.8294 37.8865 17.8294C35.3827 17.8294 33.353 19.5057 33.353 21.5736C33.353 23.6414 35.3827 25.3178 37.8865 25.3178Z" fill="white"/>
<path d="M93.0438 35.5697H43.6074V35.4805C43.6074 33.3667 45.6895 31.6472 48.2488 31.6472H88.4024C90.9617 31.6472 93.0438 33.3667 93.0438 35.4805V35.5697Z" fill="#3F3D56"/>
<path d="M32.2653 13.477C31.9978 13.477 31.7297 13.4067 31.5047 13.2646L29.6946 12.1217C29.5149 12.0082 29.2913 11.9457 29.0649 11.9457H25.1121C24.6598 11.9457 24.2545 11.7528 24.028 11.4294C23.8014 11.1063 23.8005 10.7199 24.0257 10.3961L24.9907 9.00767C25.1834 8.73031 25.5276 8.53948 25.9115 8.49717L30.857 7.95253C31.4734 7.88498 32.0473 8.19264 32.2237 8.68434L33.4666 12.1489C33.6035 12.5304 33.46 12.9483 33.101 13.2138C32.8644 13.3886 32.5652 13.477 32.2653 13.477Z" fill="#0047FF"/>
<path d="M96.3984 12.7639C96.0985 12.7639 95.7994 12.6754 95.5627 12.5006C95.2038 12.2351 95.0602 11.8172 95.1971 11.4357L96.44 7.97116C96.6164 7.47911 97.1912 7.1704 97.8066 7.23953L102.752 7.78399C103.136 7.82629 103.48 8.01713 103.673 8.29449L104.638 9.68289C104.863 10.0067 104.862 10.3931 104.636 10.7163C104.409 11.0396 104.004 11.2325 103.552 11.2325H99.5988C99.3724 11.2325 99.1488 11.295 98.969 11.4085L97.159 12.5514C96.934 12.6935 96.6658 12.7639 96.3984 12.7639Z" fill="#0047FF"/>
<path d="M21.5432 6.76447H18.8933V96.4931H21.5432V6.76447Z" fill="black"/>
<path d="M113.083 6.76447H110.434V96.4931H113.083V6.76447Z" fill="black"/>
<path d="M82.9983 89.793V93.8572L86.7191 93.9564L86.564 89.793H82.9983Z" fill="#FFAFAF"/>
<path d="M82.262 92.0544C82.2117 92.0544 82.1625 92.0598 82.1147 92.071C81.4432 92.2295 77.5562 95.0956 76.3809 95.9702C76.2357 96.0783 76.1585 96.2326 76.1692 96.3935C76.1797 96.5539 76.2763 96.6995 76.434 96.7933C77.3254 97.3235 79.1514 98.1622 81.3671 97.8233C82.3862 97.6673 83.4148 97.5692 84.3222 97.4828C86.2649 97.2975 87.7993 97.1512 87.7993 96.5833C87.7993 95.6196 87.4784 93.0797 87.0757 92.973C87.0391 92.9638 86.9968 92.9872 86.948 93.0435C86.3318 93.7559 84.2153 93.3768 84.1256 93.3604L84.102 93.3561L84.0886 93.3395C84.0776 93.3259 83.0413 92.0544 82.262 92.0544Z" fill="#2F2E41"/>
<path d="M76.0369 89.793V93.8572L79.7577 93.9564L79.6026 89.793H76.0369Z" fill="#FFAFAF"/>
<path d="M74.5365 60.6988L72.5561 61.9379L72.196 75.915L75.5568 91.1808L79.9377 91.3295L80.0577 76.7576L85.6989 63.4744L84.5587 60.3518L74.5365 60.6988Z" fill="#2F2E41"/>
<path d="M83.7784 63.0778L85.6988 63.4743L87.0791 91.1807L82.0981 90.8338L78.7974 71.2559L83.7784 63.0778Z" fill="#2F2E41"/>
<path d="M73.3803 98C71.6729 98 70.2856 97.3767 69.5447 96.9564C69.3208 96.8294 69.1822 96.6279 69.1645 96.4034C69.1466 96.1769 69.2535 95.96 69.4578 95.8082C71.2968 94.4419 74.4779 92.1272 75.1201 91.9757C75.9524 91.7787 77.0695 93.0933 77.2132 93.2677C77.4457 93.307 79.3511 93.6077 79.8888 92.9858C79.9913 92.8673 80.0876 92.862 80.1507 92.8786C80.7253 93.0307 80.9579 96.0856 80.9579 96.5833C80.9579 97.2396 79.4548 97.3829 77.3746 97.5812C76.469 97.6676 75.4426 97.7654 74.4274 97.9206C74.0675 97.9757 73.7177 98 73.3803 98Z" fill="#2F2E41"/>
<path d="M78.6517 42.5951L80.0188 44.8697L74.8518 46.9307L74.9151 43.2842L78.6517 42.5951Z" fill="#FFAFAF"/>
<path d="M74.8703 44.3158C77.438 44.3158 79.5196 42.5966 79.5196 40.4759C79.5196 38.3552 77.438 36.636 74.8703 36.636C72.3025 36.636 70.2209 38.3552 70.2209 40.4759C70.2209 42.5966 72.3025 44.3158 74.8703 44.3158Z" fill="#FFAFAF"/>
<path d="M74.8387 46.0439L79.606 43.7173C83.1025 45.7425 86.0141 46.2163 86.1068 49.7425L85.4624 58.1539L85.5001 61.7765C85.516 63.2972 84.0277 64.537 82.1863 64.537H75.3789C73.5774 64.537 72.2352 63.1644 72.6146 61.7099L73.8997 56.7819L72.5273 47.1774L74.8387 46.0439Z" fill="#6C63FF"/>
<path d="M79.6512 42.4079L78.7917 42.9165C78.7917 42.9165 78.5387 40.6998 78.1897 40.6015C77.8407 40.5031 77.3698 41.014 77.3698 41.014L77.0259 41.8462L75.8888 41.4547C75.8888 41.4547 74.5722 40.8691 74.1069 40.7379C73.6415 40.6068 73.7121 39.4931 73.7121 39.4931C73.7121 39.4931 68.1258 40.1248 68.9651 37.465C68.9651 37.465 69.2541 35.5083 69.8727 35.8972C70.4913 36.2861 70.4996 35.323 70.4996 35.323L71.9012 35.0745C71.9012 35.0745 73.8244 32.9348 77.6182 34.755C81.412 36.5752 79.6512 42.4079 79.6512 42.4079Z" fill="#2F2E41"/>
<path d="M69.9485 50.9075L68.6925 50.7494C68.3418 50.7053 68.0985 50.4322 68.1519 50.1425L68.3054 49.3104C67.8496 49.5431 67.515 49.9325 67.428 50.4043C67.2937 51.1323 67.7917 51.8178 68.582 52.0847L67.483 58.0425C67.4802 58.0574 67.4808 58.0721 67.4803 58.0868C66.6272 58.1454 65.9018 58.6781 65.7672 59.4077C65.6883 59.8353 65.8274 60.2487 66.1156 60.5713L66.2539 59.8218C66.3073 59.5321 66.638 59.3312 66.9887 59.3754L68.2447 59.5334C68.5954 59.5775 68.8386 59.8506 68.7852 60.1403L68.6317 60.9724C69.0876 60.7397 69.4221 60.3503 69.5091 59.8785C69.6437 59.149 69.1433 58.4619 68.35 58.1962C68.3548 58.182 68.3607 58.1682 68.3634 58.1532L69.4624 52.1955C70.3131 52.135 71.0357 51.6031 71.1699 50.8751C71.2488 50.4475 71.1098 50.0341 70.8215 49.7115L70.6833 50.461C70.6298 50.7507 70.2992 50.9516 69.9485 50.9075Z" fill="#3F3D56"/>
<path d="M67.609 56.0912C66.1018 55.8232 65.0622 54.9419 65.2869 54.1228C65.5116 53.3038 66.9155 52.8573 68.4232 53.1256C69.0274 53.2257 69.591 53.4479 70.0668 53.7735L76.4341 54.978L75.6309 57.5182L69.4392 56.0612C68.8371 56.1951 68.2095 56.2055 67.609 56.0912Z" fill="#FFAFAF"/>
<path d="M80.4058 45.3396C82.5632 45.0198 84.5659 46.3466 84.6559 48.1553L85.0967 57.0125C85.1448 57.9792 84.1307 58.7503 82.9682 58.631C78.8032 58.342 79.0958 58.6943 75.407 57.7511L75.654 54.5136L79.0913 54.4706L77.5255 48.9599C77.0523 47.2944 78.3671 45.6418 80.4058 45.3396Z" fill="#6C63FF"/>
</svg>
