<svg width="200" height="115" viewBox="0 0 200 115" fill="none" xmlns="http://www.w3.org/2000/svg">
<g clip-path="url(#clip0_261_54)">
<path d="M5.18356 104.337C5.97192 104.614 6.81837 104.683 7.64135 104.538C8.46433 104.393 9.23611 104.039 9.88234 103.509C11.5281 102.128 12.0442 99.8526 12.4639 97.7455L13.7057 91.5128L11.1059 93.3029C9.23609 94.5902 7.32431 95.9189 6.02981 97.7836C4.73532 99.6482 4.17057 102.194 5.21035 104.212" fill="#E6E6E6"/>
<path d="M5.58484 112.317C5.25761 109.932 4.92093 107.518 5.15102 105.108C5.35492 102.968 6.00783 100.878 7.33703 99.1642C8.04257 98.2562 8.90109 97.4782 9.87398 96.8652C10.1276 96.7052 10.3611 97.1071 10.1086 97.2665C8.42515 98.3303 7.12307 99.9013 6.39006 101.753C5.58051 103.812 5.45052 106.056 5.58996 108.244C5.67425 109.566 5.85335 110.88 6.03323 112.193C6.04744 112.252 6.03857 112.315 6.00843 112.368C5.97828 112.421 5.92911 112.46 5.87086 112.479C5.81143 112.495 5.74809 112.487 5.69457 112.456C5.64106 112.426 5.60168 112.375 5.585 112.316L5.58484 112.317Z" fill="#F2F2F2"/>
<path d="M7.94019 108.492C8.27824 109.006 8.74299 109.425 9.28964 109.707C9.83628 109.989 10.4464 110.126 11.0612 110.104C12.6416 110.029 13.9585 108.926 15.1439 107.879L18.6509 104.783L16.33 104.672C14.6608 104.592 12.9486 104.517 11.3588 105.032C9.76905 105.547 8.3029 106.786 8.01223 108.431" fill="#E6E6E6"/>
<path d="M4.65997 113.688C6.23535 110.901 8.06251 107.803 11.3276 106.813C12.2354 106.538 13.1873 106.44 14.1319 106.523C14.4297 106.549 14.3554 107.008 14.0582 106.982C12.4746 106.851 10.8941 107.269 9.58273 108.166C8.32078 109.025 7.33818 110.219 6.50664 111.486C5.99721 112.261 5.54093 113.07 5.08464 113.878C4.93884 114.136 4.51247 113.949 4.65997 113.688Z" fill="#F2F2F2"/>
<path d="M79.3116 35.6601C80.0235 35.6601 80.6006 35.0831 80.6006 34.3712C80.6006 33.6594 80.0235 33.0823 79.3116 33.0823C78.5998 33.0823 78.0227 33.6594 78.0227 34.3712C78.0227 35.0831 78.5998 35.6601 79.3116 35.6601Z" fill="#E5E5E5"/>
<path d="M110.137 44.4186C105.122 42.3377 100.305 39.8105 95.7428 36.8673C84.7876 29.8205 77.3179 21.67 77.1554 16.5856C77.1079 15.0996 77.6599 13.9211 78.7961 13.0831C80.6341 11.7274 83.9108 11.4021 88.2723 12.1417L88.1646 12.7771C83.9797 12.0672 80.8724 12.3524 79.1787 13.6017C78.2232 14.3065 77.7592 15.3034 77.7995 16.565C77.9555 21.447 85.3065 29.388 96.0914 36.3253C100.62 39.2472 105.403 41.7563 110.381 43.8222L110.137 44.4186Z" fill="#3F3D56"/>
<path d="M125.647 48.2367C123.736 48.2367 121.473 47.929 118.899 47.312L119.049 46.6854C124.453 47.9806 128.543 47.8729 130.564 46.3817C131.52 45.677 131.984 44.68 131.943 43.4184C131.787 38.5364 124.436 30.5954 113.651 23.6583C108.185 20.1423 102.38 17.2141 96.8625 15.1904L97.0845 14.5853C102.646 16.6251 108.495 19.575 114 23.1162C124.955 30.1629 132.425 38.3135 132.587 43.3978C132.635 44.8839 132.083 46.0623 130.947 46.9003C129.74 47.7903 127.949 48.2367 125.647 48.2367Z" fill="#3F3D56"/>
<path d="M84.1141 48.2297C81.806 48.2298 79.9985 47.7871 78.7961 46.9002C77.6599 46.0622 77.1079 44.8837 77.1554 43.3977C77.3179 38.3134 84.7875 30.1629 95.7425 23.1163C107.986 15.2407 121.729 10.5733 128.421 12.019L128.285 12.6489C121.744 11.2353 108.205 15.8662 96.0912 23.6583C85.3064 30.5954 77.9556 38.5363 77.7995 43.4183C77.7592 44.6798 78.2232 45.6768 79.1786 46.3816C84.0176 49.9502 99.4817 45.4392 113.651 36.3251C123.384 30.0644 130.301 23.0595 131.7 18.0441L132.321 18.2174C130.881 23.3784 123.86 30.5246 114 36.8672C107.06 41.3308 99.5987 44.8385 92.9894 46.7441C89.5564 47.734 86.5553 48.2296 84.1141 48.2297Z" fill="#3F3D56"/>
<path d="M92.6763 15.3598C93.7441 15.3598 94.6097 14.4942 94.6097 13.4264C94.6097 12.3586 93.7441 11.493 92.6763 11.493C91.6085 11.493 90.7429 12.3586 90.7429 13.4264C90.7429 14.4942 91.6085 15.3598 92.6763 15.3598Z" fill="#5483B3"/>
<path d="M114.265 47.6904C115.333 47.6904 116.199 46.8248 116.199 45.757C116.199 44.6893 115.333 43.8237 114.265 43.8237C113.198 43.8237 112.332 44.6893 112.332 45.757C112.332 46.8248 113.198 47.6904 114.265 47.6904Z" fill="#5483B3"/>
<path d="M120.28 64.6603C120.992 64.6603 121.569 64.0833 121.569 63.3714C121.569 62.6596 120.992 62.0825 120.28 62.0825C119.568 62.0825 118.991 62.6596 118.991 63.3714C118.991 64.0833 119.568 64.6603 120.28 64.6603Z" fill="#E5E5E5"/>
<path d="M88.4867 2.57781C89.1986 2.57781 89.7756 2.00075 89.7756 1.28891C89.7756 0.577063 89.1986 0 88.4867 0C87.7748 0 87.1978 0.577063 87.1978 1.28891C87.1978 2.00075 87.7748 2.57781 88.4867 2.57781Z" fill="#E5E5E5"/>
<path d="M131.236 16.3264C132.304 16.3264 133.17 15.4608 133.17 14.393C133.17 13.3252 132.304 12.4596 131.236 12.4596C130.168 12.4596 129.303 13.3252 129.303 14.393C129.303 15.4608 130.168 16.3264 131.236 16.3264Z" fill="#5483B3"/>
<path d="M68.3138 114.498H0.214823C0.157849 114.498 0.103207 114.476 0.0629201 114.435C0.0226329 114.395 0 114.341 0 114.284C0 114.227 0.0226329 114.172 0.0629201 114.132C0.103207 114.091 0.157849 114.069 0.214823 114.069H68.3138C68.3707 114.069 68.4254 114.091 68.4657 114.132C68.506 114.172 68.5286 114.227 68.5286 114.284C68.5286 114.341 68.506 114.395 68.4657 114.435C68.4254 114.476 68.3707 114.498 68.3138 114.498Z" fill="#CBCBCB"/>
<path d="M40.5361 111.623L43.1698 111.623L44.4226 101.465L40.5356 101.465L40.5361 111.623Z" fill="#FFB7B7"/>
<path d="M39.8643 110.761L45.0509 110.761H45.0511C45.9277 110.761 46.7684 111.109 47.3883 111.729C48.0082 112.349 48.3564 113.189 48.3565 114.066V114.173L39.8644 114.174L39.8643 110.761Z" fill="#2F2E41"/>
<path d="M30.01 111.838L32.6437 111.837L33.8965 101.679L30.0095 101.679L30.01 111.838Z" fill="#FFB7B7"/>
<path d="M29.3381 110.977L34.5248 110.976H34.525C35.4016 110.976 36.2423 111.325 36.8622 111.944C37.482 112.564 37.8303 113.405 37.8304 114.282V114.389L29.3383 114.389L29.3381 110.977Z" fill="#2F2E41"/>
<path d="M46.0631 68.9129L44.7241 108.054H40.4277L36.3558 72.9783L34.6275 108.484H29.257L27.7732 66.4285L44.2607 66.2026L46.0631 68.9129Z" fill="#2F2E41"/>
<path d="M32.855 37.1887L40.428 36.949L42.1154 68.1226L30.1448 67.8829L32.855 37.1887Z" fill="#CBCBCB"/>
<path d="M38.8406 69.8164L46.7457 69.5905L44.4871 58.2977L44.7129 51.7479L46.5198 41.1327L41.5509 38.1965L40.4216 36.8414C40.4216 36.8414 38.6147 38.6483 38.6147 47.0049C38.6147 55.3616 38.8406 69.8164 38.8406 69.8164Z" fill="#2F2E41"/>
<path d="M32.0648 69.5905C32.0648 69.5905 38.8405 53.2756 35.9044 45.9619C35.9044 45.9619 34.9049 37.9707 33.259 36.8414L30.7096 37.9707L25.2891 40.681L27.3218 46.3274L26.6442 51.0703L26.1925 67.5578L32.0648 69.5905Z" fill="#2F2E41"/>
<path d="M27.3946 69.9274C27.1144 69.7958 26.8664 69.6043 26.6682 69.3665C26.4699 69.1286 26.3263 68.8502 26.2473 68.5509C26.1683 68.2515 26.1559 67.9384 26.211 67.6338C26.266 67.3291 26.3872 67.0402 26.5661 66.7874L23.9875 62.6918L26.0943 60.5179L29.6544 66.3528C30.0591 66.6813 30.3293 67.1469 30.4136 67.6613C30.498 68.1757 30.3908 68.7031 30.1122 69.1438C29.8337 69.5844 29.4032 69.9075 28.9023 70.0519C28.4015 70.1964 27.865 70.1521 27.3946 69.9274Z" fill="#FFB7B7"/>
<path d="M47.9877 73.8402C47.7569 73.6339 47.5741 73.3794 47.4522 73.0948C47.3303 72.8102 47.2723 72.5023 47.2823 72.1929C47.2923 71.8834 47.3701 71.5799 47.51 71.3038C47.65 71.0276 47.8489 70.7855 48.0925 70.5945L46.7942 65.9323L49.435 64.4523L51.176 71.062C51.4698 71.4926 51.5954 72.016 51.529 72.533C51.4626 73.05 51.2089 73.5248 50.8159 73.8672C50.4229 74.2097 49.9179 74.3961 49.3967 74.3911C48.8754 74.3861 48.3741 74.1901 47.9877 73.8402Z" fill="#FFB7B7"/>
<path d="M27.7735 40.2292L25.2891 40.6809L19.8684 53.7806L24.8373 66.6544L28.2252 63.4924L25.0632 55.8133C25.0632 55.8133 25.2891 54.9099 25.0632 54.797C24.8373 54.684 25.3951 53.957 25.2891 53.9006C25.0632 53.7806 25.7408 52.6513 25.7408 52.6513L28.4511 47.0049L27.7735 40.2292Z" fill="#2F2E41"/>
<path d="M44.0355 41.1327H46.5201L49.2303 55.1356L49.0045 57.3943L49.9079 63.0406L51.1502 68.7999L47.1977 68.9129L45.1648 58.2976L43.3579 51.0704L44.0355 41.1327Z" fill="#2F2E41"/>
<path d="M36.7687 35.1049C39.6828 35.1049 42.045 32.7427 42.045 29.8287C42.045 26.9148 39.6828 24.5526 36.7687 24.5526C33.8547 24.5526 31.4924 26.9148 31.4924 29.8287C31.4924 32.7427 33.8547 35.1049 36.7687 35.1049Z" fill="#FFB7B7"/>
<path d="M40.9595 25.5655L41.8964 25.2248C41.8964 25.2248 39.9375 23.266 37.2121 23.4363L37.9787 22.6698C37.9787 22.6698 36.105 21.9884 34.4016 23.777C33.5062 24.7172 32.4702 25.8223 31.8243 27.0672H30.821L31.2397 27.9047L29.7742 28.7422L31.2785 28.5918C31.136 29.3148 31.185 30.0625 31.4207 30.7608L31.7614 31.6976C31.7614 31.6976 33.1241 28.9722 33.1241 28.6315V29.4832C33.1241 29.4832 34.0609 28.7167 34.0609 28.2057L34.572 28.8019L34.8275 27.865L37.9787 28.8019L37.4677 28.0354L39.4265 28.2909L38.66 27.354C38.66 27.354 40.8744 28.4612 40.9596 29.3981C41.0447 30.3349 42.1519 31.5273 42.1519 31.5273L42.6629 30.6756C42.6629 30.6756 43.4294 26.843 40.9595 25.5655Z" fill="#2F2E41"/>
<path d="M161.347 101.712L157.574 100.616L155.927 110.829L158.483 111.572L161.347 101.712Z" fill="#9F616A"/>
<path d="M150.308 111.769L150.417 111.395C150.627 110.671 151.116 110.06 151.777 109.696C152.438 109.333 153.216 109.247 153.94 109.458L159.244 110.998L158.342 114.102L150.308 111.769Z" fill="#2F2E41"/>
<path d="M184.901 101.364L180.972 101.364L182.239 111.631L184.9 111.632L184.901 101.364Z" fill="#9F616A"/>
<path d="M177.106 114.103L177.106 113.713C177.106 113.34 177.179 112.97 177.322 112.625C177.465 112.281 177.674 111.967 177.939 111.703C178.203 111.439 178.516 111.23 178.861 111.087C179.206 110.944 179.575 110.871 179.949 110.871L185.472 110.871L185.472 114.103L177.106 114.103Z" fill="#2F2E41"/>
<path d="M181.286 76.4845C181.811 76.2329 182.215 75.783 182.408 75.2339C182.602 74.6847 182.569 74.0812 182.317 73.5562L181.573 66.549L177.866 64.9644L179.248 72.5992C178.754 72.8814 178.39 73.344 178.23 73.8896C178.071 74.4353 178.13 75.0214 178.394 75.5247C178.658 76.028 179.107 76.4093 179.646 76.5883C180.186 76.7673 180.774 76.7301 181.286 76.4845Z" fill="#9F616A"/>
<path d="M180.625 57.6108L176.275 44.4059C176.184 44.2545 175.102 42.5504 172.744 43.2753C172.484 43.3485 172.241 43.4744 172.032 43.6453C171.822 43.8161 171.65 44.0282 171.526 44.2684C170.836 45.5914 171.48 47.6354 171.483 47.6462L176.838 59.6466L176.844 59.659L178.534 71.9831L182.184 71.242L180.625 57.6108Z" fill="#5483B3"/>
<path d="M151.712 106.462L158.26 86.3858L165.851 69.0345L165.741 60.6191L174.75 58.5185L175.799 62.0453C181.866 66.0486 179.867 73.7494 179.724 74.2655L188.866 108.002L178.898 109.109L172.208 77.1673L166.037 90.1464L161.674 109.561L151.712 106.462Z" fill="#2F2E41"/>
<path d="M165.091 53.5555C163.3 50.1223 164.595 48.815 166.553 46.8376C167.354 46.0566 168.105 45.2265 168.802 44.3522C171.857 40.4246 175.402 42.3535 175.438 42.3736L175.458 42.3848L176.334 43.6987C179.22 46.604 174.843 54.5874 174.51 55.1819L174.73 60.8905L165.42 61.7771L165.091 53.5555Z" fill="#5483B3"/>
<path d="M170.842 40.6786C173.787 40.6786 176.175 38.291 176.175 35.3458C176.175 32.4006 173.787 30.013 170.842 30.013C167.897 30.013 165.509 32.4006 165.509 35.3458C165.509 38.291 167.897 40.6786 170.842 40.6786Z" fill="#9F616A"/>
<path d="M168.641 75.5937C168.863 76.0827 169.258 76.4731 169.749 76.6908C170.24 76.9085 170.794 76.9384 171.306 76.7749C171.818 76.6113 172.252 76.2657 172.526 75.8035C172.801 75.3412 172.896 74.7945 172.793 74.2669L173.847 67.2994L170.661 64.8283L170.066 72.5644C169.757 72.6456 169.47 72.7936 169.225 72.9977C168.98 73.2019 168.782 73.4574 168.646 73.7463C168.51 74.0351 168.439 74.3502 168.438 74.6694C168.437 74.9885 168.506 75.3041 168.641 75.5937Z" fill="#9F616A"/>
<path d="M169.315 71.9666L170.819 59.4405L168.676 46.4784C168.671 46.3875 168.564 44.2379 169.62 43.0728C169.818 42.8527 170.058 42.6756 170.327 42.5525C170.596 42.4294 170.888 42.3629 171.183 42.3572C173.862 42.2399 174.502 44.4714 174.508 44.4939L175.381 58.4189L173.413 72.1944L169.315 71.9666Z" fill="#5483B3"/>
<path d="M165.405 34.4226L165.695 33.9554C166.417 33.8114 167.166 33.8963 167.837 34.1983C168.508 34.5004 169.069 35.0044 169.44 35.6401C169.623 34.9653 170.711 35.0001 171.114 35.5716C171.517 36.1431 171.428 36.9154 171.297 37.6023C171.166 38.2892 171.019 39.0357 171.336 39.6588C171.505 39.9499 171.748 40.1908 172.041 40.3573C172.334 40.5237 172.665 40.6096 173.002 40.6063C173.677 40.59 174.333 40.3811 174.894 40.0042C175.924 39.3481 176.749 38.4138 177.271 37.3093C177.793 36.2049 177.993 34.9752 177.846 33.7622C177.71 32.8176 177.359 31.9167 176.82 31.1291C177.129 31.1058 177.417 30.9656 177.626 30.7371C177.771 30.5484 177.861 30.3234 177.886 30.0868C177.911 29.8503 177.87 29.6115 177.768 29.3967C177.589 29.0212 177.316 28.6979 176.977 28.4579C177.221 28.6527 177.508 28.7867 177.814 28.8488C178.19 28.9031 178.63 28.7076 178.698 28.345C178.763 27.9995 178.486 27.6851 178.23 27.4319C178.065 27.2676 177.899 27.1033 177.733 26.939C177.819 26.8417 177.899 26.7391 177.972 26.6319C178.249 26.2446 178.407 25.7857 178.429 25.3103C178.451 24.835 178.336 24.3634 178.096 23.9522C178.57 24.7627 178.154 25.7271 177.318 26.3841C177.291 26.4052 177.261 26.4238 177.233 26.4443L176.916 26.1301C176.668 25.8484 176.364 25.6212 176.024 25.4628C175.673 25.3282 175.224 25.3675 174.995 25.6531C174.75 25.9589 174.819 26.4451 174.532 26.714C174.281 26.9494 173.872 26.91 173.534 26.8107C173.196 26.7114 172.847 26.5661 172.506 26.6405C172.276 26.7084 172.08 26.8592 171.955 27.0636C171.83 27.2681 171.786 27.5116 171.83 27.7469C171.869 27.9498 171.954 28.1407 172.08 28.3044C171.136 28.2242 170.187 28.2213 169.242 28.2957C168.13 28.3576 166.994 28.4346 165.968 28.8686C164.943 29.3026 164.031 30.1659 163.842 31.2633C163.653 32.3608 164.295 34.3261 165.405 34.4226Z" fill="#2F2E41"/>
<path d="M199.786 114.498H131.687C131.631 114.498 131.576 114.476 131.536 114.435C131.495 114.395 131.473 114.341 131.473 114.284C131.473 114.227 131.495 114.172 131.536 114.132C131.576 114.091 131.631 114.069 131.687 114.069H199.786C199.843 114.069 199.898 114.091 199.938 114.132C199.979 114.172 200.001 114.227 200.001 114.284C200.001 114.341 199.979 114.395 199.938 114.435C199.898 114.476 199.843 114.498 199.786 114.498Z" fill="#CBCBCB"/>
</g>
<defs>
<clipPath id="clip0_261_54">
<rect width="200" height="114.499" fill="white"/>
</clipPath>
</defs>
</svg>
